<svg width="61" height="33" xmlns="http://www.w3.org/2000/svg" xmlns:xlink="http://www.w3.org/1999/xlink"><defs><path d="M32.429 31.754V14.977c0-.51.419-.88.885-.88h1.769c.419 0 .652.23.791.555l.652 1.715c.698-.741 2.98-2.734 6.565-2.734 5.913 0 8.287 4.402 8.287 9.223v8.898c0 .463-.419.88-.884.88h-3.818a.882.882 0 0 1-.885-.88v-9.177c0-2.41-1.257-3.939-3.492-3.939-2.42 0-3.91 1.668-4.376 2.92v10.196c0 .649-.28.88-1.164.88h-3.445c-.466 0-.885-.417-.885-.88zm-10.203-.06V14.916c0-.51.42-.88.885-.88h3.864c.466 0 .885.37.885.88v16.778c0 .463-.42.88-.885.88h-3.864c-.466 0-.885-.417-.885-.88zm2.761-20.935c-1.769 0-3.166-1.436-3.166-3.198 0-1.76 1.397-3.198 3.166-3.198 1.816 0 3.26 1.437 3.26 3.198 0 1.762-1.444 3.198-3.26 3.198zM57.66 32.925c-1.77 0-3.167-1.437-3.167-3.198s1.397-3.198 3.167-3.198c1.815 0 3.259 1.437 3.259 3.198 0 1.76-1.444 3.198-3.26 3.198zM0 31.694V1.012C0 .55.419.132.885.132h3.957c.466 0 .885.417.885.88V21.08l6.101-6.488c.326-.278.652-.556 1.164-.556h4.237c.792 0 1.07.834.605 1.344l-6.937 7.044 8.287 8.852c.466.51.187 1.298-.605 1.298h-5.028c-.28 0-.652-.185-.791-.37L5.727 23.86v7.833c0 .463-.42.88-.885.88H.885c-.466 0-.885-.417-.885-.88z" id="a"/></defs><g fill="none" fill-rule="evenodd"><mask id="b" fill="#fff"><use xlink:href="#a"/></mask><use fill="#FFF" xlink:href="#a"/><g mask="url(#b)" fill="#FBC02D"><path d="M-5.727-3.3h70v40h-70z"/></g></g></svg>