<svg width="86" height="86" viewBox="0 0 86 86" xmlns="http://www.w3.org/2000/svg">
<path fill-rule="evenodd" clip-rule="evenodd" d="M38.5849 13.8493C39.9328 13.0904 41.4535 12.6918 43.0003 12.6918C44.5471 12.6918 46.0678 13.0904 47.4157 13.8493C48.7636 14.6082 49.8931 15.7016 50.6953 17.0241L50.7039 17.0384L76.1139 59.4584L76.1383 59.4998C76.9241 60.8607 77.3399 62.4037 77.3443 63.9752C77.3487 65.5467 76.9416 67.0919 76.1634 68.4572C75.3851 69.8225 74.263 70.9602 72.9086 71.7572C71.5542 72.5541 70.0147 72.9826 68.4433 72.9998L68.4103 73.0002L17.5573 73C15.9859 72.9827 14.4464 72.5541 13.092 71.7572C11.7376 70.9602 10.6155 69.8225 9.83725 68.4572C9.05904 67.0919 8.65189 65.5467 8.65629 63.9752C8.66069 62.4037 9.07649 60.8607 9.86234 59.4998L9.8867 59.4584L35.2967 17.0384L37.8702 18.58L35.3053 17.0241C36.1075 15.7016 37.2371 14.6082 38.5849 13.8493ZM40.4389 20.1299L15.0484 62.5175C14.7928 62.9669 14.6577 63.4748 14.6563 63.992C14.6548 64.5158 14.7905 65.0309 15.0499 65.486C15.3093 65.9411 15.6834 66.3203 16.1348 66.586C16.5824 66.8493 17.0905 66.9919 17.6095 67H68.3911C68.9101 66.9919 69.4182 66.8493 69.8658 66.586C70.3172 66.3203 70.6913 65.9411 70.9507 65.486C71.2101 65.0309 71.3458 64.5158 71.3443 63.992C71.3429 63.4748 71.2078 62.967 70.9523 62.5176L45.5653 20.1359C45.5641 20.1339 45.5629 20.1319 45.5617 20.1299C45.2945 19.6918 44.9194 19.3294 44.4721 19.0776C44.0228 18.8247 43.5159 18.6918 43.0003 18.6918C42.4847 18.6918 41.9778 18.8247 41.5285 19.0776C41.0812 19.3294 40.7061 19.6918 40.4389 20.1299Z" />
<path fill-rule="evenodd" clip-rule="evenodd" d="M43.0003 31C44.6572 31 46.0003 32.3432 46.0003 34V46C46.0003 47.6569 44.6572 49 43.0003 49C41.3435 49 40.0003 47.6569 40.0003 46V34C40.0003 32.3432 41.3435 31 43.0003 31Z" />
<path fill-rule="evenodd" clip-rule="evenodd" d="M40.0003 58C40.0003 56.3432 41.3435 55 43.0003 55H43.0303C44.6872 55 46.0303 56.3432 46.0303 58C46.0303 59.6569 44.6872 61 43.0303 61H43.0003C41.3435 61 40.0003 59.6569 40.0003 58Z" />
</svg>
