<svg width="76" height="65" viewBox="0 0 76 65" fill="none" xmlns="http://www.w3.org/2000/svg">
<path fill-rule="evenodd" clip-rule="evenodd" d="M0 42.5C0 41.9477 0.447715 41.5 1 41.5H74.5C75.0523 41.5 75.5 41.9477 75.5 42.5C75.5 43.0523 75.0523 43.5 74.5 43.5H1C0.447715 43.5 0 43.0523 0 42.5Z" fill="#167C80"/>
<path fill-rule="evenodd" clip-rule="evenodd" d="M64.125 63.5C64.125 64.1213 63.6213 64.625 63 64.625H13C12.3787 64.625 11.875 64.1213 11.875 63.5C11.875 62.8787 12.3787 62.375 13 62.375H63C63.6213 62.375 64.125 62.8787 64.125 63.5Z" fill="#167C80"/>
<path fill-rule="evenodd" clip-rule="evenodd" d="M59.875 62.5V18.5L62.125 18.5V62.5H59.875Z" fill="#167C80"/>
<path fill-rule="evenodd" clip-rule="evenodd" d="M13.875 62.5L13.875 17.5L16.125 17.5L16.125 62.5H13.875Z" fill="#167C80"/>
<path fill-rule="evenodd" clip-rule="evenodd" d="M55 41.5C54.4477 41.5 54 41.9477 54 42.5V45.5004H51.25C50.6977 45.5004 50.25 45.9481 50.25 46.5004V49.5003H47.5C46.9477 49.5003 46.5 49.948 46.5 50.5003V53.5002H43.75C43.1977 53.5002 42.75 53.9479 42.75 54.5002V57.5002H40C39.4477 57.5002 39 57.9479 39 58.5002V62.5001C39 63.0524 39.4477 63.5001 40 63.5001C40.5523 63.5001 41 63.0524 41 62.5001V59.5002H43.75C44.3023 59.5002 44.75 59.0524 44.75 58.5002V55.5002H47.5C48.0523 55.5002 48.5 55.0525 48.5 54.5002V51.5003H51.25C51.8023 51.5003 52.25 51.0526 52.25 50.5003V47.5004H55C55.5523 47.5004 56 47.0527 56 46.5004V42.5C56 41.9477 55.5523 41.5 55 41.5Z" fill="#167C80"/>
<path d="M18.7999 5.6H27.8999C28.4999 5.6 28.8999 5.1 28.8999 4.6V1.5C28.8999 0.9 28.3999 0.5 27.8999 0.5H18.7999C18.1999 0.5 17.7999 1 17.7999 1.5V4.5C17.7999 5.1 18.1999 5.6 18.7999 5.6ZM19.7999 2.5H26.8999V3.5H19.7999V2.5Z" fill="#167C80"/>
<path d="M62.3999 42.1V19.8L66.5999 22.1C66.7999 22.2 66.8999 22.2 67.0999 22.2C67.4999 22.2 67.7999 22 67.9999 21.7C68.2999 21.2 68.0999 20.6 67.5999 20.3L38.5999 4.1C38.2999 3.9 37.8999 3.9 37.5999 4.1L26.8999 10.1V7.6C26.8999 7 26.3999 6.6 25.8999 6.6H20.7999C20.1999 6.6 19.7999 7.1 19.7999 7.6V14.1L8.49994 20.4C7.99994 20.7 7.79994 21.3 8.09994 21.8C8.39994 22.3 8.99994 22.5 9.49994 22.2L13.6999 19.9V42.1H62.3999ZM21.7999 8.6H24.7999V11.3L21.7999 13V8.6ZM34.9999 42.1H22.7999V32.2C22.7999 28.8 25.4999 26.1 28.8999 26.1C32.2999 26.1 34.9999 28.8 34.9999 32.2V42.1ZM36.9999 42.1V32.2C36.9999 27.7 33.3999 24.1 28.8999 24.1C24.3999 24.1 20.7999 27.7 20.7999 32.2V42.1H15.6999V18.7L17.7999 17.7L26.2999 12.8L37.9999 6.3L60.2999 18.7V42.1" fill="#167C80"/>
<path fill-rule="evenodd" clip-rule="evenodd" d="M40 24.5C40 23.9477 40.4477 23.5 41 23.5H57.5C58.0523 23.5 58.5 23.9477 58.5 24.5C58.5 25.0523 58.0523 25.5 57.5 25.5H41C40.4477 25.5 40 25.0523 40 24.5Z" fill="#167C80"/>
<path fill-rule="evenodd" clip-rule="evenodd" d="M40 28.5C40 27.9477 40.4477 27.5 41 27.5H57.5C58.0523 27.5 58.5 27.9477 58.5 28.5C58.5 29.0523 58.0523 29.5 57.5 29.5H41C40.4477 29.5 40 29.0523 40 28.5Z" fill="#167C80"/>
</svg>
