<svg width="74" height="52" viewBox="0 0 74 52" fill="none" xmlns="http://www.w3.org/2000/svg">
<path d="M13.8586 51.3697H60.1428C60.2478 51.3698 60.3519 51.3491 60.449 51.309C60.5461 51.2688 60.6343 51.2098 60.7086 51.1356C60.7829 51.0613 60.8418 50.973 60.882 50.8759C60.9222 50.7789 60.9428 50.6748 60.9428 50.5697V46.0182C60.9405 44.6762 60.4534 43.3801 59.5713 42.3688C58.6891 41.3574 57.4713 40.6988 56.142 40.5142V30.3659C56.142 25.2893 54.1253 20.4207 50.5356 16.831C46.9459 13.2413 42.0773 11.2246 37.0007 11.2246C31.9241 11.2246 27.0554 13.2413 23.4657 16.831C19.876 20.4207 17.8594 25.2893 17.8594 30.3659V40.5142C16.5301 40.6988 15.3123 41.3574 14.4301 42.3688C13.548 43.3801 13.0609 44.6762 13.0586 46.0182V50.5697C13.0585 50.6748 13.0792 50.7789 13.1194 50.876C13.1596 50.973 13.2185 51.0613 13.2928 51.1356C13.3671 51.2099 13.4553 51.2688 13.5524 51.309C13.6495 51.3491 13.7536 51.3698 13.8586 51.3697ZM19.4594 30.3659C19.4594 25.7137 21.3075 21.252 24.5971 17.9623C27.8868 14.6727 32.3485 12.8246 37.0007 12.8246C41.653 12.8246 46.1147 14.6727 49.4043 17.9623C52.694 21.252 54.542 25.7137 54.542 30.3659V40.4557H19.4594L19.4594 30.3659ZM14.6586 46.0182C14.6597 44.9676 15.0776 43.9604 15.8204 43.2175C16.5633 42.4747 17.5705 42.0568 18.6211 42.0557H55.3803C56.4309 42.0568 57.4381 42.4747 58.181 43.2175C58.9238 43.9604 59.3417 44.9676 59.3428 46.0182V49.7697H14.6586V46.0182Z" fill="#167C80"/>
<path d="M37.7992 4.95545V0.799996C37.7992 0.587824 37.7149 0.384341 37.5649 0.234313C37.4149 0.0842844 37.2114 0 36.9992 0C36.787 0 36.5836 0.0842844 36.4335 0.234313C36.2835 0.384341 36.1992 0.587824 36.1992 0.799996V4.95545C36.1992 5.16762 36.2835 5.3711 36.4335 5.52113C36.5836 5.67116 36.787 5.75544 36.9992 5.75544C37.2114 5.75544 37.4149 5.67116 37.5649 5.52113C37.7149 5.3711 37.7992 5.16762 37.7992 4.95545Z" fill="#167C80"/>
<path d="M48.8578 8.7129C49.003 8.71302 49.1456 8.6736 49.2701 8.59887C49.3947 8.52414 49.4966 8.41691 49.5648 8.28868L51.5171 4.6207C51.5668 4.52793 51.5976 4.42629 51.6079 4.32159C51.6182 4.21689 51.6077 4.11118 51.5771 4.01053C51.5465 3.90988 51.4963 3.81625 51.4295 3.73502C51.3626 3.65378 51.2804 3.58653 51.1875 3.53711C51.0946 3.48769 50.9929 3.45708 50.8882 3.44702C50.7835 3.43697 50.6778 3.44767 50.5772 3.47851C50.4766 3.50935 50.3831 3.55973 50.302 3.62676C50.2209 3.69379 50.1539 3.77616 50.1047 3.86915L48.1523 7.53713C48.0527 7.72444 48.0315 7.94366 48.0935 8.14657C48.1555 8.34949 48.2955 8.51948 48.4828 8.61915C48.5981 8.6809 48.727 8.71311 48.8578 8.7129Z" fill="#167C80"/>
<path d="M61.9531 13.1904C61.894 13.1035 61.8183 13.0292 61.7304 12.9716C61.6425 12.9139 61.5441 12.8742 61.4409 12.8547C61.3376 12.8352 61.2315 12.8362 61.1286 12.8578C61.0258 12.8793 60.9282 12.921 60.8414 12.9803L57.4078 15.3201C57.2325 15.4397 57.1119 15.624 57.0725 15.8325C57.0331 16.0409 57.0781 16.2565 57.1977 16.4318C57.3173 16.6071 57.5016 16.7277 57.71 16.7672C57.9185 16.8066 58.1341 16.7615 58.3094 16.642L61.743 14.3021C61.8298 14.243 61.9041 14.1673 61.9617 14.0794C62.0192 13.9915 62.0589 13.8931 62.0784 13.7898C62.0979 13.6866 62.0969 13.5805 62.0754 13.4777C62.0539 13.3748 62.0124 13.2772 61.9531 13.1904Z" fill="#167C80"/>
<path d="M66.1074 25.9898L61.98 26.4726C61.7775 26.4964 61.5916 26.5967 61.4605 26.753C61.3295 26.9093 61.263 27.1097 61.2748 27.3133C61.2865 27.5169 61.3757 27.7084 61.5239 27.8485C61.6721 27.9886 61.8683 28.0668 62.0722 28.0671C62.1036 28.0672 62.1349 28.0654 62.166 28.0617L66.2933 27.5789C66.504 27.5542 66.6963 27.4468 66.8279 27.2804C66.9594 27.114 67.0195 26.9021 66.9949 26.6914C66.9702 26.4806 66.8628 26.2883 66.6964 26.1568C66.53 26.0252 66.3181 25.9651 66.1074 25.9898V25.9898Z" fill="#167C80"/>
<path d="M25.1437 8.71329C25.2746 8.7135 25.4034 8.68129 25.5187 8.61954C25.706 8.51986 25.8461 8.34987 25.908 8.14696C25.97 7.94405 25.9488 7.72483 25.8492 7.53751L23.8969 3.86953C23.8475 3.77679 23.7804 3.69467 23.6993 3.62787C23.6182 3.56107 23.5248 3.51089 23.4243 3.4802C23.3238 3.44951 23.2183 3.43892 23.1137 3.44902C23.0091 3.45912 22.9076 3.48971 22.8148 3.53906C22.7221 3.58841 22.64 3.65554 22.5732 3.73663C22.5064 3.81771 22.4562 3.91116 22.4255 4.01163C22.3948 4.11211 22.3842 4.21764 22.3943 4.32221C22.4044 4.42678 22.435 4.52834 22.4844 4.62109L24.4367 8.28907C24.505 8.4173 24.6068 8.52453 24.7314 8.59926C24.8559 8.67399 24.9985 8.71341 25.1437 8.71329Z" fill="#167C80"/>
<path d="M16.1391 16.7817C16.3102 16.7818 16.4768 16.7272 16.6145 16.6257C16.7522 16.5243 16.8537 16.3813 16.9043 16.2179C16.9548 16.0545 16.9516 15.8792 16.8951 15.7177C16.8387 15.5562 16.732 15.4171 16.5907 15.3207L13.1571 12.9809C12.9818 12.8613 12.7662 12.8163 12.5577 12.8557C12.3492 12.8951 12.1649 13.0157 12.0454 13.191C11.9258 13.3663 11.8808 13.5819 11.9202 13.7904C11.9596 13.9989 12.0802 14.1832 12.2555 14.3028L15.6891 16.6426C15.8217 16.7331 15.9785 16.7816 16.1391 16.7817Z" fill="#167C80"/>
<path d="M11.9281 28.0671C12.132 28.0668 12.3282 27.9886 12.4764 27.8485C12.6246 27.7084 12.7137 27.5169 12.7255 27.3133C12.7373 27.1097 12.6708 26.9092 12.5397 26.753C12.4086 26.5967 12.2228 26.4964 12.0202 26.4726L7.89292 25.9898C7.78858 25.9776 7.68286 25.986 7.58179 26.0147C7.48072 26.0433 7.38628 26.0916 7.30387 26.1568C7.22146 26.2219 7.15269 26.3027 7.10148 26.3944C7.05027 26.4861 7.01763 26.587 7.00542 26.6914C6.99321 26.7957 7.00167 26.9014 7.03032 27.0025C7.05897 27.1036 7.10725 27.198 7.17239 27.2804C7.23754 27.3628 7.31828 27.4316 7.41001 27.4828C7.50173 27.534 7.60264 27.5666 7.70698 27.5789L11.8343 28.0617C11.8654 28.0654 11.8967 28.0672 11.9281 28.0671Z" fill="#167C80"/>
<path d="M34.7445 16.9561C31.9301 16.9594 29.2319 18.0788 27.2418 20.0689C25.2517 22.059 24.1322 24.7572 24.1289 27.5716C24.1289 27.7838 24.2132 27.9873 24.3632 28.1373C24.5132 28.2873 24.7167 28.3716 24.9289 28.3716C25.1411 28.3716 25.3446 28.2873 25.4946 28.1373C25.6446 27.9873 25.7289 27.7838 25.7289 27.5716C25.7316 25.1814 26.6824 22.8898 28.3725 21.1997C30.0627 19.5095 32.3542 18.5588 34.7445 18.556C34.9566 18.556 35.1601 18.4718 35.3102 18.3217C35.4602 18.1717 35.5445 17.9682 35.5445 17.7561C35.5445 17.5439 35.4602 17.3404 35.3102 17.1904C35.1601 17.0403 34.9566 16.9561 34.7445 16.9561Z" fill="#167C80"/>
</svg>
