<svg width="70" height="51" viewBox="0 0 70 51" fill="none" xmlns="http://www.w3.org/2000/svg">
<path fill-rule="evenodd" clip-rule="evenodd" d="M28.7865 1.96983C29.5785 0.673717 31.4931 0.677464 32.2799 1.97666L38.1236 11.6259C38.4108 12.1 38.2521 12.7129 37.7692 12.9948C37.2862 13.2767 36.662 13.1209 36.3748 12.6468L30.5311 2.99757L20.1242 20.0267H24.9994C25.9878 20.0267 26.5983 21.0854 26.0898 21.9176L15.0377 40.0024H46.0152L41.366 32.533C41.073 32.0623 41.2241 31.4475 41.7035 31.1599C42.1829 30.8723 42.8091 31.0207 43.102 31.4913L47.7513 38.9608C48.5798 40.2919 47.6041 42 46.0152 42H15.0377C13.4563 42 12.4794 40.3061 13.2931 38.9747L23.6518 22.0243H20.1242C18.5427 22.0243 17.5659 20.3304 18.3796 18.999L28.7865 1.96983ZM43.8082 22.576C42.9819 23.2627 41.8181 24.3416 40.9329 25.591L40.9256 25.6012C40.1966 26.6033 39.5067 27.7626 38.994 28.6834C38.739 29.1412 38.5308 29.5348 38.3867 29.8132C38.3147 29.9523 38.2589 30.0624 38.2213 30.137L38.179 30.2216C38.1721 30.2357 36.3444 29.358 36.3501 29.3465C36.3609 29.3247 36.3766 29.2932 36.397 29.2527C36.4377 29.1717 36.4971 29.0547 36.5729 28.9082C36.7245 28.6154 36.9423 28.2037 37.2087 27.7252C37.7379 26.7747 38.4708 25.5392 39.2663 24.4451C40.3111 22.9721 41.6479 21.7505 42.5369 21.0155C43.5901 20.1447 45.0568 20.6076 45.6153 21.6573C46.1051 22.5779 46.8563 23.8467 47.6765 24.7594L47.6843 24.768L47.6918 24.7768C48.4897 25.7071 49.4938 26.7918 50.3045 27.6499C50.7086 28.0776 51.0622 28.4465 51.3147 28.7084C51.4409 28.8392 51.5417 28.9433 51.6109 29.0144L51.69 29.0957L51.7152 29.1216L51.7164 29.1228C52.1055 29.5207 52.0927 30.1533 51.6874 30.5353C51.2821 30.9173 50.6381 30.9044 50.249 30.5065L50.2201 30.4769L50.1387 30.3932C50.0679 30.3204 49.9653 30.2146 49.8372 30.0817C49.581 29.816 49.2225 29.4421 48.8128 29.0084C47.9982 28.1461 46.9714 27.0375 46.1429 26.0721C45.1589 24.9745 44.3197 23.5363 43.812 22.5823C43.8108 22.58 43.8095 22.5779 43.8082 22.576Z" fill="#167C80"/>
<path fill-rule="evenodd" clip-rule="evenodd" d="M32.0454 42.0422V50.0047C32.0454 50.5544 31.5875 51 31.0227 51C30.4579 51 30 50.5544 30 50.0047V42.0422H32.0454Z" fill="#167C80"/>
<path fill-rule="evenodd" clip-rule="evenodd" d="M45.3689 6.02887C44.4795 7.14491 42.8611 9.11557 40.5906 11.6411C39.9571 12.3558 39.2561 13.0038 38.5948 13.615C38.5476 13.6587 38.5005 13.7022 38.4537 13.7455C37.7371 14.4086 37.068 15.0383 36.4808 15.7368C35.341 17.0925 34.5003 18.7169 34.5003 21.2401C34.5003 26.8555 39.0476 31.1932 44.7275 31.1932C50.4012 31.1932 54.9546 26.7618 54.9546 21.2401C54.9546 17.6485 53.822 14.8417 53.0243 13.3121C53.0033 13.3121 52.9759 13.3161 52.947 13.3272C52.9159 13.3392 52.8911 13.3562 52.8732 13.3749C51.8762 14.4157 50.5225 15.5825 49.801 16.1887C49.3391 16.5768 48.7519 16.5492 48.3503 16.338C47.9542 16.1297 47.6224 15.6858 47.6697 15.1234C47.8036 13.5312 47.8482 9.38311 45.3689 6.02887ZM43.7784 4.77654C44.5323 3.82954 46.1192 3.65859 46.9577 4.77043C49.2302 7.78363 49.7214 11.288 49.7624 13.5574C50.3114 13.0662 50.8948 12.5209 51.377 12.0176C51.8456 11.5284 52.5058 11.2928 53.1362 11.3243C53.7816 11.3566 54.4645 11.6802 54.8264 12.3694C55.722 14.0752 57 17.2122 57 21.2401C57 27.8612 51.5308 33.1839 44.7275 33.1839C37.9302 33.1839 32.4549 27.9667 32.4549 21.2401C32.4549 18.1896 33.5063 16.1314 34.8977 14.4763C35.576 13.6694 36.3324 12.9616 37.0443 12.3028C37.0858 12.2645 37.1271 12.2263 37.1682 12.1883C37.8471 11.5605 38.479 10.9762 39.0438 10.3386L39.0487 10.333C41.3132 7.81435 42.9162 5.85961 43.7784 4.77654Z" fill="#167C80"/>
</svg>
