<svg width="40" height="37" viewBox="0 0 40 37" fill="none" xmlns="http://www.w3.org/2000/svg">
<path d="M35.9124 9.98114C36.2531 9.98114 36.5292 9.70498 36.5292 9.36431C36.5292 9.02364 36.2531 8.74747 35.9124 8.74747C35.5717 8.74747 35.2956 9.02364 35.2956 9.36431C35.2956 9.70498 35.5717 9.98114 35.9124 9.98114Z" fill="#167C80"/>
<path d="M39.1121 9.41581C38.8628 8.87374 37.7305 6.61989 35.7591 5.59723C35.7438 5.51332 35.728 5.43357 35.7118 5.35465C35.7072 5.33305 35.7031 5.31145 35.6989 5.29026C35.6665 5.1345 35.6333 4.98579 35.5984 4.84622C35.5946 4.83127 35.5913 4.8159 35.588 4.80095C35.5689 4.72618 35.5494 4.65556 35.5298 4.58578C35.5244 4.56626 35.5199 4.54757 35.5141 4.52887C35.2316 3.54816 34.8715 3.02603 34.3863 2.85739C34.3797 2.85531 34.3734 2.85365 34.3668 2.85157C34.3223 2.83745 34.2766 2.82457 34.2297 2.81585C34.2069 2.81128 34.1836 2.80879 34.1599 2.80588C34.1354 2.80297 34.1121 2.79716 34.0868 2.79633C34.0756 2.79508 34.064 2.79757 34.0519 2.79716C34.0415 2.79674 34.0316 2.79466 34.0204 2.79466C33.9813 2.79466 33.9431 2.79799 33.9049 2.80173C33.9007 2.80297 33.897 2.80214 33.8932 2.80297C33.45 2.85323 33.0538 3.16975 32.67 3.80196C32.4016 4.22523 32.1441 4.7835 31.8986 5.47262C31.5214 5.62921 31.1434 5.83233 30.7717 6.08115C28.6914 7.46768 27.9674 8.9888 27.3847 10.2117C26.6993 11.6526 26.3205 12.446 23.9844 12.446C23.6296 12.446 23.2309 12.4252 22.7989 12.3854C16.3347 11.7868 10.4006 11.2697 10.3412 11.2651L10.2602 11.2622C9.94538 11.2622 7.12453 11.3278 4.97952 13.6278C4.85947 13.7557 4.74524 13.8886 4.63433 14.0253C4.12217 13.1584 3.453 11.3232 4.77473 8.81559C5.99096 6.50733 8.64192 4.79181 11.3714 4.54715C13.4553 4.36189 15.2435 5.07884 16.412 6.57213C17.3146 7.72563 18.442 8.21703 19.4322 7.88846C20.2406 7.6193 20.7756 6.82675 20.7959 5.87013C20.8113 5.12993 20.4989 2.57701 15.8371 0.805828C12.7367 -0.372604 9.60435 -0.256713 6.77686 1.14145C3.81687 2.60359 1.33539 5.46265 0.453956 8.42347C-0.649292 12.1282 0.298189 15.8085 2.86316 17.9319C2.58194 19.264 2.49679 20.7752 2.61061 22.46L2.60687 22.5057C2.31029 26.242 1.61453 27.2273 1.32875 27.479L1.00143 27.7062L3.64365 36.516H8.76445L8.82801 35.9731C8.84753 35.7887 8.99125 34.1812 8.12934 33.2254C7.76256 32.8187 7.26618 32.6085 6.69088 32.5894C6.63272 31.2482 6.6888 28.1818 8.13848 25.9226C8.19081 25.874 8.24149 25.8275 8.29175 25.7768C9.55077 26.4136 12.718 27.764 16.9632 27.764C18.928 27.764 20.8865 27.4682 22.7947 26.8875C23.1233 27.9073 23.6861 30.007 23.3252 31.5697C22.7158 34.209 24.2415 36.2252 24.3067 36.312L24.5119 36.5156H29.6651L29.8416 36.1683C29.9127 36.0005 30.5133 34.5417 29.8292 33.5107C29.6032 33.1701 29.1617 32.7838 28.3159 32.7057C28.1876 31.3321 28.1112 27.7527 30.4211 25.4432L30.5764 25.2908C33.5909 22.2776 35.0131 20.8583 35.2632 14.8544C36.5039 14.5715 39.3218 13.7495 39.8951 12.0215C40.0899 11.4366 40.1061 10.5157 39.1121 9.41581ZM1.76448 8.8131C2.40167 6.67223 4.38635 3.84765 7.38207 2.36599C9.85773 1.14104 12.6146 1.04301 15.3507 2.08229C18.3938 3.23912 19.4493 4.83002 19.4285 5.84064C19.4202 6.21822 19.2557 6.50566 18.999 6.59165C18.6787 6.69757 18.113 6.52851 17.4874 5.72849C16.0224 3.85804 13.8072 2.95417 11.248 3.18512C8.07575 3.47049 4.98824 5.47677 3.56432 8.1784C1.8272 11.4748 2.90677 13.8965 3.60129 14.9499C3.65695 15.1601 3.66401 15.4376 3.49121 15.7379C3.12443 16.3726 2.61144 15.6403 2.61144 15.6403L2.61642 15.6523C1.35699 13.8454 1.01056 11.3465 1.76448 8.8131ZM38.5991 11.5916C38.3042 12.483 36.0977 13.2444 34.5965 13.5601C34.3348 13.6535 34.3331 13.9393 33.5024 14.5727C33.5024 14.5769 33.5024 14.5794 33.5024 14.5831C33.5024 20.2319 32.3642 21.3733 29.4088 24.3271L29.3548 24.4829C25.9624 27.8749 26.9493 33.2939 26.9909 33.5232L27.1275 34.1338L27.7589 34.0798C27.8432 34.0723 27.9292 34.0648 28.004 34.0648C28.2474 34.0648 28.566 34.101 28.6877 34.2825C28.8294 34.4943 28.8015 35.2699 28.7155 35.2699H25.228C24.9107 34.4391 24.3021 33.4169 24.6589 31.8754C25.1674 29.6685 24.2286 26.8098 23.9374 26.0057L24.6697 23.2571C24.6776 23.093 24.6403 22.7196 24.1597 22.5784C23.6317 22.4226 23.3858 22.8621 23.3223 23.0008L22.656 25.5001C20.7951 26.0954 18.8831 26.4007 16.964 26.4007C13.2942 26.4007 10.4509 25.292 9.16612 24.6827C9.83696 23.6442 10.2208 22.5206 10.4202 21.7887C10.4247 21.6292 10.4023 21.0747 9.88058 20.9289C9.45897 20.8105 9.23549 21.0996 9.13705 21.2903C8.97256 21.9291 8.61865 23.0432 7.96817 24.0181L7.91002 23.9828L7.53161 24.4393C4.74316 27.8047 5.35419 33.2087 5.3816 33.4372L5.4734 34.1998L6.22108 34.0175C6.36439 33.983 6.49607 33.961 6.61196 33.961C6.89774 33.961 7.02983 34.0644 7.11332 34.1571C7.34801 34.4158 7.44022 35.2703 7.46971 35.2703H4.66383L2.54622 28.1652C3.28186 27.2161 3.74916 25.4017 3.96973 22.6211L3.98136 22.4724L3.97762 22.4193C3.7313 18.8919 4.40463 16.2476 5.97809 14.5607C7.69776 12.7168 9.92461 12.6313 10.2503 12.6292C10.703 12.6686 16.4415 13.1696 22.6722 13.7461C23.1457 13.7902 23.5864 13.8118 23.9831 13.8118C27.182 13.8118 27.8794 12.3484 28.6175 10.799C29.1475 9.6854 29.7494 8.42638 31.4662 7.26124L32.0951 7.42365C32.3065 7.41618 32.7144 7.33102 32.8922 6.80806C32.908 6.76071 32.9262 6.75946 32.9466 6.72208C32.9624 6.67099 32.9769 6.60868 32.9935 6.60868H32.9956L33.104 6.25187C33.4991 5.09836 33.8056 4.55421 33.9776 4.32451C34.0748 4.5214 34.2181 4.89358 34.3672 5.618C34.3689 5.62672 34.3713 5.63088 34.3726 5.6396C34.3826 5.68778 34.3925 5.73472 34.4025 5.78623C34.4137 5.84853 34.4266 5.91209 34.4378 5.97896C34.4432 6.00513 34.4474 6.03296 34.4523 6.06038C34.4814 6.22985 34.5113 6.4147 34.5408 6.61408C34.6139 6.75489 34.7967 7.05563 35.0517 7.11918L35.5419 7.0577C37.0427 8.08078 37.8954 10.043 37.9046 10.0646L37.9523 10.1772L38.0367 10.2665C38.5289 10.787 38.7175 11.2327 38.5991 11.5916Z" fill="#167C80"/>
</svg>
