<svg width="74" height="51" viewBox="0 0 74 51" fill="none" xmlns="http://www.w3.org/2000/svg">
<path d="M33.559 22.6159C33.559 22.6619 33.5217 22.6991 33.4757 22.6991H26.1177C25.5829 22.6991 25.1495 23.1326 25.1495 23.6673C25.1495 24.2021 25.5829 24.6355 26.1177 24.6355H35.3956C35.4508 24.6355 35.4956 24.5908 35.4956 24.5355V11.1002C35.4956 10.5655 35.0621 10.1319 34.5273 10.1319C33.9925 10.1319 33.559 10.5655 33.559 11.1002V22.6159Z" fill="#167C80"/>
<path d="M54.2269 27.3162C54.1947 27.2932 54.1789 27.2534 54.1866 27.2146C55.0261 22.965 54.4831 18.5576 52.6361 14.638C50.7799 10.6988 47.705 7.46153 43.8664 5.40487C40.0277 3.34821 35.6291 2.5814 31.3208 3.21782C27.0126 3.85425 23.0236 5.86012 19.9437 8.93881C16.8638 12.0175 14.8565 16.0055 14.2187 20.3132C13.581 24.6208 14.3465 29.0193 16.4022 32.8583C18.4578 36.6972 21.6945 39.7727 25.6335 41.63C29.5528 43.478 33.9605 44.0223 38.2107 43.1842C38.2496 43.1765 38.2893 43.1923 38.3123 43.2245C39.2654 44.5586 40.4951 45.6717 41.9178 46.4877C43.3593 47.3146 44.9641 47.8165 46.6199 47.9584C48.2757 48.1002 49.9425 47.8786 51.5036 47.309C53.0648 46.7393 54.4826 45.8355 55.6579 44.6607C56.8332 43.4859 57.7376 42.0684 58.3077 40.5076C58.8779 38.9467 59.1 37.2802 58.9587 35.6245C58.8173 33.9688 58.3158 32.364 57.4893 30.9224C56.6736 29.4996 55.5608 28.2696 54.2269 27.3162ZM34.324 41.632C30.7001 41.6349 27.1567 40.563 24.1421 38.5519C21.1274 36.5408 18.7771 33.6809 17.3882 30.3339C15.9994 26.9869 15.6346 23.3033 16.3398 19.7489C17.045 16.1946 18.7887 12.9292 21.3502 10.3659C23.9117 7.80257 27.176 6.05647 30.7301 5.34848C34.2842 4.64049 37.9685 5.0024 41.3169 6.38844C44.6653 7.77448 47.5273 10.1224 49.541 13.1351C51.5546 16.1479 52.6294 19.6901 52.6294 23.3137C52.6297 24.2504 52.5588 25.1858 52.4175 26.1116C52.4075 26.1773 52.3371 26.2146 52.2766 26.1873C50.1864 25.2426 47.8588 24.9497 45.5978 25.3484C43.2933 25.7548 41.1696 26.8601 39.5147 28.5143C37.8598 30.1686 36.7537 32.2918 36.3465 34.5959C35.947 36.8566 36.2393 39.1842 37.1834 41.2746C37.2107 41.3351 37.1735 41.4053 37.108 41.4155C36.1821 41.5584 35.2465 41.6309 34.3095 41.632H34.324ZM47.5992 46.0664C45.7235 46.0692 43.8891 45.5156 42.3282 44.4757C40.7673 43.4357 39.55 41.956 38.8305 40.224C38.1109 38.492 37.9214 36.5854 38.2859 34.7457C38.6504 32.9059 39.5526 31.2156 40.8782 29.8887C42.2039 28.5619 43.8934 27.658 45.7329 27.2917C47.5725 26.9253 49.4794 27.1129 51.2123 27.8306C52.9452 28.5483 54.4263 29.764 55.4679 31.3237C56.5096 32.8834 57.0651 34.717 57.0642 36.5926C57.0603 39.104 56.0609 41.5115 54.2849 43.2873C52.5089 45.0632 50.1012 46.0625 47.5895 46.0664H47.5992Z" fill="#167C80"/>
<path d="M48.5575 31.3255C48.5575 30.7908 48.124 30.3572 47.5893 30.3572C47.0545 30.3572 46.621 30.7908 46.621 31.3255V38.4658C46.621 39.0006 47.0545 39.4341 47.5893 39.4341C48.124 39.4341 48.5575 39.0006 48.5575 38.4658V31.3255Z" fill="#167C80"/>
<path d="M48.5575 41.9757C48.5575 41.4409 48.124 41.0074 47.5893 41.0074C47.0545 41.0074 46.621 41.4409 46.621 41.9757V42.3386C46.621 42.8734 47.0545 43.3069 47.5893 43.3069C48.124 43.3069 48.5575 42.8734 48.5575 42.3386V41.9757Z" fill="#167C80"/>
</svg>
