<svg width="60" height="52" viewBox="0 0 60 52" fill="none" xmlns="http://www.w3.org/2000/svg">
<path fill-rule="evenodd" clip-rule="evenodd" d="M53.0392 22.4178C53.0392 23.8573 52.2421 25.1133 51.0672 25.7676C51.0118 25.7985 50.9559 25.828 50.8992 25.8559C50.8912 25.8598 50.8834 25.8643 50.8754 25.8681C50.8073 25.901 50.7381 25.9314 50.6682 25.9602C50.6548 25.9658 50.641 25.971 50.6274 25.9764C50.567 26.0006 50.5061 26.0232 50.4446 26.0441C50.4327 26.0481 50.4209 26.0522 50.4089 26.0562C50.2594 26.1054 50.1072 26.1456 49.9527 26.1761C49.9485 26.1769 49.9443 26.1775 49.9401 26.1783C49.8708 26.1918 49.8009 26.2029 49.7308 26.2124C49.7137 26.2148 49.6966 26.2169 49.6794 26.219C49.6201 26.2263 49.5605 26.2319 49.5007 26.2364C49.4817 26.2379 49.4628 26.2396 49.4437 26.2408C49.3679 26.2453 49.2919 26.2482 49.2157 26.2482C49.1562 26.2482 49.097 26.2463 49.0381 26.2437C49.0143 26.2425 48.9907 26.2408 48.967 26.2391C48.9336 26.2371 48.9005 26.2345 48.8675 26.2316C48.8358 26.2286 48.8042 26.2254 48.7727 26.2217C48.7514 26.2192 48.7301 26.2164 48.7088 26.2134C48.6691 26.2081 48.6294 26.2026 48.5899 26.196L48.5863 26.1953C47.579 26.0252 46.6838 25.4539 46.0991 24.6327C46.0875 24.6163 46.0757 24.6001 46.0642 24.5835C46.0471 24.5585 46.0304 24.5329 46.0136 24.5073C45.9985 24.4842 45.9834 24.461 45.9688 24.4373C45.9543 24.414 45.94 24.3906 45.926 24.367C45.91 24.3399 45.8944 24.3127 45.8791 24.2853C45.8669 24.2634 45.8544 24.2414 45.8425 24.2193C45.8259 24.1879 45.81 24.1562 45.7941 24.1244C45.7843 24.1049 45.7741 24.0856 45.7648 24.0659C45.7413 24.0165 45.7186 23.9667 45.697 23.9162C45.6871 23.8925 45.6778 23.8683 45.6682 23.8444C45.6568 23.8159 45.6453 23.7874 45.6344 23.7585C45.6231 23.7284 45.6126 23.6978 45.6022 23.6673C45.5944 23.645 45.5867 23.6228 45.5794 23.6002C45.5683 23.5659 45.5577 23.5314 45.5476 23.4966C45.4472 23.1541 45.3922 22.7923 45.3922 22.4178V19.9753H53.0392V22.4178ZM50.5996 28.0438V46.4446H25.1698V31.5994C25.1698 31.057 24.7309 30.6172 24.1894 30.6172H14.5816C14.0402 30.6172 13.6012 31.057 13.6012 31.5994V46.4446H9.43157V28.0516C9.44333 28.0544 9.4552 28.0563 9.46696 28.0591C9.55402 28.0795 9.64196 28.0979 9.73039 28.1143C9.75353 28.1187 9.77676 28.1228 9.7999 28.1268C9.88324 28.1412 9.96716 28.1535 10.0517 28.1643C10.0779 28.1678 10.1042 28.1714 10.1306 28.1744C10.2137 28.1839 10.2975 28.191 10.3817 28.1968C10.4075 28.1986 10.4332 28.2014 10.4592 28.2027C10.5668 28.2088 10.6752 28.2125 10.7843 28.2125C10.8713 28.2125 10.9578 28.2098 11.0441 28.2059C11.0664 28.2049 11.0887 28.2039 11.111 28.2026C11.1886 28.1982 11.2661 28.1925 11.343 28.185C11.3774 28.1816 11.4114 28.1774 11.4457 28.1735C11.4878 28.1686 11.5298 28.1632 11.5717 28.1574C12.9978 27.9619 14.2593 27.2443 15.1583 26.203L15.1598 26.2013C15.236 26.113 15.31 26.0228 15.3809 25.9299L15.382 25.9285C15.41 25.8918 15.4374 25.8544 15.4645 25.817C15.4862 25.7873 15.5075 25.7572 15.5285 25.727C15.5484 25.6985 15.5689 25.6705 15.5882 25.6416C15.6075 25.6704 15.6279 25.6983 15.6477 25.7268C15.669 25.7571 15.6903 25.7874 15.7122 25.8172C15.7391 25.8545 15.7663 25.8916 15.7943 25.9282L15.7977 25.9326C15.8677 26.0242 15.9407 26.1133 16.0158 26.2004L16.0188 26.2039C16.9178 27.2447 18.179 27.9619 19.6047 28.1573C19.6467 28.1632 19.6886 28.1686 19.7309 28.1735C19.7651 28.1774 19.7991 28.1816 19.8334 28.185C19.9104 28.1925 19.9878 28.1982 20.0655 28.2026C20.0877 28.2039 20.1101 28.2049 20.1324 28.2059C20.2186 28.2098 20.3052 28.2125 20.3922 28.2125C20.4791 28.2125 20.5657 28.2098 20.652 28.2059C20.6742 28.2049 20.6966 28.2039 20.7188 28.2026C20.7965 28.1982 20.8739 28.1925 20.9509 28.185C20.9852 28.1816 21.0192 28.1774 21.0535 28.1735C21.0957 28.1686 21.1376 28.1632 21.1795 28.1574C22.6057 27.9619 23.8672 27.2443 24.7662 26.203L24.7676 26.2013C24.8438 26.113 24.9178 26.0228 24.9887 25.9299L24.9898 25.9285C25.0178 25.8918 25.0452 25.8544 25.0724 25.817C25.094 25.7873 25.1153 25.7572 25.1364 25.727C25.1563 25.6985 25.1768 25.6705 25.1961 25.6416C25.2154 25.6704 25.2358 25.6983 25.2556 25.7268C25.2769 25.7571 25.2981 25.7874 25.32 25.8172C25.347 25.8545 25.3741 25.8916 25.4022 25.9282L25.4056 25.9326C25.4756 26.0242 25.5485 26.1133 25.6236 26.2004L25.6267 26.2039C26.5257 27.2447 27.7869 27.9619 29.2125 28.1573C29.2545 28.1632 29.2965 28.1686 29.3387 28.1735C29.3729 28.1774 29.407 28.1816 29.4413 28.185C29.5182 28.1925 29.5957 28.1982 29.6733 28.2026C29.6956 28.2039 29.7179 28.2049 29.7402 28.2059C29.8265 28.2098 29.913 28.2125 30 28.2125C30.087 28.2125 30.1735 28.2098 30.2598 28.2059C30.2821 28.2049 30.3044 28.2039 30.3267 28.2026C30.4043 28.1982 30.4818 28.1925 30.5587 28.185C30.593 28.1816 30.6271 28.1774 30.6614 28.1735C30.7035 28.1686 30.7455 28.1632 30.7874 28.1574C32.2135 27.9619 33.475 27.2443 34.374 26.203L34.3755 26.2013C34.4517 26.113 34.5257 26.0228 34.5966 25.9299L34.5976 25.9285C34.6257 25.8918 34.653 25.8544 34.6802 25.817C34.7019 25.7873 34.7231 25.7572 34.7442 25.727C34.7641 25.6985 34.7846 25.6705 34.8039 25.6416C34.8232 25.6704 34.8436 25.6983 34.8634 25.7268C34.8847 25.7571 34.906 25.7874 34.9278 25.8172C34.9548 25.8545 34.982 25.8916 35.01 25.9282L35.0134 25.9326C35.0834 26.0242 35.1564 26.1133 35.2315 26.2004L35.2345 26.2039C36.1335 27.2447 37.3947 27.9619 38.8204 28.1573C38.8624 28.1632 38.9043 28.1686 38.9466 28.1735C38.9808 28.1774 39.0148 28.1816 39.0491 28.185C39.1261 28.1925 39.2035 28.1982 39.2812 28.2026C39.3034 28.2039 39.3258 28.2049 39.348 28.2059C39.4343 28.2098 39.5209 28.2125 39.6078 28.2125C39.6948 28.2125 39.7814 28.2098 39.8676 28.2059C39.8899 28.2049 39.9123 28.2039 39.9345 28.2026C40.0122 28.1982 40.0896 28.1925 40.1666 28.185C40.2009 28.1816 40.2349 28.1774 40.2692 28.1735C40.3114 28.1686 40.3533 28.1632 40.3952 28.1574C41.8214 27.9619 43.0828 27.2443 43.9819 26.203L43.9833 26.2013C44.0595 26.113 44.1335 26.0228 44.2044 25.9299L44.2055 25.9285C44.2335 25.8918 44.2609 25.8544 44.288 25.817C44.3097 25.7873 44.331 25.7572 44.3521 25.727C44.372 25.6985 44.3925 25.6705 44.4118 25.6416C44.4311 25.6704 44.4515 25.6983 44.4713 25.7268C44.4925 25.7571 44.5138 25.7874 44.5357 25.8172C44.5626 25.8545 44.5898 25.8916 44.6178 25.9282L44.6213 25.9326C44.6913 26.0242 44.7642 26.1133 44.8393 26.2004L44.8424 26.2039C45.7414 27.2447 47.0025 27.9619 48.4282 28.1573C48.4702 28.1632 48.5122 28.1686 48.5544 28.1735C48.5886 28.1774 48.6226 28.1816 48.657 28.185C48.7339 28.1925 48.8114 28.1982 48.889 28.2026C48.9113 28.2039 48.9336 28.2049 48.9559 28.2059C49.0422 28.2098 49.1287 28.2125 49.2157 28.2125C49.3266 28.2125 49.4365 28.2086 49.5458 28.2023C49.5728 28.2009 49.5998 28.1981 49.6268 28.1962C49.712 28.1902 49.7968 28.1826 49.8809 28.173C49.9077 28.1698 49.9343 28.1662 49.9612 28.1627C50.0491 28.1513 50.1365 28.138 50.223 28.1227C50.2437 28.1191 50.2644 28.1154 50.2851 28.1116C50.3861 28.0925 50.486 28.0712 50.585 28.047C50.5898 28.0459 50.5947 28.045 50.5996 28.0438ZM15.562 46.4445H23.209V32.5815H15.562V46.4445ZM6.96078 19.9753H14.6078V22.4178C14.6078 22.7909 14.5532 23.1513 14.4536 23.4925C14.4427 23.5297 14.4314 23.5666 14.4194 23.6034C14.4132 23.6227 14.4066 23.6419 14.4 23.661C14.3885 23.6945 14.377 23.728 14.3647 23.761C14.3559 23.7845 14.3463 23.8076 14.3371 23.8309C14.3222 23.8685 14.3069 23.906 14.2908 23.943C14.2731 23.9837 14.2551 24.024 14.2362 24.064C14.2251 24.0872 14.2132 24.11 14.2016 24.1328C14.1875 24.1609 14.1733 24.1891 14.1586 24.2168C14.1456 24.2414 14.132 24.2654 14.1184 24.2897C14.1043 24.3145 14.0903 24.3394 14.0757 24.3639C14.0605 24.3896 14.0451 24.415 14.0294 24.4403C14.0162 24.4615 14.0025 24.4824 13.989 24.5032C13.971 24.5309 13.9529 24.5585 13.9343 24.5856C13.925 24.5992 13.9153 24.6123 13.9059 24.6257C13.3213 25.4508 12.4235 26.025 11.4131 26.1954L11.4102 26.196C11.3706 26.2026 11.3308 26.2081 11.291 26.2135C11.2697 26.2164 11.2486 26.2192 11.2274 26.2216C11.1958 26.2254 11.1642 26.2286 11.1325 26.2316C11.0995 26.2345 11.0664 26.2371 11.0331 26.2391C11.0094 26.2407 10.9857 26.2425 10.9619 26.2437C10.9029 26.2463 10.8438 26.2482 10.7843 26.2482C10.7089 26.2482 10.6338 26.2454 10.5587 26.241C10.5396 26.2398 10.5205 26.238 10.5013 26.2366C10.4432 26.2323 10.3855 26.2269 10.3276 26.2199C10.3092 26.2176 10.2909 26.2154 10.2726 26.2129C10.2089 26.2043 10.1454 26.1942 10.0824 26.1824C10.0722 26.1805 10.0619 26.1788 10.0517 26.1768C9.90176 26.1476 9.75392 26.1091 9.60882 26.0621C9.59284 26.0571 9.57716 26.0514 9.56127 26.046C9.50794 26.0281 9.455 26.0087 9.40255 25.9883C9.38059 25.9798 9.35853 25.9712 9.33676 25.9623C9.28853 25.9425 9.24088 25.9213 9.19343 25.8995C9.17265 25.89 9.15147 25.8811 9.13088 25.8711C9.07078 25.8423 9.01167 25.8114 8.95314 25.7794C7.76696 25.1283 6.96078 23.8657 6.96078 22.4178V19.9753ZM11.4523 11.3507H17.3856L14.9074 18.011H7.66676L11.4523 11.3507ZM11.8627 7.46429H48.2353V9.38646H33.1805C33.1761 9.38636 33.1718 9.38646 33.1675 9.38646H26.888C26.8844 9.38646 26.8808 9.38636 26.8771 9.38646H11.8627V7.46429ZM45.1493 18.011L42.6711 11.3507H48.4552L52.3165 18.011H45.1493ZM40.5784 11.3507L43.0568 18.011H35.6669L34.3584 11.3507H40.5784ZM32.3601 11.3507L33.6685 18.011H26.3881L27.6966 11.3507H32.3601ZM25.6982 11.3507L24.3898 18.011H16.9999L19.4782 11.3507H25.6982ZM21.018 26.196C20.9784 26.2026 20.9386 26.2081 20.8988 26.2135C20.8775 26.2164 20.8565 26.2192 20.8352 26.2216C20.8036 26.2254 20.7721 26.2286 20.7403 26.2316C20.7074 26.2345 20.6742 26.2371 20.641 26.2391C20.6173 26.2407 20.5935 26.2425 20.5697 26.2437C20.5108 26.2463 20.4517 26.2482 20.3922 26.2482C20.3326 26.2482 20.2734 26.2463 20.2146 26.2437C20.1908 26.2425 20.1672 26.2408 20.1434 26.2391C20.1101 26.2371 20.077 26.2345 20.0439 26.2316C20.0123 26.2286 19.9807 26.2254 19.9492 26.2217C19.9278 26.2192 19.9066 26.2164 19.8853 26.2134C19.8456 26.2081 19.8059 26.2026 19.7664 26.196L19.7627 26.1953C18.7555 26.0252 17.8603 25.4539 17.2756 24.6327C17.264 24.6163 17.2522 24.6001 17.2407 24.5835C17.2235 24.5585 17.2069 24.5329 17.1901 24.5073C17.175 24.4842 17.1599 24.461 17.1453 24.4373C17.1308 24.414 17.1165 24.3906 17.1025 24.367C17.0865 24.3399 17.0709 24.3127 17.0556 24.2853C17.0433 24.2634 17.0309 24.2414 17.019 24.2193C17.0024 24.1879 16.9865 24.1562 16.9706 24.1244C16.9608 24.1049 16.9506 24.0856 16.9413 24.0659C16.9177 24.0165 16.8951 23.9667 16.8734 23.9162C16.8635 23.8925 16.8543 23.8683 16.8447 23.8444C16.8332 23.8159 16.8218 23.7874 16.8109 23.7585C16.7996 23.7284 16.7891 23.6978 16.7786 23.6673C16.7709 23.645 16.7631 23.6228 16.7559 23.6002C16.7448 23.5659 16.7342 23.5314 16.7241 23.4966C16.6236 23.1541 16.5686 22.7923 16.5686 22.4178V19.9753H24.2157V22.4178C24.2157 22.7909 24.1611 23.1513 24.0615 23.4925C24.0506 23.5297 24.0392 23.5666 24.0273 23.6034C24.0211 23.6227 24.0144 23.6419 24.0078 23.661C23.9964 23.6945 23.9848 23.728 23.9725 23.761C23.9637 23.7845 23.9541 23.8076 23.9449 23.8309C23.93 23.8685 23.9147 23.906 23.8986 23.943C23.881 23.9837 23.8629 24.024 23.844 24.064C23.8329 24.0872 23.8211 24.11 23.8094 24.1328C23.7954 24.1609 23.7812 24.1891 23.7665 24.2168C23.7534 24.2414 23.7398 24.2654 23.7263 24.2897C23.7122 24.3145 23.6981 24.3394 23.6835 24.3639C23.6683 24.3896 23.6529 24.415 23.6373 24.4403C23.624 24.4615 23.6104 24.4824 23.5969 24.5032C23.5788 24.5309 23.5608 24.5585 23.5422 24.5856C23.5328 24.5992 23.5231 24.6123 23.5137 24.6257C22.9291 25.4508 22.0314 26.025 21.021 26.1954L21.018 26.196ZM30.6259 26.196C30.5863 26.2026 30.5465 26.2081 30.5067 26.2135C30.4854 26.2164 30.4643 26.2192 30.443 26.2216C30.4115 26.2254 30.3799 26.2286 30.3481 26.2316C30.3152 26.2345 30.2821 26.2371 30.2488 26.2391C30.2251 26.2407 30.2014 26.2425 30.1775 26.2437C30.1186 26.2463 30.0595 26.2482 30 26.2482C29.9405 26.2482 29.8813 26.2463 29.8225 26.2437C29.7986 26.2425 29.775 26.2408 29.7513 26.2391C29.7179 26.2371 29.6848 26.2345 29.6518 26.2316C29.6201 26.2286 29.5885 26.2254 29.5571 26.2217C29.5357 26.2192 29.5144 26.2164 29.4931 26.2134C29.4534 26.2081 29.4137 26.2026 29.3742 26.196L29.3706 26.1953C28.3633 26.0252 27.4681 25.4539 26.8834 24.6327C26.8719 24.6163 26.86 24.6001 26.8485 24.5835C26.8314 24.5585 26.8147 24.5329 26.7979 24.5073C26.7828 24.4842 26.7677 24.461 26.7531 24.4373C26.7386 24.414 26.7243 24.3906 26.7103 24.367C26.6943 24.3399 26.6787 24.3127 26.6634 24.2853C26.6512 24.2634 26.6387 24.2414 26.6269 24.2193C26.6102 24.1879 26.5943 24.1562 26.5784 24.1244C26.5686 24.1049 26.5584 24.0856 26.5491 24.0659C26.5256 24.0165 26.5029 23.9667 26.4813 23.9162C26.4714 23.8925 26.4622 23.8683 26.4525 23.8444C26.4411 23.8159 26.4296 23.7874 26.4187 23.7585C26.4075 23.7284 26.397 23.6978 26.3865 23.6673C26.3787 23.645 26.371 23.6228 26.3637 23.6002C26.3526 23.5659 26.3421 23.5314 26.332 23.4966C26.2315 23.1541 26.1765 22.7923 26.1765 22.4178V19.9753H33.8235V22.4178C33.8235 22.7909 33.7689 23.1513 33.6693 23.4925C33.6584 23.5297 33.6471 23.5666 33.6351 23.6034C33.6289 23.6227 33.6223 23.6419 33.6157 23.661C33.6042 23.6945 33.5926 23.728 33.5804 23.761C33.5716 23.7845 33.562 23.8076 33.5527 23.8309C33.5378 23.8685 33.5225 23.906 33.5065 23.943C33.4888 23.9837 33.4708 24.024 33.4519 24.064C33.4408 24.0872 33.4289 24.11 33.4173 24.1328C33.4032 24.1609 33.389 24.1891 33.3743 24.2168C33.3613 24.2414 33.3476 24.2654 33.3341 24.2897C33.32 24.3145 33.306 24.3394 33.2914 24.3639C33.2762 24.3896 33.2608 24.415 33.2451 24.4403C33.2319 24.4615 33.2182 24.4824 33.2047 24.5032C33.1867 24.5309 33.1686 24.5585 33.15 24.5856C33.1407 24.5992 33.131 24.6123 33.1216 24.6257C32.537 25.4508 31.6392 26.025 30.6288 26.1954L30.6259 26.196ZM40.2337 26.196C40.1941 26.2026 40.1543 26.2081 40.1145 26.2135C40.0932 26.2164 40.0722 26.2192 40.0509 26.2216C40.0193 26.2254 39.9877 26.2286 39.956 26.2316C39.923 26.2345 39.8899 26.2371 39.8567 26.2391C39.8329 26.2407 39.8092 26.2425 39.7854 26.2437C39.7265 26.2463 39.6674 26.2482 39.6078 26.2482C39.5483 26.2482 39.4891 26.2463 39.4303 26.2437C39.4065 26.2425 39.3828 26.2408 39.3591 26.2391C39.3258 26.2371 39.2926 26.2345 39.2596 26.2316C39.2279 26.2286 39.1964 26.2254 39.1649 26.2217C39.1435 26.2192 39.1223 26.2164 39.101 26.2134C39.0613 26.2081 39.0216 26.2026 38.9821 26.196L38.9784 26.1953C37.9712 26.0252 37.076 25.4539 36.4913 24.6327C36.4797 24.6163 36.4678 24.6001 36.4564 24.5835C36.4392 24.5585 36.4226 24.5329 36.4058 24.5073C36.3907 24.4842 36.3756 24.461 36.361 24.4373C36.3465 24.414 36.3322 24.3906 36.3181 24.367C36.3022 24.3399 36.2866 24.3127 36.2713 24.2853C36.259 24.2634 36.2466 24.2414 36.2347 24.2193C36.218 24.1879 36.2022 24.1562 36.1863 24.1244C36.1765 24.1049 36.1663 24.0856 36.157 24.0659C36.1334 24.0165 36.1108 23.9667 36.0891 23.9162C36.0792 23.8925 36.07 23.8683 36.0604 23.8444C36.0489 23.8159 36.0375 23.7874 36.0266 23.7585C36.0153 23.7284 36.0048 23.6978 35.9943 23.6673C35.9866 23.645 35.9788 23.6228 35.9716 23.6002C35.9605 23.5659 35.9499 23.5314 35.9398 23.4966C35.8393 23.1541 35.7843 22.7923 35.7843 22.4178V19.9753H43.4314V22.4178C43.4314 22.7909 43.3768 23.1513 43.2772 23.4925C43.2663 23.5297 43.2549 23.5666 43.2429 23.6034C43.2368 23.6227 43.2301 23.6419 43.2235 23.661C43.2121 23.6945 43.2005 23.728 43.1882 23.761C43.1794 23.7845 43.1698 23.8076 43.1606 23.8309C43.1457 23.8685 43.1304 23.906 43.1143 23.943C43.0967 23.9837 43.0786 24.024 43.0597 24.064C43.0486 24.0872 43.0368 24.11 43.0251 24.1328C43.0111 24.1609 42.9969 24.1891 42.9822 24.2168C42.9691 24.2414 42.9555 24.2654 42.942 24.2897C42.9278 24.3145 42.9138 24.3394 42.8992 24.3639C42.884 24.3896 42.8686 24.415 42.8529 24.4403C42.8397 24.4615 42.8261 24.4824 42.8125 24.5032C42.7945 24.5309 42.7765 24.5585 42.7578 24.5856C42.7485 24.5992 42.7388 24.6123 42.7294 24.6257C42.1448 25.4508 41.2471 26.025 40.2367 26.1954L40.2337 26.196ZM54.9996 18.9847C54.9992 18.9477 54.9966 18.9113 54.9924 18.8753C54.991 18.8647 54.9891 18.8544 54.9875 18.8439C54.9829 18.8142 54.9773 18.785 54.97 18.7562C54.9676 18.7463 54.9653 18.7366 54.9625 18.7268C54.9524 18.6905 54.9406 18.6548 54.9264 18.6203L54.9249 18.6162C54.9094 18.579 54.8915 18.5434 54.8717 18.5086C54.8702 18.5058 54.869 18.5028 54.8674 18.4999L50.1926 10.4365C50.1941 10.4139 50.1961 10.3916 50.1961 10.3686V6.48214C50.1961 5.9398 49.7571 5.5 49.2157 5.5H10.8824C10.341 5.5 9.90196 5.9398 9.90196 6.48214V10.1085L5.12843 18.5072C5.12725 18.5092 5.12647 18.5115 5.12529 18.5135C5.10598 18.5481 5.08863 18.5838 5.07343 18.6208C5.07147 18.6258 5.0699 18.6308 5.06794 18.6358C5.05569 18.6672 5.0452 18.6992 5.03618 18.732C5.03343 18.7419 5.03088 18.7518 5.02853 18.7617C5.02147 18.7912 5.01569 18.821 5.01137 18.8514C5.01 18.8607 5.00824 18.8699 5.00706 18.8794C5.00275 18.9168 5 18.9546 5 18.9932V22.4178C5 24.3789 5.97833 26.1142 7.47078 27.1631V47.4267C7.47078 47.9691 7.9098 48.4089 8.45118 48.4089H14.5816H24.1894H51.58C52.1215 48.4089 52.5604 47.9691 52.5604 47.4267V27.1409C54.0352 26.0898 55 24.365 55 22.4178V18.9932C55 18.9907 54.9996 18.9872 54.9996 18.9847ZM30.9804 40.8049H45.0397V32.5815H30.9804V40.8049ZM46.0201 30.6173H30C29.4586 30.6173 29.0196 31.057 29.0196 31.5995V41.787C29.0196 42.3295 29.4586 42.7692 30 42.7692H46.0201C46.5616 42.7692 47.0005 42.3295 47.0005 41.787V31.5995C47.0005 31.057 46.5616 30.6173 46.0201 30.6173Z" fill="#167C80"/>
</svg>
