<svg width="77" height="53" viewBox="0 0 77 53" fill="none" xmlns="http://www.w3.org/2000/svg">
<path fill-rule="evenodd" clip-rule="evenodd" d="M15 41.375H62V43.625H15V41.375Z" fill="#167C80"/>
<path fill-rule="evenodd" clip-rule="evenodd" d="M14.375 50.375V18H16.625V50.375H60.875V18H63.125V50.375H75.5C76.1213 50.375 76.625 50.8787 76.625 51.5C76.625 52.1213 76.1213 52.625 75.5 52.625H2C1.37868 52.625 0.875 52.1213 0.875 51.5C0.875 50.8787 1.37868 50.375 2 50.375H14.375Z" fill="#167C80"/>
<mask id="path-3-inside-1" fill="white">
<rect x="44" y="45.5" width="12" height="7" rx="1"/>
</mask>
<rect x="44" y="45.5" width="12" height="7" rx="1" fill="#167C80" stroke="#167C80" stroke-width="4" stroke-linejoin="round" mask="url(#path-3-inside-1)"/>
<path d="M19.7999 5.6H28.8999C29.4999 5.6 29.8999 5.1 29.8999 4.6V1.5C29.8999 0.9 29.3999 0.5 28.8999 0.5H19.7999C19.1999 0.5 18.7999 1 18.7999 1.5V4.5C18.7999 5.1 19.1999 5.6 19.7999 5.6ZM20.7999 2.5H27.8999V3.5H20.7999V2.5Z" fill="#167C80"/>
<path d="M62.3999 42.1V19.5L67.5999 22.1C67.7999 22.2 67.8999 22.2 68.0999 22.2C68.4999 22.2 68.7999 22 68.9999 21.7C69.2999 21.2 69.0999 20.6 68.5999 20.3L39.5999 4.1C39.2999 3.9 38.8999 3.9 38.5999 4.1L27.8999 10.1V7.6C27.8999 7 27.3999 6.6 26.8999 6.6H21.7999C21.1999 6.6 20.7999 7.1 20.7999 7.6V14.1L9.49994 20.4C8.99994 20.7 8.79994 21.3 9.09994 21.8C9.39994 22.3 9.99994 22.5 10.4999 22.2L14.6999 19.9V42.1H62.3999ZM22.7999 8.6H25.7999V11.3L22.7999 13V8.6ZM35.9999 42.1H23.7999V32.2C23.7999 28.8 26.4999 26.1 29.8999 26.1C33.2999 26.1 35.9999 28.8 35.9999 32.2V42.1ZM37.9999 42.1V32.2C37.9999 27.7 34.3999 24.1 29.8999 24.1C25.3999 24.1 21.7999 27.7 21.7999 32.2V42.1H16.6999V18.7L18.7999 17.7L27.2999 12.8L38.9999 6.3L61.2999 18.7V42.1" fill="#167C80"/>
<path fill-rule="evenodd" clip-rule="evenodd" d="M41 24.5C41 23.9477 41.4477 23.5 42 23.5H58.5C59.0523 23.5 59.5 23.9477 59.5 24.5C59.5 25.0523 59.0523 25.5 58.5 25.5H42C41.4477 25.5 41 25.0523 41 24.5Z" fill="#167C80"/>
<path fill-rule="evenodd" clip-rule="evenodd" d="M41 28.5C41 27.9477 41.4477 27.5 42 27.5H58.5C59.0523 27.5 59.5 27.9477 59.5 28.5C59.5 29.0523 59.0523 29.5 58.5 29.5H42C41.4477 29.5 41 29.0523 41 28.5Z" fill="#167C80"/>
</svg>
