<svg width="60" height="62" viewBox="0 0 60 62" fill="none" xmlns="http://www.w3.org/2000/svg">
<path fill-rule="evenodd" clip-rule="evenodd" d="M4.01648 10.8234C4.28481 10.7134 4.57215 10.6573 4.86215 10.6582H55.1428C55.7262 10.6603 56.2851 10.893 56.6976 11.3055C57.1101 11.718 57.3428 12.2782 57.3449 12.8616V18.1649H2.6449V12.8603C2.64594 12.5701 2.70413 12.2829 2.81615 12.0152C2.92817 11.7474 3.09184 11.5044 3.29779 11.2999C3.50374 11.0954 3.74796 10.9335 4.01648 10.8234ZM4.86156 51.2249L55.1403 51.2249C55.4301 51.2258 55.7185 51.1696 55.9866 51.0597C56.2552 50.9496 56.4994 50.7877 56.7053 50.5832C56.9113 50.3787 57.075 50.1357 57.187 49.8679C57.299 49.6002 57.3572 49.3118 57.3582 49.0216V26.5916H2.65823L2.65823 49.0228C2.66032 49.6062 2.89299 50.1651 3.30551 50.5776C3.71803 50.9901 4.27818 51.2228 4.86156 51.2249ZM40.4049 32.5916V41.6249H49.4382V32.5916H40.4049ZM4.86156 8.35156H55.1416C55.7338 8.35156 56.3203 8.46822 56.8675 8.69487C57.4146 8.92151 57.9118 9.25372 58.3306 9.67251C58.7494 10.0913 59.0816 10.5885 59.3083 11.1357C59.5349 11.6828 59.6516 12.2693 59.6516 12.8616V49.0216C59.6516 49.6138 59.5349 50.2003 59.3083 50.7475C59.0816 51.2946 58.7494 51.7918 58.3306 52.2106C57.9118 52.6294 57.4146 52.9616 56.8675 53.1883C56.3203 53.4149 55.7338 53.5316 55.1416 53.5316H4.86156C4.2693 53.5316 3.68284 53.4149 3.13566 53.1883C2.58848 52.9616 2.0913 52.6294 1.67251 52.2106C1.25372 51.7918 0.921515 51.2946 0.694866 50.7475C0.468217 50.2003 0.351562 49.6138 0.351562 49.0216V12.8616C0.351562 11.6654 0.826722 10.5183 1.67251 9.67251C2.5183 8.82672 3.66544 8.35156 4.86156 8.35156ZM30.6682 34.0116H8.58823C8.32743 34.0116 8.07732 33.908 7.89291 33.7236C7.7085 33.5391 7.6049 33.289 7.6049 33.0282C7.6049 32.7674 7.7085 32.5173 7.89291 32.3329C8.07732 32.1485 8.32743 32.0449 8.58823 32.0449H30.6682C30.929 32.0449 31.1791 32.1485 31.3636 32.3329C31.548 32.5173 31.6516 32.7674 31.6516 33.0282C31.6516 33.289 31.548 33.5391 31.3636 33.7236C31.1791 33.908 30.929 34.0116 30.6682 34.0116ZM19.6282 40.0116H8.58823C8.32743 40.0116 8.07732 39.908 7.89291 39.7236C7.7085 39.5391 7.6049 39.289 7.6049 39.0282C7.6049 38.7674 7.7085 38.5173 7.89291 38.3329C8.07732 38.1485 8.32743 38.0449 8.58823 38.0449H19.6282C19.889 38.0449 20.1391 38.1485 20.3236 38.3329C20.508 38.5173 20.6116 38.7674 20.6116 39.0282C20.6116 39.289 20.508 39.5391 20.3236 39.7236C20.1391 39.908 19.889 40.0116 19.6282 40.0116ZM48.7549 43.5916H41.0882C39.6247 43.5916 38.4382 42.4051 38.4382 40.9416V33.2749C38.4382 31.8113 39.6247 30.6249 41.0882 30.6249H48.7549C50.2184 30.6249 51.4049 31.8113 51.4049 33.2749V40.9416C51.4049 42.4051 50.2184 43.5916 48.7549 43.5916Z" fill="#167C80"/>
</svg>
