<svg width="51" height="47" viewBox="0 0 51 47" fill="none" xmlns="http://www.w3.org/2000/svg">
<path d="M49.7612 12.4217C50.6316 10.7944 51.4908 8.94333 50.6627 7.56034C50.096 6.61496 48.9042 6.15486 47.0167 6.15486C46.7816 6.15486 46.532 6.16236 46.2706 6.17682C45.7012 5.09807 43.9749 3.01449 39.0605 2.64491L39 2.64062L38.9405 2.64545C38.8232 2.65455 36.2988 2.90683 34.2511 6.95401C34.0578 7.20629 33.8403 7.60319 33.7407 8.07454C33.7128 8.1415 33.685 8.20523 33.6582 8.27379C31.9185 12.644 29.5494 15.0125 22.0239 15.0125C21.7341 15.0125 21.4385 15.0093 21.1337 15.0023C19.9612 14.9755 18.6318 14.9455 17.4588 14.9455C13.8695 14.9455 10.7827 15.1528 8.74682 16.9349C8.43722 16.8417 4.3579 15.5294 4.4661 11.5122C4.52341 9.39218 5.8523 8.42966 7.07727 8.23577C8.18173 8.06222 9.50848 8.47573 9.90912 9.6059C10.5433 11.3943 11.7811 11.7575 12.6472 11.5256C13.7431 11.2315 14.4287 10.0687 14.2086 8.87744C13.9783 7.63319 12.7849 5.84473 10.9509 4.83455C9.68202 4.13555 7.60004 3.52869 4.89192 4.61226C2.81369 5.44355 1.32144 6.83885 0.57746 8.64713C-0.216873 10.577 -0.140814 12.9964 0.77939 15.1185C1.43339 16.6269 3.80407 19.628 6.65038 20.5707C6.53468 21.0067 6.43613 21.4721 6.36114 21.9778C6.00174 24.3988 6.02959 26.2478 6.05155 27.7331C6.08958 30.2998 6.10886 31.5912 4.2165 33.2291L4.01671 33.408L3.96261 33.678C3.83513 34.2891 2.76763 39.7412 4.58179 41.9196L4.81586 42.2469H11.0671L11.1577 41.5227C11.1861 41.3095 11.4094 39.3583 10.4887 38.3074C10.0634 37.8216 9.46884 37.5854 8.76824 37.6336C8.74628 37.1504 8.96589 36.3143 10.2808 35.2811C12.6767 33.3984 15.1459 31.4589 15.9258 28.2821C17.8824 28.943 22.7679 30.4224 27.3491 30.4224C28.6881 30.4224 29.9045 30.296 30.9806 30.0395L30.8697 36.3786C30.8601 36.8232 30.8264 40.7862 32.5189 42.5152C33.0492 43.0562 33.7155 43.3615 34.4461 43.3615H39.8034L39.9266 42.7124C39.9706 42.4917 40.3209 40.497 39.2769 39.227C38.9111 38.783 38.2223 38.2543 37.0134 38.2543C36.7354 38.2543 36.4386 38.2833 36.1242 38.3379C36.4306 35.4509 37.3733 30.1332 39.3921 28.1562C39.557 28.0078 43.2614 24.5343 42.5212 16.0318L42.5185 15.734C44.36 15.5165 48.5031 14.7736 49.7612 12.4217ZM38.6192 4.34766C39.6958 6.39429 40.7954 9.36433 40.1419 10.2674C39.8688 10.6455 39.1173 10.5839 38.5361 10.4656C35.9373 9.93691 35.3985 9.15597 35.287 8.84531C35.2463 8.73229 35.2383 8.61874 35.2479 8.51108C36.4724 5.62888 37.9079 4.66315 38.6192 4.34766ZM33.0406 12.6311C34.121 13.7875 36.5313 15.7667 40.9652 16.6922L40.9754 18.035C39.4397 17.7892 35.911 16.8733 32.2618 13.5015C32.5398 13.2278 32.7985 12.938 33.0406 12.6311ZM2.21165 14.4967C1.45535 12.7532 1.38411 10.788 2.02097 9.2406C2.60962 7.81155 3.77032 6.74137 5.472 6.06059C7.19082 5.37285 8.7811 5.41998 10.1984 6.20093C11.6788 7.01668 12.5374 8.42323 12.674 9.16133C12.7592 9.62143 12.4791 9.95459 12.2439 10.0178C11.9488 10.096 11.6097 9.73016 11.3805 9.08366C10.7758 7.37769 8.86358 6.37286 6.8341 6.69424C5.07403 6.97276 2.98992 8.39056 2.90689 11.4699C2.80405 15.2873 5.66268 17.4078 7.65628 18.207C7.47953 18.4801 7.31884 18.7779 7.17154 19.0993C4.76391 18.3296 2.68247 15.5824 2.21165 14.4967ZM38.3224 27.0212C35.0894 30.1852 34.4959 38.9501 34.4724 39.3218L34.3984 40.4815L35.4986 40.1183C36.7611 39.6968 37.6529 39.73 38.0691 40.234C38.3937 40.6266 38.4654 41.3529 38.4547 41.7991H34.4456C34.1317 41.7991 33.8741 41.6673 33.6336 41.4226C32.5854 40.3529 32.4091 37.43 32.4295 36.3984L32.5789 27.8836L31.5211 28.2537C30.3738 28.6554 28.9693 28.8589 27.348 28.8589C21.8632 28.8589 15.6644 26.5343 15.6028 26.5113L14.6789 26.161L14.5525 27.1412C14.1497 30.2553 11.9097 32.017 9.31672 34.054C6.04887 36.6218 7.5288 38.8762 7.59308 38.9705L7.91874 39.4509L8.47043 39.2833C8.65094 39.2276 8.81055 39.2094 8.94393 39.2094C9.1555 39.2094 9.24655 39.3026 9.31351 39.3781C9.53258 39.6277 9.62417 40.0128 9.63917 40.6834H5.59198C4.848 39.121 5.07457 36.1852 5.43987 34.2671C7.67771 32.2243 7.64932 30.2896 7.61075 27.7063C7.58933 26.2772 7.56308 24.499 7.90374 22.2049C8.6338 17.2969 11.3184 16.5047 17.4588 16.5047C18.5311 16.5047 19.6436 16.5283 21.0978 16.5615C25.86 16.6708 28.9185 15.9423 31.0428 14.4999C35.2742 18.4898 39.3653 19.4094 41.0054 19.621C40.6353 24.7952 38.3658 26.981 38.3224 27.0212ZM41.5812 14.2557L40.7547 14.3114L40.8501 15.0671C36.6936 14.0944 34.6438 12.1158 33.9442 11.2936C34.1199 10.9905 34.2886 10.675 34.4483 10.3477C35.1783 11.0853 36.4253 11.629 38.2249 11.9948C38.6208 12.0751 38.9877 12.1158 39.3235 12.1158C40.2593 12.1158 40.9577 11.8036 41.4071 11.1817C42.5844 9.5534 41.316 6.29412 40.3846 4.37498C44.3911 5.0654 44.9872 7.08739 45.0097 7.17041L45.1624 7.83137L45.8389 7.77191C47.7435 7.6048 49.0028 7.82548 49.3247 8.36217C49.7677 9.10187 48.7998 10.9123 48.3858 11.6852C47.4216 13.486 43.1468 14.1517 41.5812 14.2557Z" fill="#167C80"/>
<path d="M43.1768 8.61282C43.617 8.61282 43.9738 8.25598 43.9738 7.81581C43.9738 7.37563 43.617 7.0188 43.1768 7.0188C42.7366 7.0188 42.3798 7.37563 42.3798 7.81581C42.3798 8.25598 42.7366 8.61282 43.1768 8.61282Z" fill="#167C80"/>
</svg>
