<svg width="70" height="51" viewBox="0 0 70 51" fill="none" xmlns="http://www.w3.org/2000/svg">
<path fill-rule="evenodd" clip-rule="evenodd" d="M33.3869 29.1333L32.5755 34.7595C32.4016 35.9652 33.3368 37.045 34.555 37.045H40.291L31.9537 50.313C31.6598 50.7806 31.8007 51.3979 32.2683 51.6917C32.736 51.9856 33.3533 51.8447 33.6471 51.3771L41.9844 38.1091C42.8214 36.7772 41.864 35.045 40.291 35.045L34.555 35.045L35.6283 27.6033C35.8464 26.0912 33.9283 25.259 32.9731 26.4513L22.1222 39.9945C21.0732 41.3038 22.0053 43.245 23.683 43.245H28.3834L23.4803 50.2729C23.1643 50.7258 23.2753 51.3492 23.7282 51.6652C24.1812 51.9812 24.8045 51.8702 25.1205 51.4172L30.0237 44.3894C30.9487 43.0636 30 41.245 28.3834 41.245H23.683L33.3869 29.1333Z" fill="#167C80"/>
<path fill-rule="evenodd" clip-rule="evenodd" d="M33.6508 0.523942C34.4148 -0.174649 35.5858 -0.174646 36.3498 0.523943L48.7246 11.838C49.7349 12.7617 49.0814 14.445 47.7124 14.445L45.9003 14.445V26.645C45.9003 27.1973 45.4526 27.645 44.9003 27.645C44.348 27.645 43.9003 27.1973 43.9003 26.645V14.445C43.9003 13.3405 44.7957 12.445 45.9003 12.445H46.4246L35.0003 2L23.576 12.445H24.1003C25.2049 12.445 26.1003 13.3405 26.1003 14.445V26.645C26.1003 27.1973 25.6526 27.645 25.1003 27.645C24.548 27.645 24.1003 27.1973 24.1003 26.645L24.1003 14.445H22.2882C20.9192 14.445 20.2657 12.7617 21.276 11.838L33.6508 0.523942Z" fill="#167C80"/>
<path fill-rule="evenodd" clip-rule="evenodd" d="M6 26.6451C6 26.0928 6.44772 25.6451 7 25.6451H63C63.5523 25.6451 64 26.0928 64 26.6451C64 27.1974 63.5523 27.6451 63 27.6451H7C6.44772 27.6451 6 27.1974 6 26.6451Z" fill="#167C80"/>
<path fill-rule="evenodd" clip-rule="evenodd" d="M35.9308 8.86902C36.3594 9.21729 36.4246 9.84709 36.0763 10.2757L34.0862 12.7251L37.1473 15.387C38.0222 16.1477 38.0689 17.4906 37.2491 18.3104L34.5495 21.01L35.1935 26.5293C35.2575 27.0778 34.8646 27.5744 34.3161 27.6384C33.7675 27.7024 33.2709 27.3096 33.2069 26.761L32.563 21.2418C32.4922 20.6345 32.703 20.0281 33.1353 19.5958L35.8349 16.8962L32.7738 14.2343C31.9599 13.5266 31.8538 12.301 32.5339 11.4639L34.5241 9.01454C34.8723 8.58591 35.5021 8.52075 35.9308 8.86902Z" fill="#167C80"/>
<path fill-rule="evenodd" clip-rule="evenodd" d="M15.0476 1.20833C15.5097 1.5108 15.6391 2.1306 15.3366 2.5927L12.0537 7.6082L10.3803 6.51288L13.6632 1.49738C13.9657 1.03528 14.5855 0.905871 15.0476 1.20833ZM10.3803 6.51288C9.98801 7.11226 9.94621 7.87568 10.2708 8.5143L12.8389 13.5677L10.0764 17.5777C9.76308 18.0325 9.87779 18.6552 10.3326 18.9685C10.7874 19.2819 11.4101 19.1672 11.7234 18.7123L14.4859 14.7023C14.9019 14.0984 14.9541 13.3153 14.6218 12.6616L12.0537 7.6082L10.3803 6.51288Z" fill="#167C80"/>
<path fill-rule="evenodd" clip-rule="evenodd" d="M54.9522 1.20833C55.4143 0.905871 56.0341 1.03528 56.3366 1.49738L59.6195 6.51288C60.0118 7.11226 60.0536 7.87568 59.729 8.5143L57.1609 13.5677L59.9234 17.5777C60.2367 18.0325 60.122 18.6552 59.6672 18.9685C59.2124 19.2819 58.5897 19.1672 58.2764 18.7123L55.5139 14.7023C55.0979 14.0984 55.0457 13.3153 55.378 12.6616L57.9461 7.6082L54.6632 2.59269C54.3607 2.1306 54.4901 1.5108 54.9522 1.20833Z" fill="#167C80"/>
</svg>
