<svg width="16" height="16" viewBox="0 0 16 16" fill="none" xmlns="http://www.w3.org/2000/svg">
<path d="M3.61838 9.43297L2.87335 12.7651C2.85198 12.8647 2.88251 12.9703 2.95579 13.0458C3.01381 13.1032 3.09014 13.1333 3.16953 13.1333C3.19091 13.1333 3.21533 13.1303 3.23671 13.1243L6.55883 12.3697C6.61684 12.3576 6.66875 12.3275 6.70844 12.2882L14.4733 4.51323C15.1756 3.813 15.1756 2.66909 14.4733 1.96886L14.0458 1.54027C13.6977 1.19317 13.2367 1 12.742 1C12.2473 1 11.7863 1.19015 11.4382 1.53725L3.70083 9.28508C3.66113 9.32733 3.6306 9.37562 3.61838 9.43297ZM3.57258 12.4301L4.02754 10.3988C4.42449 11.0357 4.96494 11.5729 5.60311 11.9683L3.57258 12.4301ZM6.42142 11.7178C5.46876 11.2862 4.69929 10.5165 4.27792 9.56879L10.3848 3.45685L12.5313 5.60584L6.42142 11.7178ZM11.8748 1.96282C12.1069 1.73041 12.4153 1.60365 12.7451 1.60365C13.0748 1.60365 13.3832 1.73041 13.6153 1.96282L14.0428 2.39141C14.5099 2.85924 14.5099 3.61983 14.0428 4.08766L12.9588 5.17121L10.8122 3.02222L11.8748 1.96282Z" fill="#167C80"/>
<path fill-rule="evenodd" clip-rule="evenodd" d="M1.83156 1.83156C1.78101 1.88212 1.73684 1.96793 1.73684 2.10526V13.8947C1.73684 14.0321 1.78101 14.1179 1.83156 14.1684C1.88212 14.219 1.96793 14.2632 2.10526 14.2632H13.8947C14.0321 14.2632 14.1179 14.219 14.1684 14.1684C14.219 14.1179 14.2632 14.0321 14.2632 13.8947V6.52632C14.2632 6.32284 14.4281 6.1579 14.6316 6.1579C14.835 6.1579 15 6.32284 15 6.52632V13.8947C15 14.1995 14.8968 14.4821 14.6895 14.6895C14.4821 14.8968 14.1995 15 13.8947 15H2.10526C1.80049 15 1.51788 14.8968 1.31054 14.6895C1.1032 14.4821 1 14.1995 1 13.8947V2.10526C1 1.80049 1.1032 1.51788 1.31054 1.31054C1.51788 1.1032 1.80049 1 2.10526 1H9.47369C9.67713 1 9.84211 1.16495 9.84211 1.36842C9.84211 1.57189 9.67713 1.73684 9.47369 1.73684H2.10526C1.96793 1.73684 1.88212 1.78101 1.83156 1.83156Z" fill="#167C80"/>
<path d="M3.61838 9.43297L2.87335 12.7651C2.85198 12.8647 2.88251 12.9703 2.95579 13.0458C3.01381 13.1032 3.09014 13.1333 3.16953 13.1333C3.19091 13.1333 3.21533 13.1303 3.23671 13.1243L6.55883 12.3697C6.61684 12.3576 6.66875 12.3275 6.70844 12.2882L14.4733 4.51323C15.1756 3.813 15.1756 2.66909 14.4733 1.96886L14.0458 1.54027C13.6977 1.19317 13.2367 1 12.742 1C12.2473 1 11.7863 1.19015 11.4382 1.53725L3.70083 9.28508C3.66113 9.32733 3.6306 9.37562 3.61838 9.43297ZM3.57258 12.4301L4.02754 10.3988C4.42449 11.0357 4.96494 11.5729 5.60311 11.9683L3.57258 12.4301ZM6.42142 11.7178C5.46876 11.2862 4.69929 10.5165 4.27792 9.56879L10.3848 3.45685L12.5313 5.60584L6.42142 11.7178ZM11.8748 1.96282C12.1069 1.73041 12.4153 1.60365 12.7451 1.60365C13.0748 1.60365 13.3832 1.73041 13.6153 1.96282L14.0428 2.39141C14.5099 2.85924 14.5099 3.61983 14.0428 4.08766L12.9588 5.17121L10.8122 3.02222L11.8748 1.96282Z" stroke="#167C80" stroke-width="0.233333"/>
<path fill-rule="evenodd" clip-rule="evenodd" d="M1.83156 1.83156C1.78101 1.88212 1.73684 1.96793 1.73684 2.10526V13.8947C1.73684 14.0321 1.78101 14.1179 1.83156 14.1684C1.88212 14.219 1.96793 14.2632 2.10526 14.2632H13.8947C14.0321 14.2632 14.1179 14.219 14.1684 14.1684C14.219 14.1179 14.2632 14.0321 14.2632 13.8947V6.52632C14.2632 6.32284 14.4281 6.1579 14.6316 6.1579C14.835 6.1579 15 6.32284 15 6.52632V13.8947C15 14.1995 14.8968 14.4821 14.6895 14.6895C14.4821 14.8968 14.1995 15 13.8947 15H2.10526C1.80049 15 1.51788 14.8968 1.31054 14.6895C1.1032 14.4821 1 14.1995 1 13.8947V2.10526C1 1.80049 1.1032 1.51788 1.31054 1.31054C1.51788 1.1032 1.80049 1 2.10526 1H9.47369C9.67713 1 9.84211 1.16495 9.84211 1.36842C9.84211 1.57189 9.67713 1.73684 9.47369 1.73684H2.10526C1.96793 1.73684 1.88212 1.78101 1.83156 1.83156Z" stroke="#167C80" stroke-width="0.233333"/>
</svg>
