<svg width="76" height="65" viewBox="0 0 76 65" fill="none" xmlns="http://www.w3.org/2000/svg">
<path fill-rule="evenodd" clip-rule="evenodd" d="M67.125 42.5C67.125 43.1213 66.6213 43.625 66 43.625H10C9.37868 43.625 8.875 43.1213 8.875 42.5C8.875 41.8787 9.37868 41.375 10 41.375H66C66.6213 41.375 67.125 41.8787 67.125 42.5Z" fill="#167C80"/>
<path fill-rule="evenodd" clip-rule="evenodd" d="M14.2046 47.7045L20.2046 41.7045L21.7956 43.2955L15.7956 49.2955L14.2046 47.7045ZM27.8751 48.966L22.2046 43.2955L23.7956 41.7045L27.8751 45.784V42.5H30.1251V45.784L34.2046 41.7045L35.7956 43.2955L30.1251 48.966L30.1251 62.5H27.8751L27.8751 48.966ZM45.8751 48.966L40.2046 43.2955L41.7956 41.7045L45.8751 45.784V42.5H48.1251V45.784L52.2046 41.7045L53.7956 43.2955L48.1251 48.966L48.1251 62.5H45.8751L45.8751 48.966ZM60.2046 49.2955L54.2046 43.2955L55.7956 41.7045L61.7956 47.7045L60.2046 49.2955Z" fill="#167C80"/>
<path fill-rule="evenodd" clip-rule="evenodd" d="M0 63.5C0 62.9477 0.447715 62.5 1 62.5H74.5C75.0523 62.5 75.5 62.9477 75.5 63.5C75.5 64.0523 75.0523 64.5 74.5 64.5H1C0.447715 64.5 0 64.0523 0 63.5Z" fill="#167C80"/>
<path fill-rule="evenodd" clip-rule="evenodd" d="M59.875 62.5L59.875 17.5L62.125 17.5L62.125 62.5H59.875Z" fill="#167C80"/>
<path fill-rule="evenodd" clip-rule="evenodd" d="M13.875 62.5L13.875 18.5L16.125 18.5L16.125 62.5H13.875Z" fill="#167C80"/>
<path d="M18.7999 5.6H27.8999C28.4999 5.6 28.8999 5.1 28.8999 4.6V1.5C28.8999 0.9 28.3999 0.5 27.8999 0.5H18.7999C18.1999 0.5 17.7999 1 17.7999 1.5V4.5C17.7999 5.1 18.1999 5.6 18.7999 5.6ZM19.7999 2.5H26.8999V3.5H19.7999V2.5Z" fill="#167C80"/>
<path d="M61.3999 42.1V19.5L66.5999 22.1C66.7999 22.2 66.8999 22.2 67.0999 22.2C67.4999 22.2 67.7999 22 67.9999 21.7C68.2999 21.2 68.0999 20.6 67.5999 20.3L38.5999 4.1C38.2999 3.9 37.8999 3.9 37.5999 4.1L26.8999 10.1V7.6C26.8999 7 26.3999 6.6 25.8999 6.6H20.7999C20.1999 6.6 19.7999 7.1 19.7999 7.6V14.1L8.49994 20.4C7.99994 20.7 7.79994 21.3 8.09994 21.8C8.39994 22.3 8.99994 22.5 9.49994 22.2L13.6999 19.9V42.1H61.3999ZM21.7999 8.6H24.7999V11.3L21.7999 13V8.6ZM34.9999 42.1H22.7999V32.2C22.7999 28.8 25.4999 26.1 28.8999 26.1C32.2999 26.1 34.9999 28.8 34.9999 32.2V42.1ZM36.9999 42.1V32.2C36.9999 27.7 33.3999 24.1 28.8999 24.1C24.3999 24.1 20.7999 27.7 20.7999 32.2V42.1H15.6999V18.7L17.7999 17.7L26.2999 12.8L37.9999 6.3L60.2999 18.7V42.1" fill="#167C80"/>
<path fill-rule="evenodd" clip-rule="evenodd" d="M40 24.5C40 23.9477 40.4477 23.5 41 23.5H57.5C58.0523 23.5 58.5 23.9477 58.5 24.5C58.5 25.0523 58.0523 25.5 57.5 25.5H41C40.4477 25.5 40 25.0523 40 24.5Z" fill="#167C80"/>
<path fill-rule="evenodd" clip-rule="evenodd" d="M40 28.5C40 27.9477 40.4477 27.5 41 27.5H57.5C58.0523 27.5 58.5 27.9477 58.5 28.5C58.5 29.0523 58.0523 29.5 57.5 29.5H41C40.4477 29.5 40 29.0523 40 28.5Z" fill="#167C80"/>
</svg>
