<svg width="86" height="86" viewBox="0 0 86 86" fill="none" xmlns="http://www.w3.org/2000/svg">
<path d="M31.5761 25H70.5149C71.7381 25 72.8594 25.5097 73.6749 26.3251C74.4903 27.1406 75 28.2619 75 29.4851V56.4637C75 57.6869 74.4903 58.8082 73.6749 59.6236C72.8594 60.4391 71.7381 60.9488 70.5149 60.9488H31.5761C30.3528 60.9488 29.1976 60.4391 28.3821 59.6236C27.5667 58.8082 27.091 57.6869 27.091 56.4637V29.4851C27.091 28.2619 27.5667 27.1406 28.3821 26.3251C29.1976 25.5097 30.3528 25 31.5761 25V25ZM21.0768 50.0758C21.9263 50.0758 22.5719 50.7214 22.5719 51.5708C22.5719 52.3863 21.9263 53.0659 21.0768 53.0659H19.0042C18.1547 53.0659 17.4752 52.3863 17.4752 51.5708C17.4752 50.7214 18.1547 50.0758 19.0042 50.0758H21.0768ZM21.0768 32.8829C21.9263 32.8829 22.5719 33.5625 22.5719 34.3779C22.5719 35.2274 21.9263 35.907 21.0768 35.907H11.495C10.6796 35.907 10 35.2274 10 34.3779C10 33.5625 10.6796 32.8829 11.495 32.8829H21.0768ZM21.0768 41.4794C21.9263 41.4794 22.5719 42.1589 22.5719 42.9744C22.5719 43.7899 21.9263 44.4694 21.0768 44.4694H15.2326C14.4171 44.4694 13.7376 43.7899 13.7376 42.9744C13.7376 42.1589 14.4171 41.4794 15.2326 41.4794H21.0768ZM30.081 31.7277L51.0455 44.3335L72.0099 31.7277V29.4851C72.0099 29.0774 71.84 28.7036 71.5682 28.4318C71.2964 28.16 70.9226 27.9901 70.5149 27.9901H31.5761C31.1683 27.9901 30.7946 28.16 30.5227 28.4318C30.2509 28.7036 30.081 29.0774 30.081 29.4851V31.7277ZM72.0099 35.2274L51.827 47.3236C51.3513 47.6294 50.7737 47.6294 50.264 47.3576L30.081 35.2274V56.4637C30.081 56.8714 30.2509 57.2452 30.5227 57.517C30.7946 57.7888 31.1683 57.9587 31.5761 57.9587H70.5149C70.9226 57.9587 71.2964 57.7888 71.5682 57.517C71.84 57.2452 72.0099 56.8714 72.0099 56.4637V35.2274Z" fill="white"/>
</svg>
