<svg width="56" height="63" viewBox="0 0 56 63" fill="none" xmlns="http://www.w3.org/2000/svg">
<path d="M14.2728 23.807C16.4841 23.807 18.2533 25.5008 18.2533 27.5612C18.2533 29.6217 16.4841 31.3155 14.2728 31.3155C12.0616 31.3155 10.2924 29.6217 10.2924 27.5612C10.2924 25.5008 12.0616 23.807 14.2728 23.807ZM16.5294 27.5612C16.5294 26.3631 15.5043 25.412 14.2728 25.412C13.0413 25.412 12.0162 26.3631 12.0162 27.5612C12.0162 28.7594 13.0413 29.7105 14.2728 29.7105C15.5043 29.7105 16.5294 28.7594 16.5294 27.5612Z" fill="#167C80" stroke="#167C80" stroke-width="0.498803"/>
<path d="M20.9124 45.5165L20.9121 45.5158C20.9029 45.4926 20.8966 45.4778 20.8921 45.4671C20.8856 45.4517 20.8826 45.4447 20.8794 45.4329C20.8793 45.4328 20.8793 45.4326 20.8792 45.4324L18.4929 36.4069C18.4929 36.4069 18.4929 36.4068 18.4928 36.4068C18.3755 35.9621 17.9608 35.6654 17.4995 35.6654H12.6033C11.2439 35.6654 10.0472 36.5269 9.68931 37.7851L9.68514 37.7998L9.68279 37.8149L7.77238 50.042L7.77237 50.042L7.68259 50.6161L7.68256 50.6163C7.62198 51.0057 7.26219 51.3032 6.83113 51.3032C6.78846 51.3032 6.74497 51.3002 6.70057 51.2942C6.21896 51.2266 5.91026 50.8101 5.9762 50.3852C5.9762 50.3852 5.97621 50.3851 5.97622 50.3851L8.00428 37.4403C8.5349 35.4575 10.4185 34.0599 12.6033 34.0599H17.4995C18.7729 34.0599 19.8637 34.8759 20.1669 36.0234L20.1669 36.0234L22.5537 45.0504C22.6635 45.4666 22.3992 45.908 21.929 46.0197C21.4905 46.1224 21.0603 45.8914 20.9124 45.5165Z" fill="#167C80" stroke="#167C80" stroke-width="0.498803"/>
<path d="M11.0697 49.7457C11.0697 49.5113 11.1808 49.2984 11.3641 49.1477L11.3642 49.1476C11.5154 49.0235 11.7075 48.946 11.9204 48.9433C11.9262 48.9438 11.9336 48.9442 11.9421 48.9442V48.6948L11.9398 48.9442C12.4255 48.9487 12.7936 49.3183 12.7936 49.7457V61.6362C12.7936 62.0665 12.4205 62.4387 11.9316 62.4387C11.4428 62.4387 11.0697 62.0665 11.0697 61.6362V49.7457Z" fill="#167C80" stroke="#167C80" stroke-width="0.498803"/>
<path d="M17.4762 61.6358C17.4762 62.066 17.1031 62.4383 16.6143 62.4383C16.1252 62.4383 15.7523 62.0663 15.7523 61.6362V49.7457C15.7523 49.3155 16.1254 48.9432 16.6143 48.9432C17.1031 48.9432 17.4762 49.3155 17.4762 49.7457V61.6358Z" fill="#167C80" stroke="#167C80" stroke-width="0.498803"/>
<path d="M38.0746 29.6653C38.0746 27.6048 39.8438 25.911 42.055 25.911C44.2663 25.911 46.0355 27.6048 46.0355 29.6653C46.0355 31.7257 44.2663 33.4195 42.055 33.4195C39.8438 33.4195 38.0746 31.7257 38.0746 29.6653ZM39.7985 29.6653C39.7985 30.8634 40.8236 31.8145 42.055 31.8145C43.2865 31.8145 44.3116 30.8634 44.3116 29.6653C44.3116 28.4671 43.2865 27.516 42.055 27.516C40.8236 27.516 39.7985 28.4671 39.7985 29.6653Z" fill="#167C80" stroke="#167C80" stroke-width="0.498803"/>
<path d="M35.7914 38.476L35.7916 38.476L35.7942 38.4665C36.309 36.5167 38.1949 35.1122 40.3854 35.1122H43.7249C45.9121 35.1122 47.7976 36.513 48.3257 38.4993L48.3423 38.5761L50.3505 50.3757L50.3506 50.3758C50.4228 50.7994 50.1192 51.2195 49.6389 51.2931C49.591 51.3002 49.5441 51.3035 49.4981 51.3035C49.0718 51.3035 48.7135 51.0119 48.6481 50.6268L48.648 50.6267L48.5473 50.0362L48.5473 50.0361L46.6473 38.8699L46.6451 38.8569L46.6416 38.8442C46.2859 37.5808 45.0875 36.7167 43.7254 36.7167H40.3859C39.0099 36.7167 37.8011 37.5996 37.459 38.8828L35.4416 45.4594C35.4412 45.4604 35.4401 45.4629 35.4379 45.4676L35.4343 45.4754L35.4296 45.4857C35.4261 45.4932 35.4217 45.503 35.4172 45.514L35.4172 45.514L35.4163 45.5165C35.2637 45.9035 34.8138 46.1338 34.3678 46.0118C33.9027 45.8834 33.6563 45.4341 33.7828 45.022L35.7914 38.476Z" fill="#167C80" stroke="#167C80" stroke-width="0.498803"/>
<mask id="path-7-inside-1" fill="white">
<path d="M44.386 48.6948C43.7775 48.7005 43.2852 49.1683 43.2852 49.7457V61.6362C43.2852 62.217 43.783 62.6881 44.3965 62.6881C45.01 62.6881 45.5078 62.217 45.5078 61.6362V49.7457C45.5078 49.4285 45.3567 49.1476 45.1222 48.9549C44.9272 48.7944 44.6753 48.6938 44.397 48.6938C44.3925 48.6938 44.3895 48.6948 44.386 48.6948Z"/>
</mask>
<path d="M44.386 48.6948C43.7775 48.7005 43.2852 49.1683 43.2852 49.7457V61.6362C43.2852 62.217 43.783 62.6881 44.3965 62.6881C45.01 62.6881 45.5078 62.217 45.5078 61.6362V49.7457C45.5078 49.4285 45.3567 49.1476 45.1222 48.9549C44.9272 48.7944 44.6753 48.6938 44.397 48.6938C44.3925 48.6938 44.3895 48.6948 44.386 48.6948Z" fill="#167C80"/>
<path d="M44.386 48.6948V48.196L44.3814 48.196L44.386 48.6948ZM45.1222 48.9549L44.8053 49.3401L44.8056 49.3403L45.1222 48.9549ZM44.397 48.6938V49.1927V48.6938ZM44.3814 48.196C43.5263 48.204 42.7864 48.8683 42.7864 49.7457H43.784C43.784 49.4683 44.0287 49.1969 44.3907 49.1936L44.3814 48.196ZM42.7864 49.7457V61.6362H43.784V49.7457H42.7864ZM42.7864 61.6362C42.7864 62.5179 43.5337 63.1869 44.3965 63.1869V62.1893C44.0323 62.1893 43.784 61.916 43.784 61.6362H42.7864ZM44.3965 63.1869C45.2593 63.1869 46.0066 62.5179 46.0066 61.6362H45.009C45.009 61.916 44.7607 62.1893 44.3965 62.1893V63.1869ZM46.0066 61.6362V49.7457H45.009V61.6362H46.0066ZM46.0066 49.7457C46.0066 49.2629 45.7754 48.846 45.4389 48.5695L44.8056 49.3403C44.938 49.4491 45.009 49.5941 45.009 49.7457H46.0066ZM45.4392 48.5698C45.1605 48.3404 44.798 48.195 44.397 48.195V49.1927C44.5526 49.1927 44.6939 49.2484 44.8053 49.3401L45.4392 48.5698ZM44.397 48.195C44.3592 48.195 44.3294 48.1993 44.3243 48.2C44.324 48.2001 44.3238 48.2001 44.3237 48.2001C44.3235 48.2001 44.3236 48.2001 44.3237 48.2001C44.3238 48.2001 44.3245 48.2 44.3254 48.1999C44.3273 48.1996 44.3313 48.1991 44.3364 48.1986C44.347 48.1975 44.3644 48.196 44.386 48.196V49.1936C44.4094 49.1936 44.4285 49.192 44.4407 49.1907C44.4467 49.1901 44.4516 49.1895 44.4542 49.1891C44.4556 49.1889 44.4567 49.1888 44.4573 49.1887C44.4576 49.1887 44.4578 49.1886 44.4579 49.1886C44.4581 49.1886 44.458 49.1886 44.4579 49.1886C44.4563 49.1888 44.4303 49.1927 44.397 49.1927V48.195Z" fill="#167C80" mask="url(#path-7-inside-1)"/>
<path d="M40.5758 49.7457V61.6362C40.5758 62.0663 40.2029 62.4384 39.7137 62.4387C39.2249 62.4386 38.8519 62.0664 38.8519 61.6362V49.7457C38.8519 49.3155 39.225 48.9432 39.7139 48.9432C40.2028 48.9432 40.5758 49.3155 40.5758 49.7457Z" fill="#167C80" stroke="#167C80" stroke-width="0.498803"/>
<path d="M28.0223 41.7855C30.1004 41.7855 31.7678 43.3825 31.7678 45.3169C31.7678 47.2514 30.1003 48.8488 28.0223 48.8488C25.9442 48.8488 24.2767 47.2514 24.2767 45.3169C24.2767 43.3825 25.9441 41.7855 28.0223 41.7855ZM30.0439 45.3174C30.0439 44.2424 29.124 43.391 28.0223 43.391C26.9205 43.391 26.0006 44.2419 26.0006 45.3174C26.0006 46.3928 26.9205 47.2443 28.0223 47.2443C29.1241 47.2443 30.0439 46.3928 30.0439 45.3174Z" fill="#167C80" stroke="#167C80" stroke-width="0.498803"/>
<path d="M33.8832 49.7794L33.8831 49.7796L32.5139 52.6279C32.09 53.5091 30.8082 54.1456 29.1602 54.1456H26.8847C25.2368 54.1456 23.955 53.5087 23.5316 52.6279L23.5316 52.6279L22.1618 49.7795L22.1618 49.7794C21.9729 49.3871 22.1501 48.9118 22.5868 48.724L22.5872 48.7238C23.0289 48.5329 23.5419 48.7226 23.7349 49.1245L23.735 49.1246L25.1047 51.973L25.1124 51.9889L25.1222 52.0037C25.1762 52.0843 25.2705 52.1497 25.3539 52.198C25.4486 52.2528 25.5705 52.3086 25.716 52.3588C26.0075 52.4594 26.4037 52.5406 26.8847 52.5406H29.1602C29.6415 52.5406 30.038 52.4594 30.3306 52.3576C30.4766 52.3068 30.5992 52.25 30.6949 52.1937C30.7804 52.1434 30.8741 52.0765 30.9284 51.9946L30.9379 51.9803L30.9453 51.9649L32.31 49.1246C32.31 49.1246 32.31 49.1246 32.31 49.1246C32.503 48.7232 33.0152 48.5332 33.4581 48.7239L33.4581 48.724C33.8949 48.9118 34.0721 49.3871 33.8832 49.7794Z" fill="#167C80" stroke="#167C80" stroke-width="0.498803"/>
<path d="M27.2887 56.3527V61.9483C27.2887 62.3786 26.9156 62.7508 26.4268 62.7508C25.9379 62.7508 25.5648 62.3786 25.5648 61.9483V56.3527C25.5648 55.9224 25.9379 55.5502 26.4268 55.5502C26.9156 55.5502 27.2887 55.9224 27.2887 56.3527Z" fill="#167C80" stroke="#167C80" stroke-width="0.498803"/>
<path d="M28.7572 56.3527C28.7572 55.9224 29.1303 55.5502 29.6191 55.5502C30.1085 55.5502 30.4811 55.922 30.4811 56.3527V61.9483C30.4811 62.3786 30.108 62.7508 29.6191 62.7508C29.1303 62.7508 28.7572 62.3786 28.7572 61.9483V56.3527Z" fill="#167C80" stroke="#167C80" stroke-width="0.498803"/>
<path d="M54.4265 26.1003L28.3262 9.97606L2.22585 26.1003" stroke="#167C80" stroke-width="2.99282" stroke-linecap="round" stroke-linejoin="round"/>
</svg>
