<svg width="22" height="26" viewBox="0 0 22 26" fill="none" xmlns="http://www.w3.org/2000/svg">
<path d="M3 1.61796H14.1555L20.3824 7.78541V22.8827C20.3824 24.3608 19.1841 25.5591 17.7059 25.5591H3C1.52183 25.5591 0.323529 24.3608 0.323529 22.8827V4.29443C0.323529 2.81626 1.52183 1.61796 3 1.61796Z" fill="white" stroke="#DFE0DF" stroke-width="0.647059"/>
<path fill-rule="evenodd" clip-rule="evenodd" d="M14.1534 8.41208C13.8411 8.41208 13.5879 8.15888 13.5879 7.84655V1.85992C13.5879 1.63121 13.7257 1.42503 13.937 1.3375C14.1483 1.24998 14.3915 1.29833 14.5533 1.46003L20.5399 7.44671C20.7016 7.60845 20.75 7.85166 20.6625 8.06295C20.575 8.27424 20.3688 8.41203 20.1401 8.41208H14.1534Z" fill="#D8D8D8"/>
<path d="M5.68356 16.2853C5.84468 16.2853 5.98638 16.264 6.10868 16.2213C6.23291 16.1786 6.33677 16.1193 6.42024 16.0436C6.50565 15.966 6.56971 15.8738 6.61241 15.767C6.65512 15.6603 6.67647 15.5428 6.67647 15.4147C6.67647 15.1488 6.59397 14.9411 6.42897 14.7916C6.26591 14.6421 6.01744 14.5674 5.68356 14.5674H5.01386V16.2853H5.68356ZM5.68356 14.1219C5.94756 14.1219 6.17662 14.1529 6.37074 14.2151C6.5668 14.2752 6.72888 14.3616 6.857 14.4742C6.98512 14.5868 7.08024 14.7227 7.14236 14.8818C7.20641 15.041 7.23844 15.2186 7.23844 15.4147C7.23844 15.6088 7.20447 15.7864 7.13653 15.9476C7.06859 16.1087 6.96862 16.2475 6.83662 16.3639C6.70656 16.4804 6.54447 16.5716 6.35036 16.6376C6.15818 16.7017 5.93591 16.7337 5.68356 16.7337H5.01386V18.2944H4.45188V14.1219H5.68356ZM11.5658 16.2096C11.5658 16.5221 11.5163 16.8065 11.4173 17.0628C11.3183 17.319 11.1786 17.5383 10.998 17.7208C10.8175 17.9033 10.6001 18.045 10.3458 18.1459C10.0934 18.2449 9.81391 18.2944 9.50721 18.2944H7.94941V14.1219H9.50721C9.81391 14.1219 10.0934 14.1723 10.3458 14.2733C10.6001 14.3723 10.8175 14.514 10.998 14.6984C11.1786 14.8809 11.3183 15.1002 11.4173 15.3565C11.5163 15.6127 11.5658 15.8971 11.5658 16.2096ZM10.9864 16.2096C10.9864 15.9534 10.9514 15.7243 10.8816 15.5224C10.8117 15.3206 10.7127 15.1497 10.5846 15.01C10.4564 14.8702 10.3011 14.7634 10.1187 14.6897C9.93621 14.6159 9.73238 14.579 9.50721 14.579H8.5143V17.8373H9.50721C9.73238 17.8373 9.93621 17.8004 10.1187 17.7266C10.3011 17.6529 10.4564 17.5471 10.5846 17.4093C10.7127 17.2695 10.8117 17.0987 10.8816 16.8968C10.9514 16.6949 10.9864 16.4658 10.9864 16.2096ZM12.9445 14.5819V16.0407H14.6595V16.5008H12.9445V18.2944H12.3796V14.1219H14.9507V14.5819H12.9445Z" fill="#757575"/>
<path d="M4.29297 0.323529H15.4485L21.6753 6.49097V21.5882C21.6753 23.0664 20.477 24.2647 18.9988 24.2647H4.29297C2.8148 24.2647 1.6165 23.0664 1.6165 21.5882V3C1.6165 1.52182 2.81479 0.323529 4.29297 0.323529Z" fill="white" stroke="#DFE0DF" stroke-width="0.647059"/>
<path fill-rule="evenodd" clip-rule="evenodd" d="M15.4464 7.11765C15.1341 7.11765 14.8809 6.86445 14.8809 6.55211V0.565486C14.8809 0.336776 15.0187 0.130597 15.23 0.0430693C15.4413 -0.0444582 15.6845 0.00389929 15.8462 0.165597L21.8329 6.15228C21.9946 6.31402 22.043 6.55722 21.9554 6.76852C21.8679 6.97981 21.6618 7.1176 21.4331 7.11765H15.4464Z" fill="#D8D8D8"/>
<path d="M8.18657 14.2647C8.18657 14.4977 8.15745 14.7063 8.09922 14.8908C8.04292 15.0752 7.95848 15.2314 7.84589 15.3596C7.73524 15.4857 7.59839 15.5828 7.43533 15.6507C7.27227 15.7187 7.08495 15.7526 6.87336 15.7526C6.68119 15.7526 6.48513 15.7255 6.28519 15.6711C6.28907 15.6148 6.29392 15.5595 6.29974 15.5051C6.30557 15.4488 6.31042 15.3935 6.3143 15.3392C6.31819 15.3062 6.32983 15.28 6.34924 15.2606C6.3706 15.2392 6.40263 15.2285 6.44533 15.2285C6.48027 15.2285 6.52589 15.2373 6.58219 15.2547C6.64042 15.2722 6.71807 15.2809 6.81513 15.2809C6.94324 15.2809 7.05777 15.2615 7.15872 15.2227C7.25966 15.1839 7.3441 15.1237 7.41204 15.0422C7.47998 14.9606 7.53142 14.8568 7.56636 14.7306C7.60324 14.6025 7.62169 14.4511 7.62169 14.2764V11.5335H8.18657V14.2647ZM10.4423 13.6969C10.6034 13.6969 10.7451 13.6756 10.8674 13.6329C10.9917 13.5902 11.0955 13.531 11.179 13.4553C11.2644 13.3776 11.3285 13.2854 11.3712 13.1786C11.4139 13.0719 11.4352 12.9544 11.4352 12.8263C11.4352 12.5604 11.3527 12.3527 11.1877 12.2032C11.0247 12.0537 10.7762 11.979 10.4423 11.979H9.77262V13.6969H10.4423ZM10.4423 11.5335C10.7063 11.5335 10.9354 11.5646 11.1295 11.6267C11.3256 11.6868 11.4876 11.7732 11.6158 11.8858C11.7439 11.9984 11.839 12.1343 11.9011 12.2935C11.9652 12.4526 11.9972 12.6303 11.9972 12.8263C11.9972 13.0204 11.9632 13.1981 11.8953 13.3592C11.8274 13.5203 11.7274 13.6591 11.5954 13.7756C11.4653 13.892 11.3032 13.9833 11.1091 14.0493C10.9169 14.1133 10.6947 14.1453 10.4423 14.1453H9.77262V15.7061H9.21064V11.5335H10.4423ZM16.0975 13.6998V15.3013C15.8878 15.4527 15.6636 15.5663 15.4249 15.642C15.188 15.7158 14.9279 15.7526 14.6445 15.7526C14.3087 15.7526 14.0059 15.7012 13.736 15.5983C13.4662 15.4935 13.2352 15.3479 13.043 15.1616C12.8528 14.9733 12.7062 14.7481 12.6034 14.486C12.5005 14.224 12.449 13.9357 12.449 13.6212C12.449 13.3029 12.4985 13.0127 12.5975 12.7506C12.6985 12.4886 12.8411 12.2643 13.0256 12.078C13.21 11.8897 13.4342 11.7441 13.6982 11.6412C13.9622 11.5383 14.2572 11.4869 14.5834 11.4869C14.7484 11.4869 14.9017 11.4995 15.0434 11.5248C15.1851 11.5481 15.3161 11.583 15.4365 11.6296C15.5569 11.6742 15.6685 11.7296 15.7714 11.7956C15.8742 11.8596 15.9703 11.9324 16.0596 12.0139L15.8995 12.2702C15.8742 12.309 15.8412 12.3342 15.8005 12.3459C15.7616 12.3556 15.718 12.3459 15.6694 12.3168C15.6229 12.2896 15.5695 12.2566 15.5093 12.2178C15.4491 12.1789 15.3754 12.1421 15.288 12.1071C15.2026 12.0702 15.1007 12.0392 14.9823 12.0139C14.8658 11.9887 14.727 11.9761 14.5659 11.9761C14.331 11.9761 14.1184 12.0149 13.9282 12.0926C13.738 12.1683 13.5759 12.2779 13.4419 12.4216C13.308 12.5633 13.2051 12.7361 13.1333 12.9399C13.0615 13.1418 13.0256 13.3689 13.0256 13.6212C13.0256 13.8833 13.0624 14.1182 13.1362 14.3259C13.2119 14.5316 13.3187 14.7073 13.4565 14.8529C13.5963 14.9966 13.7651 15.1062 13.9631 15.1819C14.1611 15.2576 14.3834 15.2955 14.6299 15.2955C14.8241 15.2955 14.9959 15.2741 15.1453 15.2314C15.2967 15.1868 15.4443 15.1256 15.5879 15.048V14.1308H14.9386C14.9017 14.1308 14.8716 14.1201 14.8483 14.0988C14.827 14.0774 14.8163 14.0512 14.8163 14.0201V13.6998H16.0975Z" fill="#757575"/>
</svg>
