<svg width="75" height="51" viewBox="0 0 75 51" fill="none" xmlns="http://www.w3.org/2000/svg">
<mask id="mask0" mask-type="alpha" maskUnits="userSpaceOnUse" x="0" y="2" width="75" height="49">
<path d="M40.9091 4.27317L40.9091 15.6368L53.4091 15.6368C54.0367 15.6368 54.5455 16.1456 54.5455 16.7732C54.5455 17.4008 54.0367 17.9095 53.4091 17.9095L26.1364 17.9095C25.5088 17.9095 25 17.4008 25 16.7732C25 16.1456 25.5088 15.6368 26.1364 15.6368L38.6364 15.6368L38.6364 4.27317L1.13637 4.27316C0.50877 4.27316 3.80083e-06 3.7644 3.85209e-06 3.1368C3.90336e-06 2.50921 0.50877 2.00044 1.13637 2.00044L73.8636 2.00044C74.4912 2.00044 75 2.50921 75 3.13681C75 3.7644 74.4912 4.27317 73.8636 4.27317L40.9091 4.27317ZM44.3182 24.1595C45.2596 24.1595 46.0227 24.9227 46.0227 25.8641C46.0227 26.8055 45.2596 27.5686 44.3182 27.5686C43.3768 27.5686 42.6136 26.8055 42.6136 25.8641C42.6136 24.9227 43.3768 24.1595 44.3182 24.1595ZM53.4091 24.1595C54.3505 24.1595 55.1136 24.9227 55.1136 25.8641C55.1136 26.8055 54.3505 27.5686 53.4091 27.5686C52.4677 27.5686 51.7045 26.8055 51.7045 25.8641C51.7045 24.9227 52.4677 24.1595 53.4091 24.1595ZM35.2273 24.1595C36.1687 24.1595 36.9318 24.9227 36.9318 25.8641C36.9318 26.8055 36.1687 27.5686 35.2273 27.5686C34.2859 27.5686 33.5227 26.8055 33.5227 25.8641C33.5227 24.9227 34.2859 24.1595 35.2273 24.1595ZM46.5909 35.5232C47.5323 35.5232 48.2955 36.2863 48.2955 37.2277C48.2955 38.1691 47.5323 38.9323 46.5909 38.9323C45.6495 38.9323 44.8864 38.1691 44.8864 37.2277C44.8864 36.2863 45.6495 35.5232 46.5909 35.5232ZM32.9545 35.5232C33.8959 35.5232 34.6591 36.2863 34.6591 37.2277C34.6591 38.1691 33.8959 38.9323 32.9545 38.9323C32.0132 38.9323 31.25 38.1691 31.25 37.2277C31.25 36.2863 32.0132 35.5232 32.9545 35.5232ZM51.1364 46.8868C52.0778 46.8868 52.8409 47.65 52.8409 48.5914C52.8409 49.5327 52.0778 50.2959 51.1364 50.2959C50.195 50.2959 49.4318 49.5327 49.4318 48.5914C49.4318 47.65 50.195 46.8868 51.1364 46.8868ZM28.4091 46.8868C29.3505 46.8868 30.1136 47.65 30.1136 48.5913C30.1136 49.5327 29.3505 50.2959 28.4091 50.2959C27.4677 50.2959 26.7045 49.5327 26.7045 48.5913C26.7045 47.65 27.4677 46.8868 28.4091 46.8868ZM26.1364 24.1595C27.0778 24.1595 27.8409 24.9227 27.8409 25.8641C27.8409 26.8055 27.0778 27.5686 26.1364 27.5686C25.195 27.5686 24.4318 26.8055 24.4318 25.8641C24.4318 24.9227 25.195 24.1595 26.1364 24.1595ZM60.2273 33.2504C61.1687 33.2504 61.9318 34.0136 61.9318 34.955C61.9318 35.8964 61.1687 36.6595 60.2273 36.6595C59.2859 36.6595 58.5227 35.8964 58.5227 34.955C58.5227 34.0136 59.2859 33.2504 60.2273 33.2504ZM19.3182 33.2504C20.2596 33.2504 21.0227 34.0136 21.0227 34.955C21.0227 35.8964 20.2596 36.6595 19.3182 36.6595C18.3768 36.6595 17.6136 35.8964 17.6136 34.955C17.6136 34.0136 18.3768 33.2504 19.3182 33.2504ZM69.3182 42.3414C70.2596 42.3414 71.0227 43.1045 71.0227 44.0459C71.0227 44.9873 70.2596 45.7504 69.3182 45.7504C68.3768 45.7504 67.6136 44.9873 67.6136 44.0459C67.6136 43.1045 68.3768 42.3414 69.3182 42.3414ZM10.2273 42.3413C11.1687 42.3413 11.9318 43.1045 11.9318 44.0459C11.9318 44.9873 11.1687 45.7504 10.2273 45.7504C9.28588 45.7504 8.52273 44.9873 8.52273 44.0459C8.52273 43.1045 9.28588 42.3413 10.2273 42.3413Z" fill="black"/>
</mask>
<g mask="url(#mask0)">
<rect x="-3.40625" y="-2.26172" width="86.3636" height="23.8636" fill="#167C80"/>
</g>
<path d="M29.092 25.5975C29.3195 25.3755 29.4338 25.0804 29.4338 24.7852C29.4338 24.4989 29.3261 24.2114 29.1097 23.9906C28.6714 23.5423 27.9517 23.5334 27.5029 23.9728L24.2047 27.1977C23.757 27.6338 23.7481 28.3552 24.187 28.8046C24.6253 29.2529 25.345 29.2618 25.7939 28.8224L29.092 25.5975Z" fill="#167C80"/>
<path d="M22.2756 31.5057C22.5031 31.2838 22.6174 30.9886 22.6174 30.6934C22.6174 30.4071 22.5097 30.1196 22.2933 29.8988C21.855 29.4505 21.1353 29.4416 20.6864 29.8811L17.3883 33.1059C16.9406 33.5421 16.9317 34.2634 17.3706 34.7128C17.8089 35.1611 18.5286 35.17 18.9775 34.7306L22.2756 31.5057Z" fill="#167C80"/>
<path d="M34.9494 34.566L35.8499 30.3979C35.8671 30.3169 35.8754 30.237 35.8754 30.1571C35.8754 29.6333 35.5115 29.1628 34.9793 29.0473C34.3657 28.9153 33.7609 29.3048 33.6282 29.9185L32.7277 34.0866C32.5995 34.697 32.9851 35.304 33.5983 35.4372C34.212 35.5692 34.8168 35.1797 34.9494 34.566Z" fill="#167C80"/>
<path d="M32.9259 43.0553L33.8265 38.8871C33.8437 38.8061 33.852 38.7262 33.852 38.6463C33.852 38.1225 33.488 37.652 32.9559 37.5366C32.3422 37.4045 31.7374 37.7941 31.6048 38.4077L30.7043 42.5759C30.5761 43.1862 30.9617 43.7933 31.5748 43.9264C32.1885 44.0585 32.7933 43.669 32.9259 43.0553Z" fill="#167C80"/>
<path d="M47.5042 34.3274C47.5042 34.2475 47.4959 34.1676 47.4787 34.0866L46.5781 29.9185C46.4455 29.3048 45.8407 28.9153 45.227 29.0473C44.6139 29.1794 44.2288 29.7831 44.3564 30.3979L45.257 34.566C45.3896 35.1797 45.9944 35.5692 46.6081 35.4372C47.1402 35.3218 47.5042 34.8512 47.5042 34.3274Z" fill="#167C80"/>
<path d="M49.7659 42.8167C49.7659 42.7368 49.7576 42.6569 49.7404 42.5759L48.8398 38.4077C48.7072 37.7941 48.1024 37.4045 47.4887 37.5366C46.8756 37.6687 46.4905 38.2724 46.6182 38.8871L47.5187 43.0553C47.6513 43.669 48.2561 44.0585 48.8698 43.9264C49.4019 43.811 49.7659 43.3405 49.7659 42.8167Z" fill="#167C80"/>
<path d="M51.7128 26.1754L54.4166 28.8199C54.8655 29.2582 55.5846 29.2504 56.0235 28.8021C56.2399 28.5813 56.3475 28.2938 56.3475 28.0075C56.3475 27.7124 56.2332 27.4183 56.0058 27.1952L53.3019 24.5507C52.853 24.1113 52.1339 24.1202 51.695 24.5685C51.2556 25.0157 51.265 25.7348 51.7128 26.1754Z" fill="#167C80"/>
<path d="M58.2948 32.6422L60.9986 35.2867C61.4475 35.725 62.1666 35.7172 62.6055 35.2689C62.8219 35.0481 62.9296 34.7606 62.9296 34.4743C62.9296 34.1791 62.8153 33.8851 62.5878 33.662L59.8839 31.0175C59.435 30.5781 58.7159 30.587 58.277 31.0353C57.8376 31.4825 57.847 32.2016 58.2948 32.6422Z" fill="#167C80"/>
</svg>
