<svg width="63" height="52" viewBox="0 0 63 52" fill="none" xmlns="http://www.w3.org/2000/svg">
<path d="M1 6.5C0.447715 6.5 0 6.94772 0 7.5C0 8.05228 0.447715 8.5 1 8.5V6.5ZM61.1646 8.5C61.7169 8.5 62.1646 8.05228 62.1646 7.5C62.1646 6.94772 61.7169 6.5 61.1646 6.5V8.5ZM1 8.5H61.1646V6.5H1V8.5Z" fill="#167C80"/>
<path d="M58 8.5V44.5" stroke="#167C80" stroke-width="2" stroke-linecap="round"/>
<path d="M4 8.5V44.5" stroke="#167C80" stroke-width="2" stroke-linecap="round"/>
<path d="M1 43.5C0.447715 43.5 0 43.9477 0 44.5C0 45.0523 0.447715 45.5 1 45.5V43.5ZM61 45.5C61.5523 45.5 62 45.0523 62 44.5C62 43.9477 61.5523 43.5 61 43.5V45.5ZM1 45.5H61V43.5H1V45.5Z" fill="#167C80"/>
<path d="M36 44.5V27.5C36 26.9477 35.5523 26.5 35 26.5H27C26.4477 26.5 26 26.9477 26 27.5V44.5" stroke="#167C80" stroke-width="2" stroke-miterlimit="10"/>
</svg>
