<svg width="63" height="55" viewBox="0 0 63 55" fill="none" xmlns="http://www.w3.org/2000/svg">
<path d="M0.395805 23.2649C-0.0442755 23.5986 -0.130524 24.2258 0.203163 24.6659C0.536851 25.106 1.16411 25.1923 1.60419 24.8586L0.395805 23.2649ZM30.7553 1.5L31.3512 0.696902C30.9942 0.432065 30.5053 0.434616 30.1511 0.703163L30.7553 1.5ZM60.5688 24.8648C61.0123 25.1939 61.6386 25.1011 61.9677 24.6576C62.2968 24.214 62.204 23.5877 61.7605 23.2586L60.5688 24.8648ZM1.60419 24.8586L31.3595 2.29684L30.1511 0.703163L0.395805 23.2649L1.60419 24.8586ZM30.1595 2.3031L60.5688 24.8648L61.7605 23.2586L31.3512 0.696902L30.1595 2.3031Z" fill="#167C80"/>
<path d="M58.082 23.5V53.5" stroke="#167C80" stroke-width="2" stroke-linecap="round"/>
<path d="M4.08203 23.5V53.5" stroke="#167C80" stroke-width="2" stroke-linecap="round"/>
<path d="M1.08203 52.5C0.529746 52.5 0.0820312 52.9477 0.0820312 53.5C0.0820312 54.0523 0.529746 54.5 1.08203 54.5V52.5ZM61.082 54.5C61.6343 54.5 62.082 54.0523 62.082 53.5C62.082 52.9477 61.6343 52.5 61.082 52.5V54.5ZM1.08203 54.5H61.082V52.5H1.08203V54.5Z" fill="#167C80"/>
<path d="M36.082 53.5V36.5C36.082 35.9477 35.6343 35.5 35.082 35.5H27.082C26.5297 35.5 26.082 35.9477 26.082 36.5V53.5" stroke="#167C80" stroke-width="2" stroke-miterlimit="10"/>
</svg>
