<svg viewBox="0 0 24 24"  xmlns="http://www.w3.org/2000/svg" focusable="false">
  <path
    fill-rule="evenodd"
    clip-rule="evenodd"
    d="M11.8759 2.59222C6.90529 2.59222 2.87585 6.62165 2.87585 11.5922C2.87585 16.5628 6.90529 20.5922 11.8759 20.5922C16.8464 20.5922 20.8759 16.5628 20.8759 11.5922C20.8759 6.62165 16.8464 2.59222 11.8759 2.59222ZM0.875854 11.5922C0.875854 5.51708 5.80072 0.592216 11.8759 0.592216C17.951 0.592216 22.8759 5.51708 22.8759 11.5922C22.8759 17.6673 17.951 22.5922 11.8759 22.5922C5.80072 22.5922 0.875854 17.6673 0.875854 11.5922Z"
  />
  <path
    fill-rule="evenodd"
    clip-rule="evenodd"
    d="M11.8759 6.59222C12.4281 6.59222 12.8759 7.03993 12.8759 7.59222V11.5922C12.8759 12.1445 12.4281 12.5922 11.8759 12.5922C11.3236 12.5922 10.8759 12.1445 10.8759 11.5922V7.59222C10.8759 7.03993 11.3236 6.59222 11.8759 6.59222Z"
  />
  <path
    fill-rule="evenodd"
    clip-rule="evenodd"
    d="M10.8759 15.5922C10.8759 15.0399 11.3236 14.5922 11.8759 14.5922H11.8859C12.4381 14.5922 12.8859 15.0399 12.8859 15.5922C12.8859 16.1445 12.4381 16.5922 11.8859 16.5922H11.8759C11.3236 16.5922 10.8759 16.1445 10.8759 15.5922Z"
  />
</svg>
