<svg width="62" height="52" viewBox="0 0 62 52" fill="none" xmlns="http://www.w3.org/2000/svg">
<path d="M58 18.5V48.5" stroke="#167C80" stroke-width="2" stroke-linecap="round"/>
<path d="M0.345848 18.7436C-0.0718797 19.1049 -0.117641 19.7364 0.243637 20.1542C0.604915 20.5719 1.23642 20.6176 1.65415 20.2564L0.345848 18.7436ZM60.3559 20.2649C60.7783 20.6207 61.4092 20.5666 61.7649 20.1441C62.1207 19.7217 62.0666 19.0908 61.6441 18.7351L60.3559 20.2649ZM19.5 3.5V2.5H19.1276L18.8458 2.74364L19.5 3.5ZM42 3.5L42.6441 2.73509L42.365 2.5H42V3.5ZM1.65415 20.2564L20.1542 4.25636L18.8458 2.74364L0.345848 18.7436L1.65415 20.2564ZM19.5 4.5H42V2.5H19.5V4.5ZM41.3559 4.26491L60.3559 20.2649L61.6441 18.7351L42.6441 2.73509L41.3559 4.26491Z" fill="#167C80"/>
<path d="M4 18.5V48.5" stroke="#167C80" stroke-width="2" stroke-linecap="round"/>
<path d="M1 47.5C0.447715 47.5 0 47.9477 0 48.5C0 49.0523 0.447715 49.5 1 49.5V47.5ZM61 49.5C61.5523 49.5 62 49.0523 62 48.5C62 47.9477 61.5523 47.5 61 47.5V49.5ZM1 49.5H61V47.5H1V49.5Z" fill="#167C80"/>
<path d="M36 48.5V31.5C36 30.9477 35.5523 30.5 35 30.5H27C26.4477 30.5 26 30.9477 26 31.5V48.5" stroke="#167C80" stroke-width="2" stroke-miterlimit="10"/>
</svg>
