<svg width="60" height="60" fill="none" xmlns="http://www.w3.org/2000/svg"><path d="M44.166 45.833V27.5m-28.332 0v18.333M12.57 27.5c-.912 0-1.348-1.12-.676-1.737l17.43-15.977a1 1 0 0 1 1.35 0l17.43 15.977c.672.616.236 1.737-.676 1.737H12.571zm21.596 18.333V33.5a1 1 0 0 0-1-1h-6.334a1 1 0 0 0-1 1v12.333m-15.833 0h40" stroke="#167C80" stroke-width="2" stroke-miterlimit="10" stroke-linecap="round"/><path d="M30 23.083a3.333 3.333 0 1 0 0-6.666 3.333 3.333 0 0 0 0 6.666z" stroke="#167C80" stroke-width="2" stroke-miterlimit="10" stroke-linecap="round"/></svg>