<svg width="74" height="54" viewBox="0 0 74 54" fill="none" xmlns="http://www.w3.org/2000/svg">
<path fill-rule="evenodd" clip-rule="evenodd" d="M36.605 20.4424C42.25 20.4424 46.8262 15.8662 46.8262 10.2212C46.8262 4.57618 42.25 0 36.605 0C30.96 0 26.3839 4.57618 26.3839 10.2212C26.3839 15.8662 30.96 20.4424 36.605 20.4424ZM36.605 18.4424C41.1455 18.4424 44.8262 14.7616 44.8262 10.2212C44.8262 8.98067 44.5515 7.80432 44.0595 6.74967L44.0435 6.75411L28.43 10.9306L28.4144 10.9346C28.7759 15.141 32.305 18.4424 36.605 18.4424ZM38.2846 6.22423L42.9386 4.97932C41.4307 3.15933 39.1532 2 36.605 2C34.8735 2 33.2671 2.53528 31.9421 3.44939L38.2846 6.22423ZM35.188 7.05253L30.3191 4.92236C29.3927 6.02015 28.7487 7.36394 28.4991 8.84176L35.188 7.05253Z" fill="#167C80"/>
<path fill-rule="evenodd" clip-rule="evenodd" d="M19.8394 27.5977C19.6833 28.2036 19.5986 28.8269 19.5878 29.455C19.58 29.4995 19.5752 29.5451 19.5735 29.5915L19.0007 45.5271C18.982 46.0455 19.3613 46.4858 19.8647 46.5539C19.9505 46.5779 20.0409 46.5907 20.1344 46.5907H22.4136L22.1883 51.8448C22.1791 52.0603 22.2387 52.2627 22.3477 52.4309C22.5139 52.7526 22.8496 52.9725 23.2367 52.9725L46.4718 52.9725C46.5888 53.013 46.7152 53.0323 46.8463 53.026C46.9438 53.0213 47.0374 53.0028 47.1252 52.9725H54.0709C54.417 52.9725 54.7221 52.7967 54.9016 52.5295C55.0282 52.3551 55.0997 52.1386 55.0913 51.9065L54.2909 29.6418C54.2892 29.5953 54.2844 29.5495 54.2766 29.5049C54.2658 28.8769 54.181 28.2537 54.025 27.648C53.9231 27.2523 53.7907 26.8641 53.6287 26.4869C53.1998 25.4882 52.5719 24.5874 51.7832 23.8395C50.9945 23.0916 50.0617 22.5122 49.0417 22.1369C48.6564 21.9951 48.2617 21.8835 47.8612 21.8027C47.2857 21.6866 46.6982 21.634 46.1092 21.6466C46.0837 21.6446 46.0578 21.6435 46.0318 21.6434L28.0467 21.5997C28.0172 21.5996 27.9879 21.6008 27.959 21.6032C27.3019 21.5725 26.6451 21.6229 26.0031 21.7524C25.6027 21.8332 25.208 21.9448 24.8227 22.0866C23.8027 22.4619 22.8698 23.0413 22.0812 23.7892C21.2925 24.5371 20.6645 25.4379 20.2356 26.4366C20.0736 26.8138 19.9413 27.202 19.8394 27.5977ZM46.1903 23.6306C46.1372 23.6392 46.0826 23.6436 46.0269 23.6434L36.9175 23.6213L39.3731 36.9169H45.0713V36.9155H45.0738L44.7621 30.4069C44.7357 29.8553 45.1615 29.3866 45.7131 29.3602C46.2648 29.3338 46.7334 29.7596 46.7598 30.3112L47.1098 37.6199C47.2132 37.7011 47.3122 37.7887 47.4061 37.8826C48.0253 38.5019 48.3732 39.3417 48.3732 40.2175H48.3644C48.3679 40.2514 48.3697 40.2857 48.3697 40.3205V42.8907H48.3732C48.3732 43.7494 48.0388 44.5736 47.4419 45.1891C47.4429 45.2073 47.4434 45.2256 47.4434 45.244C47.4434 45.2686 47.4425 45.2929 47.4408 45.3171C47.4693 45.4023 47.4867 45.4929 47.4913 45.5871L47.7492 50.9725H53.0564L52.2922 29.7137C52.2912 29.6852 52.2913 29.657 52.2927 29.6291C52.2908 28.818 52.1248 28.0156 51.8047 27.2702C51.4823 26.5194 51.0102 25.8422 50.4172 25.2799C49.8243 24.7176 49.123 24.2821 48.3561 23.9999C47.6624 23.7446 46.9282 23.6196 46.1903 23.6306ZM45.0713 44.244V44.2058C45.4201 44.2058 45.7546 44.0672 46.0012 43.8206C46.2063 43.6154 46.3367 43.3495 46.3748 43.0651C46.3714 43.0317 46.3697 42.9979 46.3697 42.9638V40.3205C46.3697 40.2617 46.3748 40.204 46.3845 40.148C46.3674 39.8245 46.2314 39.5178 46.0012 39.2876C45.8009 39.0873 45.5427 38.9583 45.266 38.9169H39.7425L40.7264 44.244H45.0713ZM21.5722 29.6634C21.5733 29.6345 21.5731 29.6059 21.5717 29.5776C21.5738 28.7669 21.7397 27.965 22.0597 27.2199C22.3821 26.4691 22.8542 25.7919 23.4471 25.2296C24.0401 24.6673 24.7414 24.2318 25.5082 23.9496C26.2683 23.6699 27.0769 23.5466 27.8856 23.5871C27.894 23.5885 27.9024 23.5897 27.9108 23.5908L23.9953 44.7906C23.902 44.7308 23.798 44.6859 23.6865 44.6596C23.5734 44.6151 23.4501 44.5907 23.3212 44.5907H21.0356L21.5722 29.6634ZM41.0958 46.244L41.243 47.0407C41.2799 47.2406 41.2546 47.4377 41.1807 47.6118C41.0342 47.9821 40.673 48.244 40.2505 48.244H24.9286C24.8683 48.244 24.8092 48.2387 24.7518 48.2284C24.6315 48.2522 24.5048 48.254 24.3769 48.2304C24.3663 48.2285 24.3558 48.2263 24.3454 48.2241L24.2276 50.9725L45.7469 50.9725L45.5204 46.244H41.0958ZM39.062 46.244H25.7606L29.9421 23.6043L34.8827 23.6163L39.062 46.244Z" fill="#167C80"/>
</svg>
