<svg width="47" height="46" viewBox="0 0 47 46" fill="none" xmlns="http://www.w3.org/2000/svg">
<path d="M1.14259 39.9575L16.9563 23.995L21.8007 28.885L18.9748 31.7375L15.7451 31.7375L15.3414 32.145L14.534 36.2201L12.936 38.0359L9.70641 38.0359L9.30271 38.4434L8.89901 42.1109L3.89433 42.6462L1.14259 39.9575Z" stroke="#167C80" stroke-width="2" stroke-linejoin="round"/>
<circle r="10.3251" transform="matrix(0.703786 0.710412 -0.703786 0.710412 26.6445 19.1047)" stroke="#167C80" stroke-width="2"/>
<path d="M27.4512 13.3999L28.155 12.6895C27.7663 12.2971 27.1361 12.2971 26.7474 12.6895L27.4512 13.3999ZM32.2956 18.29L32.9994 19.0004C33.3881 18.608 33.3881 17.9719 32.9994 17.5795L32.2956 18.29ZM29.8734 20.735L29.1696 21.4454C29.3563 21.6338 29.6094 21.7397 29.8734 21.7397C30.1374 21.7397 30.3905 21.6338 30.5772 21.4454L29.8734 20.735ZM25.029 15.8449L24.3252 15.1345C23.9365 15.5269 23.9365 16.163 24.3252 16.5553L25.029 15.8449ZM26.7474 14.1103L31.5918 19.0004L32.9994 17.5795L28.155 12.6895L26.7474 14.1103ZM31.5918 17.5795L29.1696 20.0246L30.5772 21.4454L32.9994 19.0004L31.5918 17.5795ZM30.5772 20.0246L25.7327 15.1345L24.3252 16.5553L29.1696 21.4454L30.5772 20.0246ZM25.7327 16.5553L28.155 14.1103L26.7474 12.6895L24.3252 15.1345L25.7327 16.5553Z" fill="#167C80"/>
<path d="M7.31836 8.06836L7.31836 12.6787" stroke="#167C80" stroke-width="2" stroke-linecap="round" stroke-linejoin="round"/>
<path d="M9.60156 10.3735L5.03418 10.3735" stroke="#167C80" stroke-width="2" stroke-linecap="round" stroke-linejoin="round"/>
<path d="M27.8711 38.0356L27.8711 42.646" stroke="#167C80" stroke-width="2" stroke-linecap="round" stroke-linejoin="round"/>
<path d="M30.1543 40.3408L25.5869 40.3408" stroke="#167C80" stroke-width="2" stroke-linecap="round" stroke-linejoin="round"/>
<path d="M42.1465 5.76318L42.1465 11.5262" stroke="#167C80" stroke-width="2.5" stroke-linecap="round" stroke-linejoin="round"/>
<path d="M45 8.64453L39.2908 8.64453" stroke="#167C80" stroke-width="2.5" stroke-linecap="round" stroke-linejoin="round"/>
<ellipse cx="1.61059" cy="27.6624" rx="1.14184" ry="1.1526" fill="#167C80"/>
<ellipse cx="39.2903" cy="25.3572" rx="1.14184" ry="1.1526" fill="#167C80"/>
<ellipse cx="23.3059" cy="1.1526" rx="1.14185" ry="1.1526" fill="#167C80"/>
</svg>
