<svg width="60" height="46" viewBox="0 0 60 46" fill="none" xmlns="http://www.w3.org/2000/svg">
<path fill-rule="evenodd" clip-rule="evenodd" d="M-5 45C-5 44.4477 -4.55483 44 -4.00568 44H64.0057C64.5548 44 65 44.4477 65 45C65 45.5523 64.5548 46 64.0057 46H-4.00568C-4.55483 46 -5 45.5523 -5 45Z" fill="#167C80"/>
<path fill-rule="evenodd" clip-rule="evenodd" d="M3 21C3 19.8954 3.89543 19 5 19H15C15.5523 19 16 19.4477 16 20C16 20.5523 15.5523 21 15 21H5V44C5 44.5523 4.55229 45 4 45C3.44771 45 3 44.5523 3 44V21Z" fill="#167C80"/>
<path fill-rule="evenodd" clip-rule="evenodd" d="M6 24C6 23.4477 6.51167 23 7.14286 23H12.8571C13.4883 23 14 23.4477 14 24C14 24.5523 13.4883 25 12.8571 25H7.14286C6.51167 25 6 24.5523 6 24Z" fill="#167C80"/>
<path fill-rule="evenodd" clip-rule="evenodd" d="M6 28C6 27.4477 6.51167 27 7.14286 27H12.8571C13.4883 27 14 27.4477 14 28C14 28.5523 13.4883 29 12.8571 29H7.14286C6.51167 29 6 28.5523 6 28Z" fill="#167C80"/>
<path fill-rule="evenodd" clip-rule="evenodd" d="M6 32C6 31.4477 6.51167 31 7.14286 31H12.8571C13.4883 31 14 31.4477 14 32C14 32.5523 13.4883 33 12.8571 33H7.14286C6.51167 33 6 32.5523 6 32Z" fill="#167C80"/>
<path fill-rule="evenodd" clip-rule="evenodd" d="M6 36C6 35.4477 6.51167 35 7.14286 35H12.8571C13.4883 35 14 35.4477 14 36C14 36.5523 13.4883 37 12.8571 37H7.14286C6.51167 37 6 36.5523 6 36Z" fill="#167C80"/>
<path fill-rule="evenodd" clip-rule="evenodd" d="M57 16.1333C57 14.9551 56.1046 14 55 14H45C44.4477 14 44 14.4776 44 15.0667C44 15.6558 44.4477 16.1333 45 16.1333H55V44.9333C55 45.5224 55.4477 46 56 46C56.5523 46 57 45.5224 57 44.9333V16.1333Z" fill="#167C80"/>
<path fill-rule="evenodd" clip-rule="evenodd" d="M54 23C54 22.4477 53.4883 22 52.8571 22H47.1429C46.5117 22 46 22.4477 46 23C46 23.5523 46.5117 24 47.1429 24H52.8571C53.4883 24 54 23.5523 54 23Z" fill="#167C80"/>
<path fill-rule="evenodd" clip-rule="evenodd" d="M54 19C54 18.4477 53.4883 18 52.8571 18H47.1429C46.5117 18 46 18.4477 46 19C46 19.5523 46.5117 20 47.1429 20H52.8571C53.4883 20 54 19.5523 54 19Z" fill="#167C80"/>
<path fill-rule="evenodd" clip-rule="evenodd" d="M54 27C54 26.4477 53.4883 26 52.8571 26H47.1429C46.5117 26 46 26.4477 46 27C46 27.5523 46.5117 28 47.1429 28H52.8571C53.4883 28 54 27.5523 54 27Z" fill="#167C80"/>
<path fill-rule="evenodd" clip-rule="evenodd" d="M54 31C54 30.4477 53.4883 30 52.8571 30H47.1429C46.5117 30 46 30.4477 46 31C46 31.5523 46.5117 32 47.1429 32H52.8571C53.4883 32 54 31.5523 54 31Z" fill="#167C80"/>
<path fill-rule="evenodd" clip-rule="evenodd" d="M54 35C54 34.4477 53.4883 34 52.8571 34H47.1429C46.5117 34 46 34.4477 46 35C46 35.5523 46.5117 36 47.1429 36H52.8571C53.4883 36 54 35.5523 54 35Z" fill="#167C80"/>
<path fill-rule="evenodd" clip-rule="evenodd" d="M40 10.5C40 9.94771 39.5523 9.5 39 9.5H32C31.4477 9.5 31 9.94771 31 10.5C31 11.0523 31.4477 11.5 32 11.5H39C39.5523 11.5 40 11.0523 40 10.5Z" fill="#167C80"/>
<path fill-rule="evenodd" clip-rule="evenodd" d="M29 10.5C29 9.94771 28.5523 9.5 28 9.5H21C20.4477 9.5 20 9.94771 20 10.5C20 11.0523 20.4477 11.5 21 11.5H28C28.5523 11.5 29 11.0523 29 10.5Z" fill="#167C80"/>
<path fill-rule="evenodd" clip-rule="evenodd" d="M40 6C40 5.44772 39.5523 5 39 5H32C31.4477 5 31 5.44772 31 6C31 6.55228 31.4477 7 32 7H39C39.5523 7 40 6.55228 40 6Z" fill="#167C80"/>
<path fill-rule="evenodd" clip-rule="evenodd" d="M29 6C29 5.44772 28.5523 5 28 5H21C20.4477 5 20 5.44772 20 6C20 6.55228 20.4477 7 21 7H28C28.5523 7 29 6.55228 29 6Z" fill="#167C80"/>
<path fill-rule="evenodd" clip-rule="evenodd" d="M40 15C40 14.4477 39.5523 14 39 14H32C31.4477 14 31 14.4477 31 15C31 15.5523 31.4477 16 32 16H39C39.5523 16 40 15.5523 40 15Z" fill="#167C80"/>
<path fill-rule="evenodd" clip-rule="evenodd" d="M29 15C29 14.4477 28.5523 14 28 14H21C20.4477 14 20 14.4477 20 15C20 15.5523 20.4477 16 21 16H28C28.5523 16 29 15.5523 29 15Z" fill="#167C80"/>
<path fill-rule="evenodd" clip-rule="evenodd" d="M40 19.5C40 18.9477 39.5523 18.5 39 18.5H32C31.4477 18.5 31 18.9477 31 19.5C31 20.0523 31.4477 20.5 32 20.5H39C39.5523 20.5 40 20.0523 40 19.5Z" fill="#167C80"/>
<path fill-rule="evenodd" clip-rule="evenodd" d="M29 19.5C29 18.9477 28.5523 18.5 28 18.5H21C20.4477 18.5 20 18.9477 20 19.5C20 20.0523 20.4477 20.5 21 20.5H28C28.5523 20.5 29 20.0523 29 19.5Z" fill="#167C80"/>
<path fill-rule="evenodd" clip-rule="evenodd" d="M40 24C40 23.4477 39.5523 23 39 23H32C31.4477 23 31 23.4477 31 24C31 24.5523 31.4477 25 32 25H39C39.5523 25 40 24.5523 40 24Z" fill="#167C80"/>
<path fill-rule="evenodd" clip-rule="evenodd" d="M29 24C29 23.4477 28.5523 23 28 23H21C20.4477 23 20 23.4477 20 24C20 24.5523 20.4477 25 21 25H28C28.5523 25 29 24.5523 29 24Z" fill="#167C80"/>
<path fill-rule="evenodd" clip-rule="evenodd" d="M40 28.5C40 27.9477 39.5523 27.5 39 27.5H32C31.4477 27.5 31 27.9477 31 28.5C31 29.0523 31.4477 29.5 32 29.5H39C39.5523 29.5 40 29.0523 40 28.5Z" fill="#167C80"/>
<path fill-rule="evenodd" clip-rule="evenodd" d="M29 28.5C29 27.9477 28.5523 27.5 28 27.5H21C20.4477 27.5 20 27.9477 20 28.5C20 29.0523 20.4477 29.5 21 29.5H28C28.5523 29.5 29 29.0523 29 28.5Z" fill="#167C80"/>
<path fill-rule="evenodd" clip-rule="evenodd" d="M25 35C25 33.8954 25.8954 33 27 33H33C34.1046 33 35 33.8954 35 35V46H25V35ZM33 35H27V44H33V35Z" fill="#167C80"/>
<path fill-rule="evenodd" clip-rule="evenodd" d="M15 2.04445C15 0.91533 15.8665 0 16.9355 0H43.0645C44.1334 0 45 0.915328 45 2.04444V46H15V2.04445ZM43.0645 2.04444L16.9355 2.04445V43.9556H43.0645V2.04444Z" fill="#167C80"/>
</svg>
