<svg width="68" height="69" viewBox="0 0 68 69" fill="none" xmlns="http://www.w3.org/2000/svg">
<path d="M53.9879 23.1667C58.7273 23.1667 62.6425 19.2515 62.6425 14.5121C62.6425 9.77274 58.7273 5.85759 53.9879 5.85759C49.2485 5.85759 45.3334 9.77274 45.3334 14.5121C45.3334 19.2515 49.2485 23.1667 53.9879 23.1667ZM53.9879 7.91819C57.594 7.91819 60.5818 10.9061 60.5818 14.5121C60.5818 18.1182 57.594 21.1061 53.9879 21.1061C50.3818 21.1061 47.394 18.1182 47.394 14.5121C47.394 10.9061 50.3818 7.91819 53.9879 7.91819Z" fill="#167C80"/>
<path d="M53.9878 4.20909C54.606 4.20909 55.0181 3.79697 55.0181 3.17879V1.5303C55.0181 0.912121 54.606 0.5 53.9878 0.5C53.3696 0.5 52.9575 0.912121 52.9575 1.5303V3.17879C52.9575 3.79697 53.4727 4.20909 53.9878 4.20909Z" fill="#167C80"/>
<path d="M52.9575 25.7424V27.3909C52.9575 28.0091 53.3696 28.4212 53.9878 28.4212C54.606 28.4212 55.0181 28.0091 55.0181 27.3909V25.7424C55.0181 25.1242 54.606 24.7121 53.9878 24.7121C53.4727 24.7121 52.9575 25.2273 52.9575 25.7424Z" fill="#167C80"/>
<path d="M65.3211 15.5424H66.9696C67.5878 15.5424 67.9999 15.1303 67.9999 14.5121C67.9999 13.8939 67.5878 13.4818 66.9696 13.4818H65.3211C64.703 13.4818 64.2908 13.8939 64.2908 14.5121C64.2908 15.0273 64.703 15.5424 65.3211 15.5424Z" fill="#167C80"/>
<path d="M41.0059 15.5424H42.6544C43.2726 15.5424 43.6847 15.1303 43.6847 14.5121C43.6847 13.8939 43.2726 13.4818 42.6544 13.4818H41.0059C40.3877 13.4818 39.9756 13.8939 39.9756 14.5121C39.9756 15.0273 40.4907 15.5424 41.0059 15.5424Z" fill="#167C80"/>
<path d="M62.7457 7.19698L63.879 6.06365C64.2911 5.65153 64.2911 5.03335 63.879 4.62122C63.4669 4.2091 62.8487 4.2091 62.4366 4.62122L61.3033 5.75456C60.8911 6.16668 60.8911 6.78486 61.3033 7.19698C61.6124 7.6091 62.3336 7.6091 62.7457 7.19698Z" fill="#167C80"/>
<path d="M45.5394 24.403L46.6728 23.2697C47.0849 22.8576 47.0849 22.2394 46.6728 21.8273C46.2606 21.4151 45.6425 21.4151 45.2303 21.8273L44.097 22.9606C43.6849 23.3727 43.6849 23.9909 44.097 24.403C44.5091 24.8151 45.1273 24.8151 45.5394 24.403Z" fill="#167C80"/>
<path d="M62.7457 21.7242C62.3336 21.3121 61.7154 21.3121 61.3033 21.7242C60.8911 22.1363 60.8911 22.7545 61.3033 23.1666L62.4366 24.3C62.8487 24.7121 63.4669 24.7121 63.879 24.3C64.2911 23.8879 64.2911 23.2697 63.879 22.8576L62.7457 21.7242Z" fill="#167C80"/>
<path d="M45.2303 7.19698C45.6425 7.6091 46.2606 7.6091 46.6728 7.19698C47.0849 6.78486 47.0849 6.16668 46.6728 5.75456L45.5394 4.62122C45.1273 4.2091 44.5091 4.2091 44.097 4.62122C43.6849 5.03335 43.6849 5.65153 44.097 6.06365L45.2303 7.19698Z" fill="#167C80"/>
<path fill-rule="evenodd" clip-rule="evenodd" d="M0 63.2755C0 62.6985 0.461282 62.2307 1.0303 62.2307H66.9697C67.5387 62.2307 68 62.6985 68 63.2755V67.4551C68 68.0321 67.5387 68.4999 66.9697 68.4999H1.0303C0.461282 68.4999 0 68.0321 0 67.4551V63.2755ZM2.06061 64.3204V66.4102H65.9394V64.3204H2.06061Z" fill="#167C80"/>
<path fill-rule="evenodd" clip-rule="evenodd" d="M61.1313 39.9399C61.5055 39.9399 61.8502 40.1457 62.032 40.4774L65.4663 46.7466C65.5513 46.9019 65.596 47.0765 65.596 47.2541V63.2755C65.596 63.8526 65.1347 64.3204 64.5657 64.3204H57.697C57.1279 64.3204 56.6667 63.8526 56.6667 63.2755V47.2541C56.6667 47.0765 56.7113 46.9019 56.7963 46.7466L60.2307 40.4774C60.4124 40.1457 60.7571 39.9399 61.1313 39.9399ZM58.7273 47.5248V62.2307H63.5353V47.5248L61.1313 43.1364L58.7273 47.5248Z" fill="#167C80"/>
<path fill-rule="evenodd" clip-rule="evenodd" d="M48.0808 39.9399C48.455 39.9399 48.7997 40.1457 48.9814 40.4774L52.4158 46.7466C52.5008 46.9019 52.5454 47.0765 52.5454 47.2541V63.2755C52.5454 63.8526 52.0842 64.3204 51.5151 64.3204H44.6465C44.0774 64.3204 43.6162 63.8526 43.6162 63.2755V47.2541C43.6162 47.0765 43.6608 46.9019 43.7458 46.7466L47.1802 40.4774C47.3619 40.1457 47.7066 39.9399 48.0808 39.9399ZM45.6768 47.5248V62.2307H50.4848V47.5248L48.0808 43.1364L45.6768 47.5248Z" fill="#167C80"/>
<path fill-rule="evenodd" clip-rule="evenodd" d="M34.3434 39.9399C34.7176 39.9399 35.0624 40.1457 35.2441 40.4774L38.6784 46.7466C38.7635 46.9019 38.8081 47.0765 38.8081 47.2541V63.2755C38.8081 63.8526 38.3468 64.3204 37.7778 64.3204H30.9091C30.3401 64.3204 29.8788 63.8526 29.8788 63.2755V47.2541C29.8788 47.0765 29.9234 46.9019 30.0084 46.7466L33.4428 40.4774C33.6245 40.1457 33.9693 39.9399 34.3434 39.9399ZM31.9394 47.5248V62.2307H36.7475V47.5248L34.3434 43.1364L31.9394 47.5248Z" fill="#167C80"/>
<path fill-rule="evenodd" clip-rule="evenodd" d="M20.6061 39.9399C20.9802 39.9399 21.325 40.1457 21.5067 40.4774L24.941 46.7466C25.0261 46.9019 25.0707 47.0765 25.0707 47.2541V63.2755C25.0707 63.8526 24.6094 64.3204 24.0404 64.3204H17.1717C16.6027 64.3204 16.1414 63.8526 16.1414 63.2755V47.2541C16.1414 47.0765 16.186 46.9019 16.2711 46.7466L19.7054 40.4774C19.8871 40.1457 20.2319 39.9399 20.6061 39.9399ZM18.202 47.5248V62.2307H23.0101V47.5248L20.6061 43.1364L18.202 47.5248Z" fill="#167C80"/>
<path fill-rule="evenodd" clip-rule="evenodd" d="M6.86869 39.9399C7.24286 39.9399 7.58762 40.1457 7.76933 40.4774L11.2037 46.7466C11.2887 46.9019 11.3333 47.0765 11.3333 47.2541V63.2755C11.3333 63.8526 10.872 64.3204 10.303 64.3204H3.43434C2.86532 64.3204 2.40404 63.8526 2.40404 63.2755V47.2541C2.40404 47.0765 2.44866 46.9019 2.5337 46.7466L5.96804 40.4774C6.14975 40.1457 6.49451 39.9399 6.86869 39.9399ZM4.46465 47.5248V62.2307H9.27273V47.5248L6.86869 43.1364L4.46465 47.5248Z" fill="#167C80"/>
<path fill-rule="evenodd" clip-rule="evenodd" d="M57.697 51.0853H50.8283V48.9955H57.697V51.0853Z" fill="#167C80"/>
<path fill-rule="evenodd" clip-rule="evenodd" d="M44.6465 51.0853H37.7778V48.9955H44.6465V51.0853Z" fill="#167C80"/>
<path fill-rule="evenodd" clip-rule="evenodd" d="M30.9091 51.0853H24.0404V48.9955H30.9091V51.0853Z" fill="#167C80"/>
<path fill-rule="evenodd" clip-rule="evenodd" d="M17.1717 51.0853H10.303V48.9955H17.1717V51.0853Z" fill="#167C80"/>
<path fill-rule="evenodd" clip-rule="evenodd" d="M57.697 58.7477H50.8283V56.658H57.697V58.7477Z" fill="#167C80"/>
<path fill-rule="evenodd" clip-rule="evenodd" d="M44.6465 58.7477H37.7778V56.658H44.6465V58.7477Z" fill="#167C80"/>
<path fill-rule="evenodd" clip-rule="evenodd" d="M30.9091 58.7477H24.0404V56.658H30.9091V58.7477Z" fill="#167C80"/>
<path fill-rule="evenodd" clip-rule="evenodd" d="M17.1717 58.7477H10.303V56.658H17.1717V58.7477Z" fill="#167C80"/>
</svg>
