<svg width="87" height="86" viewBox="0 0 87 86" fill="none" xmlns="http://www.w3.org/2000/svg">
<path d="M57.8943 66H28.1071C25.8732 66 24.0566 64.1835 24.0566 61.9495V23.0505C24.0571 20.8166 25.8732 19 28.1071 19H51.2725C51.64 19 51.9911 19.1466 52.251 19.4037L61.5382 28.682C61.7981 28.9419 61.9419 29.293 61.9419 29.6605V61.9495C61.9419 64.1806 60.1254 66 57.8943 66ZM28.1071 21.7645C27.3993 21.7645 26.8217 22.3398 26.8217 23.05V61.9495C26.8217 62.6574 27.3993 63.235 28.1071 63.235H57.8915C58.588 63.235 59.1769 62.6461 59.1769 61.9495V30.233L50.7005 21.7645H28.1071Z" fill="white"/>
<path d="M60.559 31.0433H51.2807C50.5174 31.0433 49.8984 30.4239 49.8984 29.661V20.3823C49.8984 19.8239 50.2359 19.3178 50.7529 19.1048C51.2671 18.8919 51.8644 19.008 52.2597 19.4033L61.538 28.682C61.9333 29.0773 62.0522 29.6719 61.8364 30.1889C61.6207 30.7059 61.1206 31.0433 60.559 31.0433ZM52.663 28.2783H57.222L52.663 23.7193V28.2783Z" fill="white"/>
<path d="M41.6389 45.9543V47.4896H44.3932V45.7076C44.3932 43.2402 49.5 41.5679 49.5 37.8668C49.5 34.5222 46.7458 32 43.016 32C39.2003 32 36.3886 34.6319 36.5034 38.141H39.2003C39.1429 36.0849 40.7495 34.5222 43.016 34.5222C45.1965 34.5222 46.8318 35.9204 46.8318 37.8668C46.8318 40.9099 41.6389 41.6775 41.6389 45.9543ZM43.1308 53C44.135 53 44.9957 52.1775 44.9957 51.1906C44.9957 50.2037 44.135 49.3812 43.1308 49.3812C42.098 49.3812 41.2373 50.2037 41.2373 51.1906C41.2373 52.1775 42.098 53 43.1308 53Z" fill="white"/>
</svg>
