<svg fill="none" height="40" viewBox="0 0 52 40" width="52" xmlns="http://www.w3.org/2000/svg"><g stroke="#167c80" stroke-width="2"><path d="m27 34v-17c0-.5523-.4477-1-1-1h-8c-.5523 0-1 .4477-1 1v17" stroke-miterlimit="10"/><path d="m1 10.7386c0-.439.28632-.8267.70591-.9558l18.55369-5.70884c.1578-.04855.3252-.05728.4871-.02542l29.4463 5.79271c.4689.09224.807.50335.807.98115v22.1776c0 .5523-.4477 1-1 1h-48c-.55229 0-1-.4477-1-1z" stroke-linejoin="round"/><rect height="5" rx="1" width="16" x="14" y="34"/><circle cx="37.5" cy="36.5" r="2.5"/><circle cx="8.5" cy="19.5" r="2.5"/><circle cx="43.5" cy="36.5" r="2.5"/><g stroke-linecap="round" stroke-miterlimit="10"><path d="m34 17h12"/><path d="m34 21h12"/></g></g></svg>