<svg width="60" height="55" viewBox="0 0 60 55" fill="none" xmlns="http://www.w3.org/2000/svg">
<path d="M5.65565 54.3848H35.771V52.3078H6.69411V2.46169H34.7326V10.7694C34.7326 11.0448 34.842 11.3089 35.0367 11.5037C35.2315 11.6984 35.4956 11.8078 35.771 11.8078H44.0787V23.2309H46.1557V10.7694C46.1557 10.7465 46.1442 10.7268 46.1422 10.704C46.137 10.613 46.1192 10.5231 46.0892 10.4371C46.0778 10.4038 46.0695 10.3717 46.0549 10.3395C46.0047 10.2263 45.9343 10.1232 45.8472 10.0352L38.2779 2.46169H48.2326V23.2309H50.3095V2.46169H52.3864V23.2309H54.4633V1.42323C54.4633 1.14781 54.3539 0.883673 54.1592 0.688924C53.9644 0.494175 53.7003 0.384766 53.4249 0.384766H5.65565C5.38023 0.384766 5.1161 0.494175 4.92135 0.688924C4.7266 0.883673 4.61719 1.14781 4.61719 1.42323V53.3463C4.61719 53.6217 4.7266 53.8859 4.92135 54.0806C5.1161 54.2754 5.38023 54.3848 5.65565 54.3848ZM36.8095 9.73092V3.93007L42.6103 9.73092H36.8095Z" fill="#167C80"/>
<path d="M36.8092 38.8087V28.3649L38.342 29.3089C38.4993 29.4057 38.6797 29.4588 38.8644 29.4626C39.0492 29.4665 39.2316 29.421 39.3929 29.3308C39.5541 29.2407 39.6884 29.1091 39.7819 28.9497C39.8754 28.7903 39.9246 28.6089 39.9246 28.4241V24.2703C39.9246 24.0929 39.8792 23.9184 39.7927 23.7635C39.7062 23.6086 39.5814 23.4785 39.4303 23.3855L35.7707 21.1341V15.9626C35.7707 15.6872 35.6613 15.423 35.4666 15.2283C35.2718 15.0335 35.0077 14.9241 34.7323 14.9241H30.5784C30.303 14.9241 30.0389 15.0335 29.8441 15.2283C29.6494 15.423 29.54 15.6872 29.54 15.9626V17.3001L25.9303 15.0778C25.7666 14.9771 25.5783 14.9238 25.3861 14.9238C25.194 14.9238 25.0056 14.9771 24.842 15.0778L11.342 23.3855C11.1909 23.4785 11.0661 23.6086 10.9795 23.7635C10.893 23.9184 10.8476 24.0929 10.8477 24.2703V28.4241C10.8476 28.6089 10.8969 28.7903 10.9903 28.9497C11.0838 29.1091 11.2181 29.2407 11.3794 29.3308C11.5407 29.421 11.7231 29.4665 11.9078 29.4626C12.0925 29.4588 12.2729 29.4057 12.4303 29.3089L13.963 28.3649V38.8087C13.963 39.0841 14.0725 39.3483 14.2672 39.543C14.4619 39.7378 14.7261 39.8472 15.0015 39.8472H35.7707C36.0462 39.8472 36.3103 39.7378 36.505 39.543C36.6998 39.3483 36.8092 39.0841 36.8092 38.8087ZM31.6169 17.001H33.6938V19.8558L31.6169 18.5774V17.001ZM12.9246 24.8508L25.3861 17.1817L37.8477 24.8508V26.5653L25.9303 19.2317C25.7666 19.131 25.5783 19.0777 25.3861 19.0777C25.194 19.0777 25.0056 19.131 24.842 19.2317L12.9246 26.5653V24.8508ZM23.3092 37.7703V31.5395H27.463V37.7703H23.3092ZM29.54 37.7703V30.501C29.54 30.2256 29.4306 29.9615 29.2358 29.7667C29.0411 29.572 28.7769 29.4626 28.5015 29.4626H22.2707C21.9953 29.4626 21.7312 29.572 21.5364 29.7667C21.3417 29.9615 21.2323 30.2256 21.2323 30.501V37.7703H16.04V27.0866L25.3861 21.3356L34.7323 27.0866V37.7703H29.54Z" fill="#167C80"/>
<path d="M24.3477 5.57617H10.8477V7.65309H24.3477V5.57617Z" fill="#167C80"/>
<path d="M32.6553 9.73047H10.8477V11.8074H32.6553V9.73047Z" fill="#167C80"/>
<path d="M35.7707 41.9238H10.8477V44.0008H35.7707V41.9238Z" fill="#167C80"/>
<path d="M17.0784 46.0762H10.8477V48.1531H17.0784V46.0762Z" fill="#167C80"/>
<path d="M50.7258 39.1973H45.7412C45.0802 39.1973 44.4462 38.9306 43.9788 38.4559C43.5114 37.9812 43.2489 37.3373 43.2489 36.666C43.2489 35.9947 43.5114 35.3509 43.9788 34.8761C44.4462 34.4014 45.0802 34.1348 45.7412 34.1348H54.8796V30.7598H49.895V27.3848H46.5719V30.7598H45.7412C44.1988 30.7598 42.7197 31.382 41.6291 32.4897C40.5385 33.5973 39.9258 35.0996 39.9258 36.666C39.9258 38.2324 40.5385 39.7347 41.6291 40.8424C42.7197 41.95 44.1988 42.5723 45.7412 42.5723H50.7258C51.3868 42.5723 52.0207 42.8389 52.4881 43.3136C52.9555 43.7883 53.2181 44.4322 53.2181 45.1035C53.2181 45.7748 52.9555 46.4187 52.4881 46.8934C52.0207 47.3681 51.3868 47.6348 50.7258 47.6348H41.5873V51.0098H46.5719V54.3848H49.895V51.0098H50.7258C52.2681 51.0098 53.7473 50.3875 54.8379 49.2799C55.9285 48.1722 56.5412 46.6699 56.5412 45.1035C56.5412 43.5371 55.9285 42.0348 54.8379 40.9272C53.7473 39.8195 52.2681 39.1973 50.7258 39.1973Z" fill="#167C80"/>
<path d="M35.7716 46.0762H19.1562V48.1531H35.7716V46.0762Z" fill="#167C80"/>
<path d="M32.6566 5.57617H26.4258V7.65309H32.6566V5.57617Z" fill="#167C80"/>
</svg>
