<svg width="64" height="53" viewBox="0 0 64 53" fill="none" xmlns="http://www.w3.org/2000/svg">
<path d="M1.001 12.7292C0.688 12.7292 0.38 12.5918 0.185 12.3331C-0.134 11.9098 -0.029 11.3219 0.421 11.0218L15.921 0.674446C16.372 0.374372 16.996 0.473143 17.316 0.897386C17.635 1.32069 17.53 1.90861 17.08 2.20868L1.58 12.5561C1.403 12.6727 1.201 12.7292 1.001 12.7292Z" fill="#167C80"/>
<path d="M31.999 12.7291C31.799 12.7291 31.597 12.6727 31.421 12.5551L15.921 2.20768C15.471 1.90761 15.365 1.31969 15.685 0.896386C16.005 0.472143 16.628 0.373372 17.08 0.673447L32.58 11.0208C33.03 11.3209 33.136 11.9088 32.816 12.3321C32.62 12.5918 32.313 12.7291 31.999 12.7291Z" fill="#167C80"/>
<path d="M1.00093 16.4918C0.687934 16.4918 0.379933 16.3544 0.184933 16.0957C-0.134067 15.6724 -0.0290665 15.0845 0.420933 14.7844L15.9209 4.43705C16.3719 4.13698 16.9959 4.23575 17.3159 4.65999C17.6349 5.0833 17.5299 5.67122 17.0799 5.97129L1.57993 16.3187C1.40293 16.4353 1.20093 16.4918 1.00093 16.4918Z" fill="#167C80"/>
<path d="M31.9989 16.4918C31.7989 16.4918 31.5969 16.4353 31.4209 16.3178L15.9209 5.97037C15.4709 5.6703 15.3649 5.08238 15.6849 4.65907C16.0049 4.23483 16.6279 4.13606 17.0799 4.43614L32.5799 14.7835C33.0299 15.0836 33.1359 15.6715 32.8159 16.0948C32.6199 16.3545 32.3129 16.4918 31.9989 16.4918Z" fill="#167C80"/>
<path d="M1.00093 16.4918C0.447934 16.4918 0 16.0703 0 15.5511V11.7884C0 11.2692 0.447 10.8477 1 10.8477C1.553 10.8477 2 11.2692 2 11.7884V15.5511C2 16.0703 1.55393 16.4918 1.00093 16.4918Z" fill="#167C80"/>
<path d="M32 16.4918C31.447 16.4918 31 16.0703 31 15.5511V11.7884C31 11.2692 31.447 10.8477 32 10.8477C32.553 10.8477 33 11.2692 33 11.7884V15.5511C33 16.0703 32.553 16.4918 32 16.4918Z" fill="#167C80"/>
<path d="M32.001 12.7292C31.688 12.7292 31.38 12.5918 31.185 12.3331C30.866 11.9098 30.971 11.3219 31.421 11.0218L46.921 0.674446C47.372 0.374372 47.995 0.473143 48.316 0.897386C48.635 1.32069 48.53 1.90861 48.08 2.20868L32.58 12.5561C32.403 12.6727 32.201 12.7292 32.001 12.7292Z" fill="#167C80"/>
<path d="M62.999 12.7291C62.799 12.7291 62.597 12.6727 62.421 12.5551L46.921 2.20768C46.471 1.90761 46.365 1.31969 46.685 0.896386C47.005 0.472143 47.628 0.373372 48.08 0.673447L63.58 11.0208C64.03 11.3209 64.136 11.9088 63.816 12.3321C63.62 12.5918 63.313 12.7291 62.999 12.7291Z" fill="#167C80"/>
<path d="M32 16.4918C31.687 16.4918 31.3799 16.3544 31.1849 16.0957C30.8659 15.6724 30.9709 15.0845 31.4209 14.7844L46.9209 4.43705C47.3719 4.13698 47.9949 4.23575 48.3159 4.65999C48.6349 5.0833 48.5299 5.67122 48.0799 5.97129L32.5799 16.3187C32.4029 16.4353 32.2 16.4918 32 16.4918Z" fill="#167C80"/>
<path d="M62.9989 16.4918C62.7989 16.4918 62.5969 16.4353 62.4209 16.3178L46.9209 5.97037C46.4709 5.6703 46.3649 5.08238 46.6849 4.65907C47.0049 4.23483 47.6279 4.13606 48.0799 4.43614L63.5799 14.7835C64.0299 15.0836 64.1359 15.6715 63.8159 16.0948C63.6199 16.3545 63.3129 16.4918 62.9989 16.4918Z" fill="#167C80"/>
<path d="M32 53C31.447 53 31 52.5795 31 52.0593V11.7884C31 11.2692 31.447 10.8477 32 10.8477C32.553 10.8477 33 11.2692 33 11.7884V52.0593C33 52.5795 32.553 53 32 53Z" fill="#167C80"/>
<path d="M63 16.4918C62.447 16.4918 62 16.0703 62 15.5511V11.7884C62 11.2692 62.447 10.8477 63 10.8477C63.553 10.8477 64 11.2692 64 11.7884V15.5511C64 16.0703 63.553 16.4918 63 16.4918Z" fill="#167C80"/>
<path d="M63 53C62.447 53 62 52.5795 62 52.0593V15.5511C62 15.0318 62.447 14.6104 63 14.6104C63.553 14.6104 64 15.0318 64 15.5511V52.0593C64 52.5795 63.553 53 63 53Z" fill="#167C80"/>
<path d="M1 53C0.447 53 0 52.5795 0 52.0593V15.5511C0 15.0318 0.447 14.6104 1 14.6104C1.553 14.6104 2 15.0318 2 15.5511V52.0593C2 52.5795 1.553 53 1 53Z" fill="#167C80"/>
<path d="M63 34.3645H1C0.447 34.3645 0 33.9441 0 33.4239C0 32.9037 0.447 32.4832 1 32.4832H63C63.553 32.4832 64 32.9037 64 33.4239C64 33.9441 63.553 34.3645 63 34.3645Z" fill="#167C80"/>
<path d="M63 53H1C0.447 53 0 52.5795 0 52.0593C0 51.5391 0.447 51.1187 1 51.1187H63C63.553 51.1187 64 51.5391 64 52.0593C64 52.5795 63.553 53 63 53Z" fill="#167C80"/>
<path fill-rule="evenodd" clip-rule="evenodd" d="M12 38.5C12 37.9477 12.4477 37.5 13 37.5H21C21.5523 37.5 22 37.9477 22 38.5V51.5C22 52.0523 21.5523 52.5 21 52.5H13C12.4477 52.5 12 52.0523 12 51.5V38.5ZM14 39.5V51.5H20V39.5H14Z" fill="#167C80"/>
<path fill-rule="evenodd" clip-rule="evenodd" d="M43 38.5C43 37.9477 43.4477 37.5 44 37.5H52C52.5523 37.5 53 37.9477 53 38.5V51.5C53 52.0523 52.5523 52.5 52 52.5H44C43.4477 52.5 43 52.0523 43 51.5V38.5ZM45 39.5V51.5H51V39.5H45Z" fill="#167C80"/>
<path fill-rule="evenodd" clip-rule="evenodd" d="M48 14.5C46.8954 14.5 46 15.3954 46 16.5C46 17.6046 46.8954 18.5 48 18.5C49.1046 18.5 50 17.6046 50 16.5C50 15.3954 49.1046 14.5 48 14.5ZM44 16.5C44 14.2909 45.7909 12.5 48 12.5C50.2091 12.5 52 14.2909 52 16.5C52 18.7091 50.2091 20.5 48 20.5C45.7909 20.5 44 18.7091 44 16.5Z" fill="#167C80"/>
<path fill-rule="evenodd" clip-rule="evenodd" d="M17 14.5C15.8954 14.5 15 15.3954 15 16.5C15 17.6046 15.8954 18.5 17 18.5C18.1046 18.5 19 17.6046 19 16.5C19 15.3954 18.1046 14.5 17 14.5ZM13 16.5C13 14.2909 14.7909 12.5 17 12.5C19.2091 12.5 21 14.2909 21 16.5C21 18.7091 19.2091 20.5 17 20.5C14.7909 20.5 13 18.7091 13 16.5Z" fill="#167C80"/>
<path fill-rule="evenodd" clip-rule="evenodd" d="M42 24C42 23.4477 42.4477 23 43 23H54C54.5523 23 55 23.4477 55 24C55 24.5523 54.5523 25 54 25H43C42.4477 25 42 24.5523 42 24Z" fill="#167C80"/>
<path fill-rule="evenodd" clip-rule="evenodd" d="M42 28C42 27.4477 42.4477 27 43 27H54C54.5523 27 55 27.4477 55 28C55 28.5523 54.5523 29 54 29H43C42.4477 29 42 28.5523 42 28Z" fill="#167C80"/>
<path fill-rule="evenodd" clip-rule="evenodd" d="M10.5 24C10.5 23.4477 10.9477 23 11.5 23H22.5C23.0523 23 23.5 23.4477 23.5 24C23.5 24.5523 23.0523 25 22.5 25H11.5C10.9477 25 10.5 24.5523 10.5 24Z" fill="#167C80"/>
<path fill-rule="evenodd" clip-rule="evenodd" d="M10.5 28C10.5 27.4477 10.9477 27 11.5 27H22.5C23.0523 27 23.5 27.4477 23.5 28C23.5 28.5523 23.0523 29 22.5 29H11.5C10.9477 29 10.5 28.5523 10.5 28Z" fill="#167C80"/>
</svg>
