<svg width="87" height="86" viewBox="0 0 87 86" fill="none" xmlns="http://www.w3.org/2000/svg">
<path fill-rule="evenodd" clip-rule="evenodd" d="M23.4927 21.0317H17.2144C15.2749 21.0317 13.6973 19.457 13.6973 17.522C13.6973 15.6772 15.1245 14.1602 16.9326 14.0161C17.6006 12.7993 18.9038 12 20.3272 12C21.7441 12 23.0366 12.7964 23.7012 14.0112C25.54 14.1196 27.0024 15.6528 27.0024 17.522C27.0024 19.457 25.4277 21.0317 23.4927 21.0317ZM17.4004 16.0176C17.3398 16.0063 17.2788 16.0049 17.2144 16.0049C16.3779 16.0049 15.6973 16.6856 15.6973 17.522C15.6973 18.3545 16.3779 19.0317 17.2144 19.0317H23.4927C24.3252 19.0317 25.0024 18.3545 25.0024 17.522C25.0024 16.6855 24.3252 16.0049 23.4927 16.0049C23.4106 16.0049 23.3379 16.0122 23.2627 16.0283C22.7495 16.1357 22.2427 15.8325 22.0962 15.3311C21.8628 14.5347 21.1519 14 20.3271 14C19.5103 14 18.7759 14.5439 18.541 15.3232C18.3931 15.812 17.8965 16.1094 17.4004 16.0176Z" fill="white"/>
<path fill-rule="evenodd" clip-rule="evenodd" d="M64.0439 30.1079C68.646 30.1079 72.3901 26.3638 72.3901 21.7617C72.3901 17.1592 68.646 13.415 64.0439 13.415C59.4351 13.415 55.6855 17.1592 55.6855 21.7617C55.6856 26.3638 59.4351 30.1079 64.0439 30.1079ZM64.0439 15.415C67.5435 15.415 70.3901 18.2622 70.3901 21.7617C70.3901 25.2612 67.5435 28.1079 64.0439 28.1079C60.5381 28.1079 57.6855 25.2612 57.6855 21.7617C57.6855 18.2622 60.5381 15.415 64.0439 15.415Z" fill="white"/>
<path fill-rule="evenodd" clip-rule="evenodd" d="M38.2085 25.7134H44.4868C46.4219 25.7134 47.9966 24.1387 47.9966 22.2036C47.9966 20.3345 46.5342 18.8008 44.6953 18.6929C44.0308 17.478 42.7383 16.6816 41.3213 16.6816C39.8979 16.6816 38.5952 17.481 37.9272 18.6978C36.1191 18.8413 34.6914 20.3589 34.6914 22.2036C34.6914 24.1387 36.269 25.7134 38.2085 25.7134ZM38.2085 20.6865C38.272 20.6865 38.3315 20.688 38.3911 20.6992C38.897 20.7954 39.3887 20.4961 39.5356 20.0049C39.7705 19.2261 40.5044 18.6816 41.3213 18.6816C42.146 18.6816 42.8569 19.2168 43.0903 20.0132C43.2373 20.5146 43.7475 20.8184 44.2568 20.7105C44.3335 20.6939 44.4062 20.6865 44.4868 20.6865C45.3193 20.6865 45.9966 21.3672 45.9966 22.2036C45.9966 23.0361 45.3193 23.7134 44.4868 23.7134H38.2085C37.3721 23.7134 36.6914 23.0361 36.6914 22.2036C36.6914 21.3672 37.3721 20.6865 38.2085 20.6865Z" fill="white"/>
<path fill-rule="evenodd" clip-rule="evenodd" d="M63.6743 67.8774C63.6743 69.5864 62.2812 70.9766 60.5688 70.9766C58.8638 70.9766 57.4766 69.5864 57.4766 67.8774C57.4766 66.1685 58.8638 64.7783 60.5688 64.7783C62.2812 64.7783 63.6743 66.1685 63.6743 67.8774ZM61.6743 67.8774C61.6743 67.2715 61.1782 66.7783 60.5688 66.7783C59.9668 66.7783 59.4766 67.2715 59.4766 67.8774C59.4766 68.4834 59.9668 68.9766 60.5688 68.9766C61.1782 68.9766 61.6743 68.4834 61.6743 67.8774Z" fill="white"/>
<path fill-rule="evenodd" clip-rule="evenodd" d="M29.523 67.8774C29.523 69.5864 28.1299 70.9766 26.4175 70.9766C24.7124 70.9766 23.3252 69.5864 23.3252 67.8774C23.3252 66.1685 24.7124 64.7783 26.4175 64.7783C28.1299 64.7783 29.523 66.1685 29.523 67.8774ZM27.523 67.8774C27.523 67.2715 27.0269 66.7783 26.4175 66.7783C25.8154 66.7783 25.3252 67.2715 25.3252 67.8774C25.3252 68.4834 25.8154 68.9766 26.4175 68.9766C27.0269 68.9766 27.523 68.4834 27.523 67.8774Z" fill="white"/>
<path fill-rule="evenodd" clip-rule="evenodd" d="M74.5 74.9038H12.5C11.9478 74.9038 11.5 74.4561 11.5 73.9038C11.5 73.3516 11.9478 72.9038 12.5 72.9038H22.5929C21.3303 71.9389 20.4432 70.5123 20.1823 68.8755H18.9619C15.9136 68.8755 13.4336 66.3999 13.4336 63.3569V55.3975C13.4336 55.3832 13.4335 55.3704 13.4338 55.3576C13.4387 55.117 13.5719 54.879 16.8887 44.8086C17.4624 43.0742 19.0762 41.9092 20.9033 41.9092H23.3091V40.0273H21.0054C18.3174 40.0273 16.1304 37.8403 16.1304 35.1523C16.1304 32.4906 18.2841 30.2773 21.0054 30.2773H47.2715C49.9595 30.2773 52.1465 32.4644 52.1465 35.1523C52.1465 37.8403 49.9595 40.0273 47.2715 40.0273H44.9683V41.9092H47.1011C48.2295 41.9092 49.291 42.3482 50.0894 43.1455L61.3575 54.3975H68.0401C71.083 54.3975 73.5586 56.8731 73.5586 59.916V67.8755C73.5586 68.4277 73.1109 68.8755 72.5586 68.8755H66.817C66.5555 70.5123 65.6667 71.9389 64.4015 72.9038H74.5C75.0523 72.9038 75.5 73.3516 75.5 73.9038C75.5 74.4561 75.0523 74.9038 74.5 74.9038ZM64.9023 67.8755C64.9023 65.4907 62.958 63.5508 60.5679 63.5508C58.3152 63.5508 56.2476 65.4199 56.2476 67.877C56.2476 70.2637 58.1865 72.2051 60.5693 72.2051C62.9581 72.2051 64.9012 70.2657 64.9034 67.8808L64.9029 67.8782L64.9023 67.8755ZM60.5693 61.5488C63.6521 61.5488 66.3313 63.8173 66.8232 66.8755H71.5586V62.2383H67.5146C66.9624 62.2383 66.5146 61.7905 66.5146 61.2383V56.3975H41.165V66.8755H54.3223C54.7942 63.9024 57.4289 61.5488 60.5693 61.5488ZM68.5146 60.2383H71.5586C71.4943 58.2528 70.6288 56.8027 68.6404 56.4581C68.6176 56.4542 68.5941 56.4524 68.5706 56.4507C68.5518 56.4493 68.5331 56.448 68.5146 56.4454V60.2383ZM58.5229 54.3931L48.6763 44.5606C48.2554 44.1406 47.6958 43.9092 47.1011 43.9092H41.165V54.3931H58.5229ZM47.2715 32.2773H21.0054C19.796 32.2773 18.7436 33.0155 18.3185 34.1523H49.957C49.5489 33.0606 48.504 32.2773 47.2715 32.2773ZM49.957 36.1523H18.3199C18.728 37.2441 19.7729 38.0273 21.0054 38.0273H47.2715C48.504 38.0273 49.5489 37.2441 49.957 36.1523ZM42.9683 40.0273H25.3091V41.9092H42.9683V40.0273ZM20.9033 43.9092C19.9399 43.9092 19.0898 44.5234 18.7871 45.4375L15.8218 54.3931H39.165V43.9092H20.9033ZM15.4336 62.8223V63.3569C15.4336 65.2969 17.0166 66.8755 18.9619 66.8755H20.1782C20.67 63.817 23.3325 61.5488 26.4175 61.5488C29.5231 61.5488 32.189 63.8436 32.6699 66.8755H39.165V56.3975H15.4336V57.23H18.4624C19.0147 57.23 19.4624 57.6777 19.4624 58.23C19.4624 58.7822 19.0147 59.23 18.4624 59.23H15.4336V60.8223H18.4624C19.0147 60.8223 19.4624 61.27 19.4624 61.8223C19.4624 62.3745 19.0147 62.8223 18.4624 62.8223H15.4336ZM26.415 63.5508C24.0352 63.5508 22.0991 65.4907 22.0991 67.8755C22.0991 67.8796 22.0968 67.8831 22.0967 67.8873C22.1025 70.2691 24.0382 72.2051 26.4175 72.2051C28.8046 72.2051 30.7462 70.2683 30.7511 67.8856L30.7501 67.8806L30.749 67.8755C30.749 65.4907 28.8047 63.5508 26.415 63.5508ZM54.3342 68.8755H32.6652C32.4037 70.5123 31.5148 71.9389 30.2496 72.9038H56.7448C55.4821 71.9389 54.5951 70.5123 54.3342 68.8755Z" fill="white"/>
</svg>
