<svg width="32" height="32" viewBox="0 0 32 32" fill="none" xmlns="http://www.w3.org/2000/svg">
<path d="M24.9844 9.19569L24.3404 8.46954C24.7131 7.79512 24.7192 6.97492 24.4141 6.26601L25.3318 4.86814C25.6989 4.30899 25.8327 3.65708 25.6942 3.01443C25.5557 2.37178 25.1986 1.79891 24.6506 1.42434C24.1026 1.04978 23.4637 0.91327 22.8339 1.05458C22.204 1.19589 21.6426 1.56025 21.2755 2.1194L20.3578 3.51727C20.1651 3.51903 19.9725 3.52079 19.8002 3.56981C19.1704 3.71112 18.609 4.07548 18.2419 4.63463L7.16975 21.4639C5.79964 23.5437 5.35715 26.1098 5.96306 28.5444L5.1306 29.8195C4.88775 30.1538 4.99854 30.6679 5.3392 30.8817C5.40586 30.9082 5.43919 30.9215 5.50585 30.948C5.83915 31.0805 6.19671 30.9484 6.41358 30.6821L7.24604 29.407C9.65409 29.0326 11.8276 27.6639 13.2107 25.5501L23.5616 9.80515L23.9373 10.2287C24.474 10.8339 24.542 11.7618 24.0896 12.4438L20.91 17.2513C20.6671 17.5856 20.7779 18.0997 21.1186 18.3135C21.1852 18.34 21.2186 18.3533 21.2852 18.3798C21.6185 18.5123 21.9761 18.3803 22.193 18.1139L25.2596 13.3007C26.092 12.0256 25.9709 10.3322 24.9844 9.19569ZM23.0996 2.57043C23.3515 2.51391 23.5978 2.57266 23.8052 2.73344C24.0255 2.86021 24.1605 3.10977 24.1956 3.31957C24.251 3.57663 24.1934 3.82794 24.0358 4.0395L23.3146 5.12379L21.7576 4.07385L22.4788 2.98956C22.6364 2.778 22.8477 2.62696 23.0996 2.57043ZM19.5045 5.45002C19.6288 5.22521 19.8733 5.08742 20.0789 5.05165C20.2512 5.00263 20.4309 5.03488 20.5975 5.10114C20.6642 5.12765 20.7308 5.15415 20.7845 5.21466L22.7025 6.52565C22.9228 6.65242 23.0579 6.90197 23.0929 7.11177C23.1483 7.36883 23.0907 7.62014 22.9331 7.8317L19.4198 13.2116L15.9448 10.8507L19.5045 5.45002ZM7.3119 27.8271C7.11629 26.7309 7.17261 25.5781 7.46224 24.5181L10.2689 26.4174C9.39791 27.0896 8.39927 27.5935 7.3119 27.8271ZM11.8814 24.7082C11.7238 24.9198 11.5329 25.1181 11.3753 25.3296L8.0207 23.0557C8.14494 22.8309 8.24884 22.5588 8.40641 22.3473L15.0994 12.1598L18.5743 14.5207L11.8814 24.7082Z" fill="#167C80"/>
<path d="M18.5305 28.508C18.9869 28.0565 19.673 27.3779 20.9953 27.3779C22.3187 27.3779 23.0191 28.0601 23.4641 28.5166C23.8631 28.911 23.9579 28.9706 24.2047 28.9706C24.4516 28.9706 24.5464 28.911 24.9454 28.5191C25.0415 28.4123 25.1619 28.3236 25.2991 28.2585C25.4363 28.1934 25.5875 28.1532 25.7434 28.1404C25.8992 28.1277 26.0565 28.1426 26.2054 28.1843C26.3544 28.2259 26.4919 28.2935 26.6095 28.3828C26.7271 28.4721 26.8224 28.5812 26.8894 28.7035C26.9564 28.8257 26.9938 28.9585 26.9993 29.0938C27.0048 29.229 26.9782 29.3637 26.9212 29.4897C26.8642 29.6157 26.7779 29.7303 26.6678 29.8265L26.6657 29.8285C26.2093 30.2776 25.5204 30.9553 24.2019 30.9553C22.8814 30.9553 22.1895 30.2755 21.7331 29.824C21.3341 29.4295 21.2365 29.37 20.9924 29.37C20.7484 29.37 20.6537 29.4295 20.2547 29.824C19.7982 30.2755 19.1093 30.9553 17.7888 30.9553C16.4682 30.9553 15.7764 30.2755 15.32 29.824C14.9238 29.4295 14.8262 29.37 14.5822 29.37C14.3382 29.37 14.2435 29.4295 13.8444 29.824L13.7985 29.8687L13.7641 29.8984C13.6574 29.9907 13.5308 30.0639 13.3914 30.1138C13.252 30.1638 13.1025 30.1895 12.9516 30.1895C12.8007 30.1895 12.6513 30.1638 12.5119 30.1138C12.3725 30.0639 12.2459 29.9907 12.1392 29.8984C12.0307 29.8061 11.9446 29.696 11.8858 29.5746C11.827 29.4533 11.7967 29.323 11.7967 29.1914C11.7967 29.0598 11.827 28.9295 11.8858 28.8081C11.9446 28.6867 12.0307 28.5767 12.1392 28.4843L12.1412 28.4824C12.5976 28.0334 13.2665 27.3754 14.5851 27.3754C15.9056 27.3754 16.5974 28.0551 17.0539 28.5067C17.45 28.9011 17.5476 28.9607 17.7916 28.9607C18.0356 28.9607 18.1304 28.9036 18.5294 28.5091L18.5305 28.508Z" fill="#167C80"/>
</svg>
