<svg width="74" height="51" viewBox="0 0 74 51" fill="none" xmlns="http://www.w3.org/2000/svg">
<path d="M65.9997 22.4766C66.5996 22.4766 67 22.0854 67 21.4976V15.8212C67 15.2341 66.6003 14.8423 65.9997 14.8423H61.8996V9.16586C61.8996 8.87231 61.7998 8.67637 61.5996 8.48044L56.4999 3.29338C56.1002 2.90221 55.3998 2.90221 55.0999 3.29338L50.0001 8.57936C49.7999 8.77529 49.7002 8.97054 49.7002 9.26478V14.9412H43.1001V9.26478C43.1001 8.97122 43.0003 8.77529 42.8001 8.57936L37.7003 3.3923C37.3006 3.00112 36.6003 3.00112 36.3004 3.3923L31.2006 8.57936C31.0004 8.77529 30.9007 8.97054 30.9007 9.26478V14.9412H24.3005V9.26478C24.3005 8.97122 24.2008 8.77529 24.0006 8.57936L18.9008 3.3923C18.5011 3.00112 17.8008 3.00112 17.5009 3.3923L12.4011 8.57936C12.2009 8.77529 12.1011 8.97054 12.1011 9.26478V14.9412L8.00028 14.9405C7.40039 14.9405 7 15.3317 7 15.9195V21.5959C7 22.183 7.39969 22.5748 8.00028 22.5748H12.1004V28.5449L8.00028 28.5442C7.40039 28.5442 7 28.9354 7 29.5231V35.1996C7 35.7867 7.39969 36.1785 8.00028 36.1785H12.1004V48.021C12.1004 48.6081 12.5001 49 13.1007 49H23.3008C23.9007 49 24.3011 48.6088 24.3011 48.021L24.2997 36.0803H30.8998V47.9228C30.8998 48.5099 31.2995 48.9018 31.9001 48.9018H42.1002C42.7001 48.9018 43.1004 48.5106 43.1004 47.9228L43.0998 36.0803H49.6999V47.9228C49.6999 48.5099 50.0996 48.9018 50.7002 48.9018H60.9002C61.5001 48.9018 61.9005 48.5106 61.9005 47.9228L61.8998 36.0803H65.9993C66.5992 36.0803 66.9995 35.6891 66.9995 35.1013V29.4249C66.9995 28.8378 66.5998 28.446 65.9993 28.446H61.8991V22.4759L65.9997 22.4766ZM61.9003 16.8002H65.0001V20.5194H61.9003V16.8002ZM12.1007 34.1232H9.00091V30.404H12.1007V34.1232ZM12.1007 20.5194H9.00091V16.8002H12.1007V20.5194ZM22.3008 47.0419H14.1005L14.1012 9.65594L18.2014 5.44792L22.3015 9.65594L22.3008 47.0419ZM30.9007 34.1236H24.3006V30.4044H30.9007V34.1236ZM30.9007 28.5447H24.3006V22.5747H30.9007V28.5447ZM30.9007 20.5198H24.3006V16.8006H30.9007V20.5198ZM41.1008 47.0423H32.9005V9.65629L37.0007 5.44757L41.1008 9.65559V47.0423ZM49.7008 34.1239H43.1006V30.4047H49.7008V34.1239ZM49.7008 28.545H43.1006V22.575H49.7008V28.545ZM49.7008 20.5201H43.1006V16.8009H49.7008V20.5201ZM59.9001 47.0426H51.6998L51.7005 9.65664L55.8007 5.44862L59.9008 9.65664L59.9001 47.0426ZM65.0004 30.5033V34.2225H61.9007V30.5033H65.0004Z" fill="#167C80"/>
</svg>
