<svg width="13" height="14" viewBox="0 0 13 14" fill="none" xmlns="http://www.w3.org/2000/svg">
<path fill-rule="evenodd" clip-rule="evenodd" d="M2.70703 3.83626C2.56337 3.83626 2.4256 3.89333 2.32402 3.99491C2.22243 4.0965 2.16536 4.23427 2.16536 4.37793V10.3363C2.16536 10.4799 2.22243 10.6177 2.32402 10.7193C2.4256 10.8209 2.56337 10.8779 2.70703 10.8779H8.66536C8.80902 10.8779 8.9468 10.8209 9.04838 10.7193C9.14996 10.6177 9.20703 10.4799 9.20703 10.3363V7.08626C9.20703 6.78711 9.44954 6.5446 9.7487 6.5446C10.0479 6.5446 10.2904 6.78711 10.2904 7.08626V10.3363C10.2904 10.7672 10.1192 11.1806 9.81441 11.4853C9.50967 11.7901 9.09634 11.9613 8.66536 11.9613H2.70703C2.27605 11.9613 1.86273 11.7901 1.55798 11.4853C1.25324 11.1806 1.08203 10.7672 1.08203 10.3363V4.37793C1.08203 3.94695 1.25324 3.53363 1.55798 3.22888C1.86273 2.92413 2.27605 2.75293 2.70703 2.75293H5.95703C6.25619 2.75293 6.4987 2.99544 6.4987 3.2946C6.4987 3.59375 6.25619 3.83626 5.95703 3.83626H2.70703Z" fill="#167C80"/>
<path fill-rule="evenodd" clip-rule="evenodd" d="M7.58203 1.6696C7.58203 1.37044 7.82454 1.12793 8.1237 1.12793H11.3737C11.6729 1.12793 11.9154 1.37044 11.9154 1.6696V4.9196C11.9154 5.21875 11.6729 5.46126 11.3737 5.46126C11.0745 5.46126 10.832 5.21875 10.832 4.9196V2.21126H8.1237C7.82454 2.21126 7.58203 1.96875 7.58203 1.6696Z" fill="#167C80"/>
<path fill-rule="evenodd" clip-rule="evenodd" d="M11.758 1.28658C11.9696 1.49811 11.9696 1.84108 11.758 2.05261L5.79968 8.01095C5.58815 8.22248 5.24518 8.22248 5.03365 8.01095C4.82212 7.79941 4.82212 7.45645 5.03365 7.24491L10.992 1.28658C11.2035 1.07505 11.5465 1.07505 11.758 1.28658Z" fill="#167C80"/>
</svg>
