<svg width="86" height="86" viewBox="0 0 86 86" fill="none" xmlns="http://www.w3.org/2000/svg">
<path d="M58.171 49.4793H50.7951C50.8681 49.1142 51.0142 48.749 51.0872 48.4569C51.4524 47.4345 51.4524 46.4121 51.1602 45.3166C50.649 43.4179 49.1154 41.8843 47.2167 41.4461C45.537 41.0809 43.8573 41.4461 42.5428 42.4685C41.2283 43.4909 40.498 45.0245 40.498 46.7042C40.498 47.2884 40.571 47.8727 40.7901 48.3839C40.9362 48.749 41.0092 49.1142 41.0822 49.4793H35.0208V41.4461C35.0208 41.0809 34.8747 40.7158 34.5826 40.4237C34.2905 40.2046 33.9254 40.0585 33.4872 40.1316C32.3187 40.3507 31.4424 40.5697 30.566 40.8619C29.3976 41.227 28.1561 40.8619 27.4988 39.9125C26.9876 39.2552 26.7685 38.3789 26.9876 37.4295C27.2067 36.4801 28.01 35.6768 28.9594 35.3847C29.5436 35.2386 30.1278 35.2386 30.566 35.3847C31.4424 35.6768 32.3917 35.8959 33.5602 36.115C33.9254 36.188 34.2905 36.0419 34.5826 35.8228C34.8747 35.6038 35.0208 35.2386 35.0208 34.8004V26.3291C35.0208 25.5988 34.4366 25.0145 33.7063 25.0145H9.31453C8.58423 25.0145 8 25.5988 8 26.3291V75.1856C8 75.9159 8.58423 76.5001 9.31453 76.5001H58.171C58.9013 76.5001 59.4856 75.9159 59.4856 75.1856V50.7938C59.4856 50.0635 58.9013 49.4793 58.171 49.4793ZM32.4648 27.6436V33.4129C32.0996 33.3399 31.7345 33.1938 31.4424 33.1208C30.42 32.7556 29.3976 32.7556 28.3021 33.0477C26.4034 33.5589 24.9428 35.0926 24.4316 36.9913C24.0664 38.671 24.4316 40.3507 25.454 41.6652C26.8415 43.4179 29.1785 44.1482 31.3693 43.4179C31.7345 43.2718 32.0266 43.1988 32.4648 43.1258V49.5523H24.7237C24.3585 49.5523 23.9934 49.6984 23.7013 49.9905C23.4822 50.2826 23.3361 50.6478 23.4092 51.0859C23.6282 52.1814 23.8473 53.1308 24.1395 54.0071C24.2125 54.2992 24.2855 54.5913 24.2855 54.8835C24.2855 55.7598 23.9204 56.5631 23.1901 57.0743C22.5328 57.6586 21.6565 57.8046 20.7071 57.5855C19.7577 57.3665 18.9544 56.5631 18.6623 55.6138C18.5162 55.0295 18.5162 54.5183 18.7353 53.9341C19.0274 53.0577 19.2465 52.0353 19.4656 51.0129C19.5386 50.6478 19.3926 50.2826 19.1735 49.9905C18.9544 49.6984 18.5892 49.5523 18.1511 49.5523H10.6291V27.6436H32.4648ZM10.6291 52.0353H16.6905C16.6174 52.4005 16.4714 52.7656 16.3984 53.0577C16.0332 54.0801 16.0332 55.1025 16.3253 56.198C16.8365 58.0967 18.3701 59.6304 20.2689 60.0685C20.7071 60.1416 21.1453 60.2146 21.5834 60.2146C22.8249 60.2146 23.9934 59.7764 24.9428 59.0461C26.2573 58.0237 26.9876 56.4901 26.9876 54.8104C26.9876 54.2262 26.9146 53.642 26.6955 53.1308C26.5494 52.7656 26.4764 52.4005 26.4034 52.0353H32.4648V59.7034C32.4648 60.0685 32.6108 60.4337 32.903 60.7258C33.1951 60.9449 33.5602 61.0909 33.9984 61.0179C35.0938 60.7988 36.1162 60.5797 36.9196 60.2876C38.015 59.9225 39.2565 60.2876 39.9868 61.237C40.498 61.8943 40.7171 62.7706 40.498 63.72C40.2789 64.6694 39.4756 65.4727 38.5262 65.7648C37.942 65.9109 37.4308 65.9109 36.8465 65.6918C35.8971 65.3997 34.9478 65.1806 33.9254 64.9615C33.5602 64.8885 33.1951 65.0345 32.903 65.2536C32.6108 65.4727 32.4648 65.8378 32.4648 66.276V73.9441H10.6291V52.0353ZM56.8565 73.9441H35.0208V67.8827C35.3859 67.9557 35.7511 68.1017 36.0432 68.1748C37.0656 68.5399 38.088 68.5399 39.1835 68.2478C41.0822 67.7366 42.6158 66.203 43.054 64.3042C43.4192 62.6246 43.054 60.9449 42.0316 59.6304C41.0092 58.3158 39.4756 57.5855 37.7959 57.5855C37.2117 57.5855 36.6274 57.6586 36.1162 57.8777C35.7511 58.0237 35.3859 58.0967 35.0208 58.1698V52.0353H42.6889C43.054 52.0353 43.4192 51.8893 43.7113 51.5972C43.9304 51.305 44.0764 50.9399 44.0034 50.5017C43.7843 49.4063 43.5652 48.3839 43.2731 47.5805C43.2001 47.2884 43.127 46.9963 43.127 46.7042C43.127 45.8278 43.4922 45.0245 44.2225 44.5133C44.8797 44.0021 45.7561 43.783 46.7055 44.0021C47.6548 44.2212 48.4582 45.0245 48.7503 45.9739C48.8963 46.5581 48.8963 47.0693 48.6773 47.6536C48.3851 48.5299 48.1661 49.5523 47.947 50.5747C47.8739 50.9399 48.02 51.305 48.2391 51.5972C48.4582 51.8893 48.8233 52.0353 49.2615 52.0353H56.9296V73.9441H56.8565Z" fill="white"/>
<path d="M77.2318 17.0545C77.0858 16.7624 76.7936 16.5433 76.4285 16.4702L52.8401 10.0437C52.4749 9.97065 52.1828 9.97065 51.8907 10.1897C51.5986 10.3358 51.3795 10.6279 51.3064 10.9931L49.3347 18.1499C49.0425 17.9308 48.6774 17.7848 48.3853 17.5657C47.5089 16.9814 46.5595 16.6893 45.4641 16.6893C43.4923 16.6893 41.5936 17.7117 40.6442 19.4644C39.8409 20.925 39.7678 22.6777 40.4251 24.2113C41.0824 25.745 42.3969 26.8404 44.0035 27.2786C44.5878 27.4246 45.099 27.4977 45.6832 27.4246C46.0483 27.4246 46.4135 27.4246 46.7786 27.4246L44.8799 34.5815C44.6608 35.2387 45.099 35.969 45.7562 36.1881L54.3737 38.5251C54.7388 38.5981 55.177 38.5251 55.4691 38.306C55.7612 38.0869 55.9803 37.7217 56.0533 37.3566C56.1264 36.2612 56.1994 35.3848 56.1264 34.5085C56.1264 34.2163 56.1264 33.9242 56.1994 33.6321C56.4185 32.8288 57.0027 32.0985 57.806 31.8064C58.6094 31.4412 59.4857 31.5143 60.289 31.9524C61.1654 32.3906 61.7496 33.413 61.7496 34.4354C61.7496 35.0197 61.6036 35.5309 61.3114 35.969C60.8002 36.6993 60.3621 37.5027 59.9239 38.452C59.7778 38.8172 59.7778 39.1823 59.9239 39.5475C60.0699 39.9126 60.3621 40.1317 60.7272 40.2778L69.3447 42.5417C69.4907 42.5417 69.5637 42.6147 69.7098 42.6147C70.294 42.6147 70.8052 42.2495 70.9513 41.6653L77.3779 18.0769C77.4509 17.7117 77.3779 17.3466 77.2318 17.0545ZM68.7604 39.6935L62.9181 38.0869C63.0641 37.7948 63.2102 37.5757 63.4293 37.2836C64.0135 36.4072 64.3056 35.3848 64.3056 34.3624C64.3787 32.3906 63.2102 30.4918 61.5305 29.5425C60.07 28.7391 58.3173 28.6661 56.7836 29.3234C55.25 29.9806 54.1546 31.2952 53.7164 32.9018C53.5703 33.486 53.4973 33.9972 53.5704 34.5815C53.5704 34.8736 53.5704 35.1657 53.5704 35.5309L47.728 33.9242L49.7728 26.4752C49.8459 26.1101 49.7728 25.745 49.5537 25.3798C49.3347 25.0147 48.9695 25.0147 48.5313 24.9416C47.4359 24.8686 46.4135 24.7956 45.4641 24.8686C45.172 24.8686 44.8799 24.8686 44.5878 24.7956C43.7844 24.5765 43.0541 23.9923 42.762 23.1889C42.3969 22.3856 42.4699 21.5093 42.9081 20.7059C43.3463 19.8296 44.3687 19.2454 45.3181 19.2454H45.3911C45.9753 19.2454 46.4865 19.3914 46.9247 19.6835C47.728 20.1947 48.6044 20.7059 49.6268 21.1441C49.9919 21.2902 50.3571 21.2902 50.7222 21.1441C51.0874 20.9981 51.3064 20.7059 51.4525 20.3408L53.4973 12.8918L74.6028 18.5881L68.7604 39.6935Z" fill="white"/>
</svg>
