<svg width="80" height="52" fill="none" xmlns="http://www.w3.org/2000/svg"><path fill-rule="evenodd" clip-rule="evenodd" d="M.538 50.98c0-.563.446-1.02.995-1.02H72.68c1.284 0 1.284 2.04 0 2.04H1.533c-.55 0-.995-.456-.995-1.02Z" fill="#fff"/><path fill-rule="evenodd" clip-rule="evenodd" d="M5.558 50.344V26.51h2.246v23.834H51.98V26.51h2.247v23.834h2.404c.62 0 1.123.37 1.123.828 0 .457-.503.828-1.123.828H3.154c-.62 0-1.123-.37-1.123-.828 0-.458.503-.828 1.123-.828h2.404ZM24.917 5.608c.55 0 .995.456.995 1.02v9.686c0 .563-.445 1.02-.995 1.02s-.995-.457-.995-1.02V6.627c0-.563.445-1.02.995-1.02Zm36.32 0c.549 0 .994.456.994 1.02V50.47c0 .563-.445 1.02-.995 1.02s-.995-.457-.995-1.02V6.627c0-.563.446-1.02.995-1.02Z" fill="#fff"/><path fill-rule="evenodd" clip-rule="evenodd" d="M66.294 5.642c0 .563-.446 1.02-.995 1.02h-44.86c-.55 0-.995-.457-.995-1.02s.446-1.02.995-1.02H65.3c.55 0 .995.457.995 1.02ZM42.33 11.216c0-.563.446-1.02.995-1.02h13.931c.55 0 .995.457.995 1.02v5.098c0 .563-.445 1.02-.995 1.02h-13.93c-.55 0-.996-.457-.996-1.02v-5.098Zm1.99 1.02v3.058h11.941v-3.059h-11.94Z" fill="#fff"/><path d="M10.787 14.377h9.055c.597 0 .995-.51.995-1.02v-3.16a1.01 1.01 0 0 0-.995-1.02h-9.055c-.597 0-.995.51-.995 1.02v3.058c0 .612.398 1.121.995 1.121Zm.995-3.161h7.065v1.02h-7.065v-1.02Z" fill="#fff"/><path d="M53.176 51.592V28.55l5.175 2.651c.199.102.298.102.497.102.398 0 .697-.204.896-.51.298-.51.1-1.121-.398-1.427L30.489 12.847a.886.886 0 0 0-.995 0l-10.647 6.118v-2.55a1.01 1.01 0 0 0-.995-1.019h-5.075c-.597 0-.995.51-.995 1.02v6.627L.538 29.467c-.497.306-.696.917-.398 1.427.299.51.896.714 1.393.408l4.18-2.345v22.635h47.463ZM13.772 17.435h2.986v2.753l-2.986 1.734v-4.487Zm13.135 34.157h-12.14V41.498c0-3.467 2.687-6.22 6.07-6.22 3.383 0 6.07 2.753 6.07 6.22v10.094Zm1.99 0V41.498c0-4.588-3.582-8.259-8.06-8.259-4.477 0-8.06 3.67-8.06 8.259v10.094H7.703V27.733l2.09-1.02 8.457-4.995 11.642-6.628 22.19 12.643v23.86" fill="#fff"/><path fill-rule="evenodd" clip-rule="evenodd" d="M31.882 33.647c0-.563.446-1.02.995-1.02h16.419c.55 0 .995.457.995 1.02s-.446 1.02-.995 1.02H32.877c-.55 0-.995-.457-.995-1.02ZM31.882 37.725c0-.563.446-1.02.995-1.02h16.419c.55 0 .995.457.995 1.02 0 .564-.446 1.02-.995 1.02H32.877c-.55 0-.995-.456-.995-1.02Z" fill="#fff"/><path d="M71.613 9.176c-5.503 0-8.387 15.88-8.387 21.372 0 7.151 2.844 11.709 7.455 12.262v9.109h1.864V42.81C77.155 42.257 80 37.7 80 30.548c0-5.492-2.883-21.372-8.387-21.372Zm.932 31.418v-1.81L76 34.615c.364-.439.364-1.152 0-1.59-.363-.44-.954-.44-1.317 0l-2.138 2.58v-9.555c0-.621-.417-1.125-.932-1.125-.514 0-.932.504-.932 1.125v5.056l-2.135-2.579c-.364-.438-.955-.438-1.318 0-.364.44-.364 1.152 0 1.591l3.453 4.168v6.31c-5.164-.761-5.59-7.802-5.59-10.047 0-6.855 3.287-19.122 6.522-19.122 3.236 0 6.523 12.267 6.523 19.122 0 2.245-.426 9.286-5.59 10.046Z" fill="#fff"/><path fill-rule="evenodd" clip-rule="evenodd" d="M34.37 22.941c0 2.534-2.005 4.588-4.478 4.588s-4.477-2.054-4.477-4.588c0-2.534 2.004-4.588 4.477-4.588 2.473 0 4.478 2.054 4.478 4.588Zm-4.478 2.753c1.484 0 2.687-1.232 2.687-2.753 0-1.52-1.203-2.753-2.687-2.753-1.483 0-2.686 1.233-2.686 2.753s1.203 2.753 2.686 2.753Z" fill="#fff"/><path d="M9.776 16.47c0 .648-.509 1.175-1.136 1.175-.628 0-1.136-.527-1.136-1.176 0-.649.508-1.175 1.136-1.175.627 0 1.136.526 1.136 1.175ZM2.81 24.626c0 .65-.508 1.175-1.135 1.175-.628 0-1.137-.526-1.137-1.175s.51-1.175 1.137-1.175 1.136.526 1.136 1.175ZM26.692 1.175c0 .65-.509 1.175-1.136 1.175-.628 0-1.137-.526-1.137-1.175S24.93 0 25.556 0s1.136.526 1.136 1.175ZM8.781 6.273c0 .65-.509 1.175-1.136 1.175-.628 0-1.136-.526-1.136-1.175s.508-1.175 1.136-1.175c.627 0 1.136.526 1.136 1.175Z" fill="#fff"/></svg>
