<svg width="70" height="52" viewBox="0 0 70 52" fill="none" xmlns="http://www.w3.org/2000/svg">
<path fill-rule="evenodd" clip-rule="evenodd" d="M19.0083 15.6526C18.7245 6.68906 25.713 0 35.037 0C44.1467 0 51 6.40552 51 14.9687C51 19.8393 47.733 23.3058 44.8067 26.1205C44.4955 26.4198 44.1889 26.7109 43.889 26.9957C42.7326 28.0938 41.6757 29.0973 40.8376 30.1125C39.7886 31.3832 39.2255 32.5103 39.2255 33.6371V37.8799C39.2255 38.4322 38.7718 38.8799 38.2121 38.8799H31.8619C31.3022 38.8799 30.8485 38.4322 30.8485 37.8799V34.2245C30.8485 28.6647 34.1605 25.4019 37.1736 22.7489C37.4395 22.5149 37.7014 22.2869 37.9582 22.0633C39.1903 20.9906 40.3055 20.0198 41.1807 18.9676C42.2101 17.7302 42.8214 16.4747 42.8214 14.9687C42.8214 10.9726 39.5961 8.00522 35.037 8.00522C30.3555 8.00522 27.1359 11.287 27.2523 15.5948C27.2596 15.8645 27.1561 16.1257 26.9653 16.319C26.7745 16.5124 26.5127 16.6214 26.2392 16.6214H20.0213C19.4739 16.6214 19.0254 16.1925 19.0083 15.6526ZM21.036 14.6214H25.2496C25.6157 9.65378 29.6329 6.00522 35.037 6.00522C40.5325 6.00522 44.8482 9.69577 44.8482 14.9687C44.8482 17.0853 43.9628 18.7754 42.7473 20.2366C41.7584 21.4254 40.4935 22.5252 39.2595 23.5982C39.012 23.8135 38.7656 24.0277 38.523 24.2413C35.5497 26.8592 32.8753 29.6017 32.8753 34.2245V36.8799H37.1987V33.6371C37.1987 31.8265 38.1075 30.2529 39.2662 28.8494C40.1899 27.7304 41.3637 26.6167 42.5309 25.5091C42.8196 25.2351 43.108 24.9615 43.392 24.6883C46.3529 21.8404 48.9732 18.91 48.9732 14.9687C48.9732 7.60492 43.1259 2 35.037 2C27.1139 2 21.2965 7.36152 21.036 14.6214ZM29.9224 46.6919C29.9224 43.7897 32.3606 41.3838 35.3016 41.3838C38.1865 41.3838 40.6147 43.7996 40.6147 46.6919C40.6147 49.5842 38.1865 52 35.3016 52C32.3606 52 29.9224 49.5941 29.9224 46.6919ZM35.3016 43.3838C33.4799 43.3838 31.9492 44.8943 31.9492 46.6919C31.9492 48.4895 33.4799 50 35.3016 50C37.0471 50 38.5879 48.4994 38.5879 46.6919C38.5879 44.8844 37.0471 43.3838 35.3016 43.3838Z" fill="#167C80"/>
</svg>
