<svg viewBox="0 0 17 17" fill="none" xmlns="http://www.w3.org/2000/svg">
<circle cx="8.5" cy="8.5" r="8" stroke="#167C80"/>
<path d="M8.02727 9.53V10.09H8.98727V9.44C8.98727 8.54 10.7673 7.93 10.7673 6.58C10.7673 5.36 9.80727 4.44 8.50727 4.44C7.17727 4.44 6.19727 5.4 6.23727 6.68H7.17727C7.15727 5.93 7.71727 5.36 8.50727 5.36C9.26727 5.36 9.83727 5.87 9.83727 6.58C9.83727 7.69 8.02727 7.97 8.02727 9.53ZM8.54727 12.1C8.89727 12.1 9.19727 11.8 9.19727 11.44C9.19727 11.08 8.89727 10.78 8.54727 10.78C8.18727 10.78 7.88727 11.08 7.88727 11.44C7.88727 11.8 8.18727 12.1 8.54727 12.1Z" fill="#167C80"/>
</svg>
