<svg width="106" height="106" viewBox="0 0 106 106" fill="none" xmlns="http://www.w3.org/2000/svg">
<path d="M57.3084 16.1856C57.3084 15.5426 57.851 15 58.494 15C59.137 15 59.6796 15.5426 59.6796 16.1856V19.6382C59.6796 20.3754 59.1214 20.9022 58.494 20.9022C57.8666 20.9022 57.3084 20.3754 57.3084 19.6382V16.1856Z" fill="white"/>
<path d="M46.8723 20.5798C46.8723 19.8425 47.4304 19.3157 48.0579 19.3157C48.6853 19.3157 49.2435 19.8425 49.2435 20.5798V30.9374C49.2435 31.6747 48.6853 32.2015 48.0579 32.2015C47.4304 32.2015 46.8723 31.6747 46.8723 30.9374V20.5798Z" fill="white"/>
<path d="M36.4361 21.4429C36.4361 20.7375 36.9624 20.2573 37.6217 20.2573C38.281 20.2573 38.8073 20.7375 38.8073 21.4429V24.8955C38.8073 25.5385 38.2647 26.0811 37.6217 26.0811C36.9787 26.0811 36.4361 25.5385 36.4361 24.8955V21.4429Z" fill="white"/>
<path d="M67.7445 25.7586C67.7445 25.0993 68.2247 24.573 68.9301 24.573C69.5731 24.573 70.1157 25.1156 70.1157 25.7586V36.1947C70.1157 36.8377 69.5731 37.3803 68.9301 37.3803C68.2247 37.3803 67.7445 36.854 67.7445 36.1947V25.7586Z" fill="white"/>
<path d="M78.1022 27.4064C78.1022 26.779 78.629 26.2208 79.3663 26.2208C80.0093 26.2208 80.5519 26.7634 80.5519 27.4064V30.859C80.5519 31.502 80.0093 32.0446 79.3663 32.0446C78.629 32.0446 78.1022 31.4864 78.1022 30.859V27.4064Z" fill="white"/>
<path d="M57.3084 27.4849C57.3084 26.8419 57.851 26.2993 58.494 26.2993C59.137 26.2993 59.6796 26.8419 59.6796 27.4849V30.9374C59.6796 31.6747 59.1214 32.2015 58.494 32.2015C57.8666 32.2015 57.3084 31.6747 57.3084 30.9374V27.4849Z" fill="white"/>
<path d="M26 31.7221C26 31.0791 26.5426 30.5365 27.1856 30.5365C27.8286 30.5365 28.3712 31.0791 28.3712 31.7221V42.1582C28.3712 42.8012 27.8286 43.3438 27.1856 43.3438C26.5426 43.3438 26 42.8012 26 42.1582V31.7221Z" fill="white"/>
<path d="M36.4361 32.7422C36.4361 32.0368 36.9624 31.5566 37.6217 31.5566C38.281 31.5566 38.8073 32.0368 38.8073 32.7422V36.1947C38.8073 36.8377 38.2647 37.3803 37.6217 37.3803C36.9787 37.3803 36.4361 36.8377 36.4361 36.1947V32.7422Z" fill="white"/>
<path fill-rule="evenodd" clip-rule="evenodd" d="M52.0511 38.7057C52.0511 38.0627 52.5937 37.5201 53.2367 37.5201C53.974 37.5201 54.5008 38.0782 54.5008 38.7057V41.0212L55.0108 41.0502C61.7727 41.4344 67.9285 44.4315 72.5513 48.9765C77.4758 53.9019 80.5519 60.7492 80.5519 68.2093C80.5519 68.9147 80.0256 69.3949 79.3663 69.3949C78.9774 69.3949 78.7118 69.2604 78.6218 69.1404L78.5911 69.0995L78.5533 69.0651C73.9623 64.884 67.3635 64.7073 62.7518 69.072L62.7412 69.0825C62.3385 69.4852 61.6445 69.5208 61.1258 69.135C59.9761 67.9927 58.7467 67.2589 57.4552 66.6939L57.4473 66.6904L57.4393 66.6872C56.6139 66.3571 55.8717 66.1922 55.1714 66.0365L54.5008 65.8875V85.629C54.5008 89.0143 51.6867 91.8365 48.2148 91.8365C44.7511 91.8365 42.0073 89.0225 42.0073 85.629C42.0073 84.9697 42.4875 84.4434 43.1929 84.4434C43.8359 84.4434 44.3785 84.986 44.3785 85.629C44.3785 87.7324 46.1115 89.4653 48.2148 89.4653C50.3182 89.4653 52.0511 87.7324 52.0511 85.629V65.8875L51.3931 66.0337C51.3293 66.0479 51.264 66.0622 51.1974 66.0769C50.5514 66.2187 49.7907 66.3857 49.0955 66.6944C47.7994 67.2616 46.5658 67.9988 45.4125 69.1485C44.9306 69.5661 44.165 69.5151 43.7323 69.0823L43.7215 69.0721C39.1115 64.7091 32.5932 64.8834 28.0021 69.1402C27.2122 69.8163 26 69.2835 26 68.1309C26 60.6715 29.0755 53.9016 34.0022 48.9749C38.5432 44.4338 44.7759 41.4346 51.5411 41.0502L52.0511 41.0212V38.7057ZM49.5752 44.6091L50.8984 43.286L47.4676 44.0634L47.4648 44.064C42.9642 45.1088 38.8764 47.5164 35.6749 50.6379L35.6701 50.6427C31.9779 54.3349 29.4926 59.2277 28.691 64.5985L28.5303 65.6751L29.4853 65.1526C33.487 62.963 38.2366 62.8889 42.3094 65.0762L43.1058 65.5039V64.5998C43.1058 59.6726 43.3851 55.9394 44.3086 52.4762L44.3107 52.468C45.2347 48.7719 47.8021 46.3126 49.1433 45.0279C49.3073 44.8709 49.4531 44.7312 49.5752 44.6091ZM53.55 43.6793L53.2332 43.4539L52.9187 43.6826C49.3655 46.2668 47.489 49.1969 46.5156 52.8466C45.6317 56.1409 45.477 60.1306 45.477 64.9922V65.9499L46.2971 65.4551C50.6749 62.8133 55.7973 62.8108 60.2583 65.4572L61.0903 65.9508L61.0747 64.9835C60.9964 60.1267 60.8407 56.1436 60.0395 52.8586L60.0365 52.8474C59.0628 49.196 57.1848 46.264 53.55 43.6793ZM59.0871 44.064L57.4253 43.6783L58.5615 44.9508C60.4538 47.0702 61.5958 49.4974 62.2851 52.2547L62.2873 52.2629C63.2098 55.7224 63.446 59.6653 63.446 64.5998V65.5039L64.2425 65.0762C68.3153 62.8889 73.0648 62.963 77.0666 65.1526L78.0216 65.6751L77.8609 64.5985C77.0585 59.2226 74.4918 54.3312 70.8033 50.6427C67.6771 47.5165 63.587 45.1087 59.0871 44.064Z" fill="white"/>
<path d="M49.3133 67.1893L49.0938 66.6952L49.0955 66.6944L49.0966 66.6939L49.3133 67.1893Z" fill="white"/>
<path d="M78.1022 38.7057C78.1022 38.0782 78.629 37.5201 79.3663 37.5201C80.0093 37.5201 80.5519 38.0627 80.5519 38.7057V42.1582C80.5519 42.8012 80.0093 43.3438 79.3663 43.3438C78.629 43.3438 78.1022 42.7857 78.1022 42.1582V38.7057Z" fill="white"/>
</svg>
