<svg width="87" height="86" viewBox="0 0 87 86" fill="none" xmlns="http://www.w3.org/2000/svg">
<path d="M65.149 69H21.851C19.4633 69 17.5 67.037 17.5 64.6496V21.3583C17.5 18.9709 19.4633 17.008 21.851 17.008H54.3245C54.9612 16.9549 55.5449 17.1671 55.9694 17.6446L68.7571 30.4304C69.2347 30.9079 69.4469 31.5445 69.3939 32.1811H69.5V64.7027C69.5 67.037 67.5367 69 65.149 69ZM32.6755 64.6496H54.3245V49.5295H32.6755V64.6496ZM50.0265 21.3583H37.0265V34.3563H50.0265V21.3583ZM65.149 33.1892L54.3245 22.3663V34.3563C54.3245 36.7437 52.3612 38.7067 49.9735 38.7067H37.0265C34.6388 38.7067 32.6755 36.7437 32.6755 34.3563V21.3583H21.851V64.7027H28.3245V49.5295C28.3245 47.1421 30.2878 45.1792 32.6755 45.1792H54.3245C56.7122 45.1792 58.6755 47.1421 58.6755 49.5295V64.7027H65.202V33.1892H65.149Z" fill="white"/>
</svg>
