<svg width="74" height="56" viewBox="0 0 74 56" fill="none" xmlns="http://www.w3.org/2000/svg">
<path d="M36.5 55C36.5 55 58 44.2 58 28V9.1L36.5 1L15 9.1V28C15 44.2 36.5 55 36.5 55Z" stroke="#167C80" stroke-width="1.5" stroke-linecap="round" stroke-linejoin="round"/>
<path d="M29.0753 40H44.41C45.2872 40 46.001 39.2862 46.001 38.409V25.391C46.001 24.5138 45.2872 23.8 44.41 23.8H43.2186V19.476C43.2186 15.9049 40.3134 13 36.7427 13C33.1115 13 30.2667 15.9494 30.2667 19.7149V23.8H29.0753C28.1982 23.8 27.4844 24.5138 27.4844 25.391V38.409C27.4844 39.2862 28.1982 40 29.0753 40ZM30.9417 19.7149C30.9417 16.3281 33.4899 13.675 36.7427 13.675C39.9412 13.675 42.5436 16.2771 42.5436 19.476V23.8H41.032V19.4047C41.032 17.0399 39.1079 15.1158 36.743 15.1158C34.3781 15.1158 32.4537 17.0399 32.4537 19.4047V23.8H30.9421V19.7149H30.9417ZM40.3566 23.8H33.1287V19.4047C33.1287 17.4121 34.7501 15.7908 36.7427 15.7908C38.7353 15.7908 40.3566 17.4121 40.3566 19.4047V23.8ZM28.1594 25.391C28.1594 24.8857 28.5701 24.475 29.0753 24.475H44.41C44.9152 24.475 45.326 24.8857 45.326 25.391V38.409C45.326 38.9143 44.9152 39.325 44.41 39.325H29.0753C28.5701 39.325 28.1594 38.9143 28.1594 38.409V25.391Z" fill="#167C80" stroke="#167C80" stroke-width="0.5"/>
<path d="M35.4866 32.4833V34.082C35.4866 34.7752 36.0502 35.3389 36.7434 35.3389C37.4366 35.3389 38.0003 34.7752 38.0003 34.082V32.4833C38.5916 32.0729 38.9517 31.3948 38.9517 30.6692C38.9517 29.4515 37.9611 28.4609 36.7434 28.4609C35.5257 28.4609 34.5352 29.4515 34.5352 30.6692C34.5352 31.3945 34.8949 32.0729 35.4866 32.4833ZM36.7434 29.1356C37.5889 29.1356 38.2767 29.8234 38.2767 30.6689C38.2767 31.2197 37.9777 31.7306 37.4964 32.0033C37.3907 32.0631 37.3253 32.1755 37.3253 32.297V34.082C37.3253 34.403 37.0644 34.6639 36.7434 34.6639C36.4225 34.6639 36.1616 34.403 36.1616 34.082V32.297C36.1616 32.1755 36.0961 32.0631 35.9905 32.0033C35.5092 31.7306 35.2102 31.2197 35.2102 30.6689C35.2102 29.8234 35.898 29.1356 36.7434 29.1356Z" fill="#167C80" stroke="#167C80" stroke-width="0.5"/>
</svg>
