<svg width="76" height="53" viewBox="0 0 76 53" fill="none" xmlns="http://www.w3.org/2000/svg">
<path fill-rule="evenodd" clip-rule="evenodd" d="M14 41.375H61V43.625H14V41.375Z" fill="#167C80"/>
<path fill-rule="evenodd" clip-rule="evenodd" d="M0 51.5C0 50.9477 0.447715 50.5 1 50.5H74.5C75.0523 50.5 75.5 50.9477 75.5 51.5C75.5 52.0523 75.0523 52.5 74.5 52.5H1C0.447715 52.5 0 52.0523 0 51.5Z" fill="#167C80"/>
<path fill-rule="evenodd" clip-rule="evenodd" d="M13.375 50.5V18H15.625V50.5H13.375Z" fill="#167C80"/>
<path fill-rule="evenodd" clip-rule="evenodd" d="M59.875 50.5V17.5L62.125 17.5V50.5H59.875Z" fill="#167C80"/>
<path fill-rule="evenodd" clip-rule="evenodd" d="M15 42.5C15 41.9477 15.4477 41.5 16 41.5H56C56.5523 41.5 57 41.9477 57 42.5V45.5H60C60.5523 45.5 61 45.9477 61 46.5V50.5C61 51.0523 60.5523 51.5 60 51.5H15C14.4477 51.5 14 51.0523 14 50.5V46.5C14 45.9477 14.4477 45.5 15 45.5V42.5ZM17 45.5H23V43.5H17V45.5ZM25 43.5V45.5H31V43.5H25ZM33 43.5V45.5H39V43.5H33ZM41 43.5V45.5H47V43.5H41ZM49 43.5V45.5H55V43.5H49ZM53 47.5V49.5H59V47.5H53ZM51 49.5V47.5H45V49.5H51ZM43 49.5V47.5H37V49.5H43ZM35 49.5V47.5H29V49.5H35ZM27 49.5V47.5H21V49.5H27ZM19 49.5V47.5H16V49.5H19Z" fill="#167C80"/>
<path d="M18.7999 5.6H27.8999C28.4999 5.6 28.8999 5.1 28.8999 4.6V1.5C28.8999 0.9 28.3999 0.5 27.8999 0.5H18.7999C18.1999 0.5 17.7999 1 17.7999 1.5V4.5C17.7999 5.1 18.1999 5.6 18.7999 5.6ZM19.7999 2.5H26.8999V3.5H19.7999V2.5Z" fill="#167C80"/>
<path d="M61.3999 42.1V19.5L66.5999 22.1C66.7999 22.2 66.8999 22.2 67.0999 22.2C67.4999 22.2 67.7999 22 67.9999 21.7C68.2999 21.2 68.0999 20.6 67.5999 20.3L38.5999 4.1C38.2999 3.9 37.8999 3.9 37.5999 4.1L26.8999 10.1V7.6C26.8999 7 26.3999 6.6 25.8999 6.6H20.7999C20.1999 6.6 19.7999 7.1 19.7999 7.6V14.1L8.49994 20.4C7.99994 20.7 7.79994 21.3 8.09994 21.8C8.39994 22.3 8.99994 22.5 9.49994 22.2L13.6999 19.9V42.1H61.3999ZM21.7999 8.6H24.7999V11.3L21.7999 13V8.6ZM34.9999 42.1H22.7999V32.2C22.7999 28.8 25.4999 26.1 28.8999 26.1C32.2999 26.1 34.9999 28.8 34.9999 32.2V42.1ZM36.9999 42.1V32.2C36.9999 27.7 33.3999 24.1 28.8999 24.1C24.3999 24.1 20.7999 27.7 20.7999 32.2V42.1H15.6999V18.7L17.7999 17.7L26.2999 12.8L37.9999 6.3L60.2999 18.7V42.1" fill="#167C80"/>
<path fill-rule="evenodd" clip-rule="evenodd" d="M40 24.5C40 23.9477 40.4477 23.5 41 23.5H57.5C58.0523 23.5 58.5 23.9477 58.5 24.5C58.5 25.0523 58.0523 25.5 57.5 25.5H41C40.4477 25.5 40 25.0523 40 24.5Z" fill="#167C80"/>
<path fill-rule="evenodd" clip-rule="evenodd" d="M40 28.5C40 27.9477 40.4477 27.5 41 27.5H57.5C58.0523 27.5 58.5 27.9477 58.5 28.5C58.5 29.0523 58.0523 29.5 57.5 29.5H41C40.4477 29.5 40 29.0523 40 28.5Z" fill="#167C80"/>
</svg>
