<svg width="32" height="32" viewBox="0 0 32 32" fill="none" xmlns="http://www.w3.org/2000/svg">
<path d="M18.5987 4.99746L1.87784 1.01968C1.66883 0.971683 1.44589 1.01368 1.27171 1.12167C1.09754 1.23567 1 1.41566 1 1.60165V30.4C1 30.73 1.31352 31 1.6967 31H30.3033C30.6865 31 31 30.73 31 30.4V13.223C31 12.893 30.6865 12.623 30.3033 12.623H19.1143V5.57342C19.1143 5.30944 18.9052 5.06945 18.5987 4.99746ZM7.4863 29.8001V23.8724H12.628V29.8001H7.4863ZM17.7209 29.8001H14.0214V23.2724C14.0214 22.9425 13.7078 22.6725 13.3247 22.6725H6.7896C6.40641 22.6725 6.09289 22.9425 6.09289 23.2724V29.8001H2.3934V2.3876L17.7209 6.0294V29.8001ZM19.1143 13.823H29.6066V29.8001H19.1143V13.823Z" fill="#167C80"/>
<path d="M5.3258 9.05779H14.8663C15.2512 9.05779 15.5662 8.75297 15.5662 8.38041C15.5662 8.00785 15.2512 7.70302 14.8663 7.70302H5.3258C4.94082 7.70302 4.62584 8.00785 4.62584 8.38041C4.62584 8.75297 4.94082 9.05779 5.3258 9.05779Z" fill="#167C80"/>
<path d="M5.3258 14.5174H14.8663C15.2512 14.5174 15.5662 14.2126 15.5662 13.8401C15.5662 13.4675 15.2512 13.1627 14.8663 13.1627H5.3258C4.94082 13.1627 4.62584 13.4675 4.62584 13.8401C4.62584 14.2126 4.94082 14.5174 5.3258 14.5174Z" fill="#167C80"/>
<path d="M5.3258 19.9771H14.8663C15.2512 19.9771 15.5662 19.6723 15.5662 19.2997C15.5662 18.9271 15.2512 18.6223 14.8663 18.6223H5.3258C4.94082 18.6223 4.62584 18.9271 4.62584 19.2997C4.62584 19.6723 4.94082 19.9771 5.3258 19.9771Z" fill="#167C80"/>
<path d="M27.1364 17.3963H21.7957C21.4108 17.3963 21.0958 17.7011 21.0958 18.0737C21.0958 18.4462 21.4108 18.751 21.7957 18.751H27.1364C27.5214 18.751 27.8364 18.4462 27.8364 18.0737C27.8364 17.7011 27.5214 17.3963 27.1364 17.3963Z" fill="#167C80"/>
<path d="M27.1364 21.8872H21.7957C21.4108 21.8872 21.0958 22.1921 21.0958 22.5646C21.0958 22.9372 21.4108 23.242 21.7957 23.242H27.1364C27.5214 23.242 27.8364 22.9372 27.8364 22.5646C27.8364 22.1921 27.5214 21.8872 27.1364 21.8872Z" fill="#167C80"/>
<path d="M27.1364 26.3717H21.7957C21.4108 26.3717 21.0958 26.6765 21.0958 27.0491C21.0958 27.4217 21.4108 27.7265 21.7957 27.7265H27.1364C27.5214 27.7265 27.8364 27.4217 27.8364 27.0491C27.8364 26.6765 27.5214 26.3717 27.1364 26.3717Z" fill="#167C80"/>
</svg>
