<svg width="32" height="32" viewBox="0 0 32 32" fill="none" xmlns="http://www.w3.org/2000/svg">
<path fill-rule="evenodd" clip-rule="evenodd" d="M27.5714 10.8038H4.42857C3.2451 10.8038 2.28571 11.7481 2.28571 12.913V25.6254C2.28571 26.7902 3.2451 27.7345 4.42857 27.7345H27.5714C28.7549 27.7345 29.7143 26.7902 29.7143 25.6254V12.913C29.7143 11.7481 28.7549 10.8038 27.5714 10.8038ZM4.42857 9.53835C2.53502 9.53835 1 11.0492 1 12.913V25.6254C1 27.4891 2.53502 29 4.42857 29H27.5714C29.465 29 31 27.4891 31 25.6254V12.913C31 11.0492 29.465 9.53835 27.5714 9.53835H4.42857Z" fill="#167C80"/>
<path fill-rule="evenodd" clip-rule="evenodd" d="M6.35714 28.5206V9.96018H7.64286V28.5206H6.35714ZM21.7857 28.5206V9.96018H23.0714V28.5206H21.7857Z" fill="#167C80"/>
<path fill-rule="evenodd" clip-rule="evenodd" d="M9.78571 28.5206V9.96018H11.0714V28.5206H9.78571ZM25.2143 28.5206V9.96018H26.5V28.5206H25.2143Z" fill="#167C80"/>
<path fill-rule="evenodd" clip-rule="evenodd" d="M16.4286 6.79646C14.8901 6.79646 13.6429 8.02404 13.6429 9.53835H12.3571C12.3571 7.32514 14.18 5.53097 16.4286 5.53097C18.6772 5.53097 20.5 7.32514 20.5 9.53835H19.2143C19.2143 8.02404 17.9671 6.79646 16.4286 6.79646Z" fill="#167C80"/>
<path fill-rule="evenodd" clip-rule="evenodd" d="M16.4286 4.26549C13.4699 4.26549 11.0714 6.62623 11.0714 9.53835H9.78571C9.78571 5.92732 12.7598 3 16.4286 3C20.0973 3 23.0714 5.92732 23.0714 9.53835H21.7857C21.7857 6.62623 19.3872 4.26549 16.4286 4.26549Z" fill="#167C80"/>
</svg>
