<svg width="74" height="51" viewBox="0 0 74 51" fill="none" xmlns="http://www.w3.org/2000/svg">
<path fill-rule="evenodd" clip-rule="evenodd" d="M57.1648 16.1713H16.8352C14.821 16.1713 13.1882 17.8049 13.1882 19.8202V43.1618C13.1882 45.177 14.821 46.8107 16.8352 46.8107H57.1648C59.179 46.8107 60.8118 45.177 60.8118 43.1618V19.8202C60.8118 17.8049 59.179 16.1713 57.1648 16.1713ZM16.8352 13.9819C13.6125 13.9819 11 16.5958 11 19.8202V43.1618C11 46.3861 13.6125 49 16.8352 49H57.1648C60.3875 49 63 46.3861 63 43.1618V19.8202C63 16.5958 60.3875 13.9819 57.1648 13.9819H16.8352Z" fill="#167C80"/>
<path fill-rule="evenodd" clip-rule="evenodd" d="M19.9059 47.1517V15.0414H22.0941V47.1517H19.9059ZM25.7411 47.1517V15.0414H27.9293V47.1517H25.7411ZM46.1644 47.1517V15.0414H48.3526V47.1517H46.1644ZM51.9996 47.1517V15.0414H54.1878V47.1517H51.9996Z" fill="#167C80"/>
<path fill-rule="evenodd" clip-rule="evenodd" d="M37 5.18934C31.9645 5.18934 27.8825 9.27351 27.8825 14.3116H25.6943C25.6943 8.06437 30.756 3 37 3C43.244 3 48.3057 8.06437 48.3057 14.3116H46.1175C46.1175 9.27351 42.0355 5.18934 37 5.18934ZM37 9.56807C34.3815 9.56807 32.2589 11.6918 32.2589 14.3116H30.0707C30.0707 10.4827 33.173 7.37873 37 7.37873C40.8269 7.37873 43.9293 10.4827 43.9293 14.3116H41.7411C41.7411 11.6918 39.6184 9.56807 37 9.56807Z" fill="#167C80"/>
</svg>
