<svg width="74" height="51" viewBox="0 0 74 51" fill="none" xmlns="http://www.w3.org/2000/svg">
<path d="M0 40.524C0 39.209 1.13432 38.1305 2.51739 38.1305C10.7784 38.1305 18.734 35.0757 24.6 29.7402L27.926 33.2604C21.1182 39.4427 11.9658 42.9174 2.43813 42.9174C1.07647 42.9174 0 41.8597 0 40.524Z" fill="#167C80"/>
<path fill-rule="evenodd" clip-rule="evenodd" d="M2.51739 38.8179C1.53528 38.8179 0.724095 39.5876 0.724095 40.524C0.724095 41.5021 1.49927 42.2301 2.43813 42.2301C11.5444 42.2301 20.299 38.9929 26.9141 33.219L24.5548 30.7218C18.6112 35.8795 10.7112 38.8179 2.51739 38.8179ZM24.0713 30.2101C18.2606 35.2546 10.5328 38.1305 2.51739 38.1305C1.13432 38.1305 0 39.209 0 40.524C0 41.8597 1.07647 42.9174 2.43813 42.9174C11.9658 42.9174 21.1182 39.4427 27.926 33.2604L24.6 29.7402C24.4256 29.8989 24.2494 30.0555 24.0713 30.2101Z" fill="#167C80"/>
<path d="M61.3273 13.001C53.1425 13.001 45.1893 16.0563 39.3239 21.3912L35.998 17.8711C42.7278 11.7621 51.8013 8.28706 61.2507 8.21398H65.4399L61.0682 4.05744L61.0606 4.05059C60.0761 3.17311 60.054 1.69386 61.0757 0.722458C61.5912 0.232307 62.2192 0 62.8332 0C63.4472 0 64.0752 0.232308 64.5907 0.722458L73.2453 8.95105L73.2617 8.96467C73.7349 9.35834 73.9898 9.93184 73.9898 10.6075C73.9898 11.1803 73.6748 11.8555 73.2299 12.2785L64.6677 20.4943L64.6554 20.5069C63.7244 21.451 62.1005 21.451 61.1696 20.5069L61.1552 20.4922L61.1398 20.4785C60.1554 19.6011 60.1332 18.1218 61.1549 17.1504L65.5192 13.001H61.3273Z" fill="#167C80"/>
<path fill-rule="evenodd" clip-rule="evenodd" d="M61.2507 8.21398C51.8013 8.28706 42.7278 11.7621 35.998 17.8711L39.3239 21.3912C39.4983 21.2325 39.6746 21.0759 39.8526 20.9213C45.6625 15.8773 53.3859 13.001 61.3273 13.001H65.5192L61.1549 17.1504C60.1332 18.1218 60.1554 19.6011 61.1398 20.4785L61.1552 20.4922L61.1696 20.5069C62.1005 21.451 63.7244 21.451 64.6554 20.5069L64.6677 20.4943L73.2299 12.2785C73.6748 11.8555 73.9898 11.1803 73.9898 10.6075C73.9898 9.93184 73.7349 9.35834 73.2617 8.96467L73.2453 8.95105L64.5907 0.722458C64.0752 0.232308 63.4472 0 62.8332 0C62.2192 0 61.5912 0.232307 61.0757 0.722458C60.054 1.69386 60.0761 3.17311 61.0606 4.05059L61.0682 4.05744L65.4399 8.21398H61.2507ZM61.5562 3.54948L61.5724 3.5639L67.1861 8.90137H61.2536C52.2246 8.97189 43.5486 12.2097 37.01 17.9127L39.3691 20.4096C45.3113 15.253 53.2066 12.3136 61.3273 12.3136H67.2654L61.6673 17.6361C60.9198 18.3468 60.9637 19.3787 61.6355 19.9774L61.6679 20.0063L61.6982 20.0371C62.343 20.691 63.4819 20.691 64.1267 20.0371L64.1528 20.0107L72.7175 11.7928C73.0403 11.4859 73.2657 10.9808 73.2657 10.6075C73.2657 10.1018 73.0798 9.7274 72.7845 9.48165C72.7845 9.48165 72.7845 9.48166 72.7845 9.48165L72.75 9.45295L64.0783 1.20814C63.6943 0.842962 63.2488 0.68739 62.8332 0.68739C62.4176 0.68739 61.9722 0.84296 61.5881 1.20814C60.8406 1.91887 60.8844 2.95071 61.5562 3.54948Z" fill="#167C80"/>
<path d="M64.67 30.5641L73.2363 38.7842L73.2451 38.792C74.2301 39.67 74.2536 41.1547 73.3014 42.1276L64.67 50.3341C63.7361 51.2221 62.0888 51.2221 61.1549 50.3341C60.2211 49.4462 60.2211 47.88 61.1549 46.9921L65.5192 42.8426H61.248C50.7335 42.8426 40.7659 38.6218 33.7572 31.1439L26.2301 23.0833C20.2396 16.6184 11.5792 12.9256 2.43813 12.9256C1.07647 12.9256 0 11.8679 0 10.5322C0 9.21716 1.13432 8.13867 2.51739 8.13867C13.0289 8.13867 22.9973 12.4322 30.0082 19.9127L37.6176 27.9012C43.6075 34.364 52.2657 38.0556 61.3273 38.0556H65.5192L61.1549 33.9062C60.2211 33.0183 60.2211 31.452 61.1549 30.5641C61.6705 30.074 62.2985 29.8417 62.9125 29.8417C63.526 29.8417 64.1547 30.0746 64.67 30.5641Z" fill="#167C80"/>
<path fill-rule="evenodd" clip-rule="evenodd" d="M72.7309 39.2766L64.1578 31.05C64.1576 31.0498 64.1581 31.0503 64.1578 31.05C63.7738 30.6856 63.3271 30.5291 62.9125 30.5291C62.4969 30.5291 62.0514 30.6846 61.6673 31.0498C61.0157 31.6694 61.0157 32.8009 61.6674 33.4205L67.2654 38.743H61.3273C52.0606 38.743 43.2053 34.9687 37.0772 28.3588L29.4672 20.3697C22.5919 13.0339 12.8195 8.82606 2.51739 8.82606C1.53528 8.82606 0.724095 9.59579 0.724095 10.5322C0.724095 11.5103 1.49927 12.2383 2.43813 12.2383C11.7845 12.2383 20.6433 16.0141 26.7729 22.6283C26.7732 22.6286 26.7725 22.6279 26.7729 22.6283L34.2982 30.687C34.2984 30.6872 34.298 30.6868 34.2982 30.687C41.1688 38.0172 50.9395 42.1552 61.248 42.1552H67.2654L61.6673 47.4778C61.0157 48.0973 61.0157 49.2289 61.6673 49.8484L61.1549 50.3341C60.2211 49.4462 60.2211 47.88 61.1549 46.9921L65.5192 42.8426H61.248C50.7335 42.8426 40.7659 38.6218 33.7572 31.1439L26.2301 23.0833C20.2396 16.6184 11.5792 12.9256 2.43813 12.9256C1.07647 12.9256 0 11.8679 0 10.5322C0 9.21716 1.13432 8.13867 2.51739 8.13867C13.0289 8.13867 22.9973 12.4322 30.0082 19.9127L37.6176 27.9012C43.6075 34.364 52.2657 38.0556 61.3273 38.0556H65.5192L61.1549 33.9062C60.2211 33.0183 60.2211 31.452 61.1549 30.5641C61.6705 30.074 62.2985 29.8417 62.9125 29.8417C63.526 29.8417 64.1547 30.0746 64.67 30.5641L73.2363 38.7842L73.2451 38.792C74.2301 39.67 74.2536 41.1547 73.3014 42.1276L64.67 50.3341C63.7361 51.2221 62.0888 51.2221 61.1549 50.3341L61.6673 49.8484C62.3184 50.4674 63.5066 50.4674 64.1576 49.8485L72.779 41.6513C73.4688 40.9382 73.4233 39.8938 72.7494 39.2931L72.7309 39.2766Z" fill="#167C80"/>
</svg>
