<svg width="52" height="38" viewBox="0 0 52 38" fill="none" xmlns="http://www.w3.org/2000/svg">
<path fill-rule="evenodd" clip-rule="evenodd" d="M0.451172 29.9289C0.451172 28.9724 1.23444 28.1879 2.18947 28.1879C7.89388 28.1879 13.3873 25.9659 17.4379 22.085L19.7345 24.6455C15.0337 29.1424 8.71377 31.6699 2.13475 31.6699C1.19449 31.6699 0.451172 30.9005 0.451172 29.9289Z" fill="#167C80"/>
<path fill-rule="evenodd" clip-rule="evenodd" d="M42.7989 9.90841C37.1471 9.90841 31.6553 12.1308 27.6052 16.0114L25.3086 13.4509C29.9556 9.0073 36.221 6.47958 42.746 6.42642H45.6387L42.62 3.403L42.6147 3.39802C41.9349 2.75975 41.9196 1.68376 42.6251 0.977168C42.9811 0.620638 43.4148 0.45166 43.8387 0.45166C44.2627 0.45166 44.6964 0.620639 45.0523 0.977168L51.0285 6.96256L51.0398 6.97246C51.3665 7.25881 51.5426 7.67597 51.5426 8.16741C51.5426 8.58409 51.325 9.07524 51.0179 9.3829L45.1055 15.359L45.097 15.3681C44.4542 16.0548 43.3328 16.0548 42.69 15.3681L42.68 15.3575L42.6694 15.3475C41.9897 14.7093 41.9744 13.6333 42.6799 12.9267L45.6935 9.90841H42.7989Z" fill="#167C80"/>
<path fill-rule="evenodd" clip-rule="evenodd" d="M45.1069 22.6836L51.0221 28.6628L51.0282 28.6685C51.7083 29.3071 51.7246 30.3871 51.067 31.0948L45.1069 37.0641C44.4621 37.71 43.3246 37.71 42.6797 37.0641C42.0349 36.4182 42.0349 35.279 42.6797 34.6331L45.6933 31.6148H42.744C35.4836 31.6148 28.6007 28.5446 23.7611 23.1053L18.5635 17.2421L18.5629 17.2414C14.4263 12.539 8.44678 9.85357 2.13475 9.85357C1.19449 9.85357 0.451172 9.08416 0.451172 8.11258C0.451172 7.15606 1.23444 6.37158 2.18947 6.37158C9.44782 6.37158 16.3312 9.49467 21.1723 14.9359L26.4268 20.7466C30.5629 25.4476 36.5415 28.1329 42.7987 28.1329H45.6933L42.6797 25.1146C42.0349 24.4687 42.0349 23.3295 42.6797 22.6836C43.0357 22.3271 43.4694 22.1581 43.8933 22.1581C44.317 22.1581 44.7504 22.3269 45.1063 22.6829L45.1069 22.6836Z" fill="#167C80"/>
</svg>
