<svg width="52" height="47" viewBox="0 0 52 47" fill="none" xmlns="http://www.w3.org/2000/svg">
<path d="M32.25 20H39.9028" stroke="#167C80" stroke-width="2" stroke-miterlimit="10" stroke-linecap="round"/>
<path d="M32.25 26.25H39.9028" stroke="#167C80" stroke-width="2" stroke-miterlimit="10" stroke-linecap="round"/>
<path d="M19.9028 26.25H12.2501" stroke="#167C80" stroke-width="2" stroke-miterlimit="10" stroke-linecap="round"/>
<path d="M26 5.36788C26 4.60895 26.8122 4.12663 27.4786 4.48983L36.505 9.40964L47.5111 15.9538C47.8142 16.134 48 16.4606 48 16.8133V45H26V5.36788Z" stroke="#167C80" stroke-width="2"/>
<path d="M26 8L4.92634 21.4089C4.34939 21.776 4 22.4124 4 23.0963V46" stroke="#167C80" stroke-width="2"/>
<path d="M1 45H51" stroke="#167C80" stroke-width="2" stroke-miterlimit="10" stroke-linecap="round"/>
<path d="M39.75 45V34.75C39.75 34.1977 39.3023 33.75 38.75 33.75H33.25C32.6977 33.75 32.25 34.1977 32.25 34.75V45" stroke="#167C80" stroke-width="2" stroke-miterlimit="10" stroke-linecap="round"/>
<path d="M12.25 45V34.75C12.25 34.1977 12.6977 33.75 13.25 33.75H18.75C19.3023 33.75 19.75 34.1977 19.75 34.75V45" stroke="#167C80" stroke-width="2" stroke-miterlimit="10" stroke-linecap="round"/>
<circle cx="8.5" cy="8.25" r="3.75" stroke="#167C80" stroke-width="2"/>
</svg>
