<svg width="74" height="54" viewBox="0 0 74 54" fill="none" xmlns="http://www.w3.org/2000/svg">
<path d="M36.4074 14.2011C38.4415 14.2011 39.9182 13.298 39.9182 12.0538C39.9182 11.5764 39.5218 11.1892 39.0331 11.1892C38.5634 11.1892 38.1789 11.5467 38.1497 11.9983C38.0237 12.1531 37.407 12.4716 36.4074 12.4716C35.4079 12.4716 34.7916 12.1523 34.6652 11.9975C34.6356 11.5467 34.2514 11.1892 33.7817 11.1892C33.2926 11.1892 32.8966 11.5764 32.8966 12.0538C32.8966 13.2979 34.3732 14.2011 36.4074 14.2011Z" fill="#167C80"/>
<path fill-rule="evenodd" clip-rule="evenodd" d="M46.7251 10.169C46.7251 15.7852 42.1489 20.338 36.5039 20.338C30.8589 20.338 26.2827 15.7852 26.2827 10.169C26.2827 4.55281 30.8589 0 36.5039 0C42.1489 0 46.7251 4.55281 46.7251 10.169ZM44.7251 10.169C44.7251 14.671 41.054 18.338 36.5039 18.338C31.9538 18.338 28.2827 14.671 28.2827 10.169C28.2827 5.66703 31.9538 2 36.5039 2C41.054 2 44.7251 5.66703 44.7251 10.169Z" fill="#167C80"/>
<path fill-rule="evenodd" clip-rule="evenodd" d="M45.6035 21.7012C45.6296 21.7012 45.6554 21.7023 45.6809 21.7043C46.2699 21.6918 46.8574 21.7444 47.433 21.8605C47.8335 21.9413 48.2281 22.0528 48.6134 22.1946C49.6335 22.57 50.5663 23.1493 51.3549 23.8972C52.1436 24.6451 52.7716 25.5459 53.2005 26.5446C53.3625 26.9218 53.4948 27.31 53.5967 27.7057C53.7528 28.3115 53.8375 28.9348 53.8484 29.5628C53.8561 29.6074 53.8609 29.653 53.8626 29.6996L54.663 51.9642C54.6714 52.1963 54.5999 52.4128 54.4733 52.5872C54.2938 52.8544 53.9887 53.0303 53.6426 53.0303H46.6973C46.6093 53.0607 46.5156 53.0792 46.4179 53.0839C46.2866 53.0902 46.1599 53.0708 46.0429 53.0303H26.8683C26.7512 53.0708 26.6246 53.0902 26.4933 53.0839C26.3956 53.0792 26.3019 53.0607 26.2139 53.0303H19.3516C18.955 53.0303 18.6123 52.7994 18.4506 52.4647C18.3759 52.3182 18.3363 52.1511 18.3426 51.9751L19.1452 29.6493C19.1469 29.6028 19.1517 29.5571 19.1595 29.5125C19.1703 28.8845 19.2551 28.2612 19.4111 27.6554C19.5131 27.2598 19.6454 26.8715 19.8074 26.4943C20.2363 25.4956 20.8642 24.5948 21.6529 23.8469C22.4416 23.099 23.3744 22.5197 24.3944 22.1443C24.7797 22.0025 25.1744 21.891 25.5749 21.8102C26.2168 21.6807 26.8737 21.6302 27.5307 21.661C27.5597 21.6585 27.5889 21.6573 27.6185 21.6574L45.6035 21.7012ZM51.3764 27.328C51.6965 28.0732 51.8624 28.8754 51.8644 29.6862C51.8631 29.7144 51.8629 29.7428 51.8639 29.7714L52.6282 51.0303H47.3207L46.3452 30.6605C46.3188 30.1088 45.8502 29.683 45.2985 29.7095C44.7469 29.7359 44.3211 30.2045 44.3475 30.7561L45.3184 51.0303H27.5928L28.5637 30.7561C28.5901 30.2045 28.1643 29.7359 27.6126 29.7095C27.061 29.683 26.5924 30.1088 26.566 30.6605L25.5905 51.0303H20.3779L21.144 29.7211C21.145 29.6925 21.1448 29.6641 21.1434 29.636C21.1454 28.8251 21.3114 28.0229 21.6314 27.2777C21.9539 26.5268 22.426 25.8496 23.0189 25.2873C23.6118 24.725 24.3131 24.2895 25.08 24.0073C25.84 23.7276 26.6486 23.6044 27.4573 23.6449C27.5082 23.653 27.5604 23.6573 27.6136 23.6574L45.5987 23.7012C45.6543 23.7013 45.7089 23.6969 45.7621 23.6883C46.4999 23.6773 47.2341 23.8023 47.9279 24.0576C48.6947 24.3398 49.396 24.7753 49.989 25.3376C50.5819 25.8999 51.054 26.5771 51.3764 27.328Z" fill="#167C80"/>
<path d="M22.3919 1.80322C21.846 1.80322 21.4035 2.23552 21.4035 2.76876C21.4035 3.30239 21.846 3.73469 22.3919 3.73429C22.9378 3.73429 23.3804 3.30199 23.3804 2.76876C23.3804 2.23552 22.9378 1.80322 22.3919 1.80322Z" fill="#167C80"/>
<path d="M13.1746 40.1529C12.6287 40.1529 12.1862 40.5851 12.1862 41.1184C12.1862 41.652 12.6287 42.0843 13.1746 42.0839C13.7205 42.0839 14.1631 41.6516 14.1631 41.1184C14.1631 40.5851 13.7205 40.1529 13.1746 40.1529Z" fill="#167C80"/>
<path d="M59.0606 36.6514C58.5147 36.6514 58.0722 37.0837 58.0722 37.6169C58.0722 38.1506 58.5151 38.5829 59.0606 38.5825C59.6065 38.5825 60.0491 38.1502 60.0491 37.6169C60.0491 37.0837 59.6065 36.6514 59.0606 36.6514Z" fill="#167C80"/>
<path d="M63.1228 22.8638C63.6115 22.8638 64.0079 22.4769 64.0079 21.9992C64.0079 21.5214 63.6115 21.1342 63.1224 21.1346H61.705V19.75C61.705 19.2723 61.3085 18.8855 60.8198 18.8855C60.3312 18.8855 59.9347 19.2723 59.9347 19.75V21.1346H58.5181C58.0295 21.1346 57.633 21.5214 57.633 21.9992C57.633 22.4769 58.0295 22.8638 58.5181 22.8638H59.9347L59.9351 24.2483C59.9351 24.7261 60.3316 25.1129 60.8202 25.1129C61.3089 25.1129 61.7054 24.7261 61.7054 24.2483V22.8638H63.1228Z" fill="#167C80"/>
<path d="M50.5495 4.12486C50.0609 4.12486 49.6644 4.51171 49.6644 4.98945C49.6644 5.46719 50.0609 5.85405 50.5495 5.85405H51.967V7.23818C51.967 7.71591 52.3634 8.10277 52.8521 8.10277C53.3408 8.10277 53.7372 7.71591 53.7372 7.23818V5.85363H55.1546C55.6433 5.85363 56.0397 5.46678 56.0397 4.98904C56.0397 4.5113 55.6433 4.12445 55.1546 4.12445H53.7372V2.74032C53.7372 2.26258 53.3408 1.87572 52.8521 1.87572C52.3634 1.87572 51.967 2.26258 51.967 2.74032V4.12486H50.5495Z" fill="#167C80"/>
<path d="M11.3025 21.4416C11.3025 21.9194 11.6986 22.3062 12.1877 22.3062C12.6768 22.3062 13.0732 21.919 13.0728 21.4412V20.0571H14.4902C14.9793 20.0571 15.3753 19.6702 15.3753 19.1925C15.3753 18.7148 14.9793 18.3279 14.4902 18.3279H13.0728V16.9434C13.0728 16.4656 12.6768 16.0788 12.1877 16.0788C11.6986 16.0788 11.3025 16.4656 11.3025 16.9434V18.3279H9.88512C9.39604 18.3279 9 18.7148 9 19.1925C9 19.6702 9.39604 20.0571 9.88512 20.0571L11.3025 20.0575V21.4416Z" fill="#167C80"/>
</svg>
