<svg width="71" height="50" viewBox="0 0 71 50" fill="none" xmlns="http://www.w3.org/2000/svg">
<g clip-path="url(#clip0)">
<path d="M35.5 28.8438C37.9406 28.8438 39.9375 26.8469 39.9375 24.4062C39.9375 21.9656 37.9406 19.9688 35.5 19.9688C33.0594 19.9688 31.0625 21.9656 31.0625 24.4062C31.0625 26.8469 33.0594 28.8438 35.5 28.8438ZM35.5 22.1875C36.7203 22.1875 37.7188 23.1859 37.7188 24.4062C37.7188 25.6266 36.7203 26.625 35.5 26.625C34.2797 26.625 33.2812 25.6266 33.2812 24.4062C33.2812 23.1859 34.2797 22.1875 35.5 22.1875Z" fill="#167C80"/>
<path d="M53.25 19.081L36.0547 7.98721C35.7219 7.76533 35.1672 7.76533 34.8344 7.98721L12.6469 22.4091C12.6469 22.4091 12.6469 22.4091 12.5359 22.52C12.425 22.52 12.425 22.631 12.425 22.631C12.425 22.631 12.3141 22.7419 12.3141 22.8528C12.3141 22.9638 12.2031 22.9638 12.2031 23.0747C12.2031 23.1856 12.2031 23.1856 12.2031 23.2966V23.4075V27.845V27.956C12.2031 28.0669 12.2031 28.0669 12.2031 28.1778C12.2031 28.2888 12.2031 28.2888 12.3141 28.3997V28.5106C12.3141 28.5106 12.3141 28.5106 12.425 28.6216C12.425 28.7325 12.5359 28.7325 12.5359 28.7325C12.5359 28.7325 12.6469 28.8435 12.7578 28.8435C12.8687 28.8435 12.8687 28.9544 12.9797 28.9544C13.0906 28.9544 13.0906 28.9544 13.2016 28.9544H13.3125H13.4234C13.5344 28.9544 13.5344 28.9544 13.6453 28.9544C13.7563 28.9544 13.7563 28.9544 13.8672 28.8435H13.9781L15.6422 27.845V42.5997C15.3094 42.4888 14.9766 42.4888 14.5328 42.4888C13.9781 42.4888 13.4234 42.5997 12.8688 42.9325C12.2031 41.7122 11.2047 41.0466 9.98438 41.0466C8.76406 41.0466 7.76562 41.7122 7.21094 42.5997C6.65625 42.2669 6.10156 42.156 5.54688 42.156C3.66094 42.156 2.21875 43.5981 2.21875 45.4841V47.7028H1.10938C0.44375 47.7028 0 48.1466 0 48.8122C0 49.4778 0.44375 49.9216 1.10938 49.9216H69.8906C70.5563 49.9216 71 49.4778 71 48.8122C71 48.1466 70.5563 47.7028 69.8906 47.7028H68.7812V45.4841C68.7812 43.4872 67.45 42.156 65.4531 42.156C64.8984 42.156 64.3438 42.2669 63.7891 42.5997C63.2344 41.7122 62.2359 41.0466 61.0156 41.0466C59.7953 41.0466 58.7969 41.7122 58.2422 42.5997C57.6875 42.2669 57.1328 42.156 56.5781 42.156C56.1344 42.156 55.8016 42.2669 55.4688 42.3778V27.6231L57.1328 28.6216H57.2437H57.3547C57.4656 28.6216 57.5766 28.7325 57.6875 28.7325C57.7984 28.7325 57.9094 28.7325 58.0203 28.6216C58.0203 28.6216 58.0203 28.6216 58.1313 28.6216C58.2422 28.6216 58.3531 28.5106 58.4641 28.3997L58.575 28.2888V28.1778C58.575 28.0669 58.6859 28.0669 58.6859 27.956C58.6859 27.845 58.6859 27.845 58.6859 27.7341V27.6231V23.1856V23.0747C58.6859 22.9638 58.6859 22.9638 58.6859 22.8528C58.6859 22.7419 58.6859 22.7419 58.575 22.631C58.575 22.52 58.4641 22.52 58.4641 22.4091C58.4641 22.2981 58.3531 22.2981 58.3531 22.2981C58.3531 22.2981 58.3531 22.1872 58.2422 22.1872L55.4688 20.5231L53.25 19.081ZM56.5781 44.3747C57.2438 44.3747 57.6875 44.8185 57.6875 45.4841C57.6875 46.1497 58.1312 46.5935 58.7969 46.5935C59.4625 46.5935 59.9062 46.1497 59.9062 45.4841V44.3747C59.9062 43.7091 60.35 43.2653 61.0156 43.2653C61.6813 43.2653 62.125 43.7091 62.125 44.3747V45.4841C62.125 46.1497 62.5687 46.5935 63.2344 46.5935C63.9 46.5935 64.3438 46.1497 64.3438 45.4841C64.3438 44.8185 64.7875 44.3747 65.4531 44.3747C66.3406 44.3747 66.5625 44.8185 66.5625 45.4841V47.7028H55.4688V45.4841C55.4688 44.8185 55.9125 44.3747 56.5781 44.3747ZM35.5 10.206L56.5781 23.9622V25.7372L36.0547 12.4247C35.7219 12.2028 35.1672 12.2028 34.8344 12.4247L14.4219 25.7372V23.9622L35.5 10.206ZM35.5 14.6435L53.25 26.181V45.4841V47.7028H39.9375V35.4997C39.9375 34.8341 39.4938 34.3903 38.8281 34.3903H32.1719C31.5063 34.3903 31.0625 34.8341 31.0625 35.4997V47.7028H17.75V45.4841V26.181L35.5 14.6435ZM33.2812 36.6091H37.7188V47.7028H33.2812V36.6091ZM4.4375 45.4841C4.4375 44.8185 4.88125 44.3747 5.54688 44.3747C6.2125 44.3747 6.65625 44.8185 6.65625 45.4841C6.65625 46.1497 7.1 46.5935 7.76562 46.5935C8.43125 46.5935 8.875 46.1497 8.875 45.4841V44.3747C8.875 43.7091 9.31875 43.2653 9.98438 43.2653C10.65 43.2653 11.0938 43.7091 11.0938 44.3747V45.4841C11.0938 46.1497 11.5375 46.5935 12.2031 46.5935C12.8687 46.5935 13.3125 46.1497 13.3125 45.4841C13.3125 44.8185 13.7563 44.3747 14.4219 44.3747C15.3094 44.3747 15.5312 44.8185 15.5312 45.4841V47.7028H4.4375V45.4841Z" fill="#167C80"/>
<path d="M36.3873 5.49745V0.887495C36.3873 0.652117 36.2938 0.426378 36.1274 0.259941C35.9609 0.093503 35.7352 0 35.4998 0C35.2644 0 35.0387 0.093503 34.8722 0.259941C34.7058 0.426378 34.6123 0.652117 34.6123 0.887495V5.49745C34.6123 5.73283 34.7058 5.95856 34.8722 6.125C35.0387 6.29144 35.2644 6.38494 35.4998 6.38494C35.7352 6.38494 35.9609 6.29144 36.1274 6.125C36.2938 5.95856 36.3873 5.73283 36.3873 5.49745Z" fill="#167C80"/>
<path d="M48.6532 9.66621C48.8143 9.66634 48.9725 9.62261 49.1107 9.53971C49.2488 9.4568 49.3618 9.33784 49.4376 9.19559L51.6034 5.12643C51.6585 5.02351 51.6927 4.91075 51.7041 4.7946C51.7155 4.67844 51.7039 4.56118 51.6699 4.44952C51.636 4.33786 51.5803 4.23399 51.5062 4.14387C51.432 4.05375 51.3408 3.97914 51.2377 3.92432C51.1347 3.86949 51.0219 3.83553 50.9057 3.82438C50.7895 3.81322 50.6723 3.82509 50.5607 3.85931C50.4491 3.89352 50.3454 3.94941 50.2554 4.02377C50.1654 4.09814 50.091 4.18951 50.0364 4.29267L47.8706 8.36183C47.76 8.56963 47.7366 8.81283 47.8053 9.03794C47.8741 9.26305 48.0294 9.45163 48.2372 9.56221C48.3651 9.63071 48.5081 9.66644 48.6532 9.66621Z" fill="#167C80"/>
<path d="M63.1828 14.633C63.1172 14.5366 63.0333 14.4541 62.9358 14.3902C62.8382 14.3262 62.7291 14.2822 62.6145 14.2605C62.5 14.2389 62.3822 14.24 62.2681 14.2639C62.154 14.2878 62.0457 14.334 61.9495 14.3998L58.1404 16.9956C57.9459 17.1282 57.8121 17.3327 57.7684 17.564C57.7247 17.7953 57.7746 18.0344 57.9072 18.2289C58.0399 18.4234 58.2443 18.5572 58.4756 18.6009C58.7069 18.6446 58.9461 18.5947 59.1406 18.462L62.9497 15.8663C63.046 15.8006 63.1284 15.7166 63.1923 15.6191C63.2561 15.5216 63.3001 15.4125 63.3218 15.2979C63.3434 15.1834 63.3423 15.0657 63.3185 14.9516C63.2946 14.8375 63.2485 14.7292 63.1828 14.633Z" fill="#167C80"/>
<path d="M67.7913 28.8322L63.2126 29.3678C62.9879 29.3942 62.7817 29.5055 62.6363 29.6789C62.4909 29.8522 62.4171 30.0746 62.4302 30.3005C62.4433 30.5264 62.5421 30.7387 62.7065 30.8942C62.871 31.0496 63.0886 31.1364 63.3149 31.1367C63.3496 31.1368 63.3844 31.1348 63.4189 31.1307L67.9976 30.595C68.2314 30.5677 68.4447 30.4486 68.5907 30.264C68.7366 30.0793 68.8033 29.8443 68.7759 29.6105C68.7486 29.3767 68.6295 29.1634 68.4448 29.0174C68.2602 28.8715 68.0251 28.8048 67.7913 28.8322V28.8322Z" fill="#167C80"/>
<path d="M22.3453 9.66643C22.4904 9.66667 22.6333 9.63093 22.7613 9.56242C22.969 9.45185 23.1244 9.26326 23.1931 9.03816C23.2619 8.81305 23.2384 8.56985 23.1279 8.36205L20.962 4.29288C20.9073 4.18999 20.8328 4.09889 20.7428 4.02479C20.6529 3.95068 20.5492 3.89501 20.4377 3.86097C20.3263 3.82693 20.2092 3.81517 20.0932 3.82638C19.9772 3.83758 19.8645 3.87152 19.7616 3.92627C19.6587 3.98101 19.5676 4.05549 19.4935 4.14544C19.4194 4.23539 19.3638 4.33906 19.3297 4.45053C19.2957 4.56199 19.2839 4.67907 19.2951 4.79508C19.3063 4.91109 19.3403 5.02375 19.395 5.12664L21.5609 9.19581C21.6366 9.33806 21.7496 9.45702 21.8878 9.53993C22.026 9.62283 22.1841 9.66657 22.3453 9.66643Z" fill="#167C80"/>
<path d="M12.3579 18.6164C12.5477 18.6166 12.7325 18.556 12.8853 18.4434C13.0381 18.3308 13.1507 18.1723 13.2068 17.991C13.2628 17.8097 13.2593 17.6152 13.1966 17.4361C13.134 17.2569 13.0157 17.1026 12.8589 16.9957L9.04975 14.3999C8.85529 14.2673 8.6161 14.2173 8.38481 14.2611C8.15352 14.3048 7.94906 14.4386 7.81643 14.633C7.68379 14.8275 7.63384 15.0667 7.67755 15.298C7.72127 15.5293 7.85508 15.7337 8.04954 15.8664L11.8587 18.4621C12.0058 18.5626 12.1798 18.6163 12.3579 18.6164Z" fill="#167C80"/>
<path d="M7.68581 31.1367C7.91209 31.1364 8.12969 31.0496 8.29413 30.8942C8.45856 30.7387 8.55742 30.5264 8.57048 30.3005C8.58354 30.0746 8.50982 29.8522 8.36439 29.6788C8.21896 29.5055 8.01281 29.3942 7.78808 29.3678L3.20933 28.8322C3.09358 28.8186 2.97629 28.828 2.86417 28.8598C2.75205 28.8916 2.64728 28.9451 2.55586 29.0174C2.46443 29.0897 2.38814 29.1793 2.33133 29.281C2.27452 29.3828 2.23831 29.4947 2.22476 29.6105C2.21122 29.7262 2.22061 29.8435 2.25239 29.9556C2.28417 30.0678 2.33773 30.1725 2.41 30.264C2.48227 30.3554 2.57184 30.4317 2.6736 30.4885C2.77536 30.5453 2.88731 30.5815 3.00306 30.595L7.58181 31.1307C7.61632 31.1348 7.65105 31.1368 7.68581 31.1367Z" fill="#167C80"/>
</g>
<defs>
<clipPath id="clip0">
<rect width="71" height="49.9219" fill="white"/>
</clipPath>
</defs>
</svg>
