<svg width="74" height="54" viewBox="0 0 74 54" fill="none" xmlns="http://www.w3.org/2000/svg">
<path d="M36.5415 0.00134889C36.2781 0.0351791 36.0331 0.156505 35.8443 0.346511C31.538 4.63905 27.1259 10.4837 23.7471 16.5691C20.3684 22.6546 18 28.9618 18 34.3641C18 45.969 26.4298 54 36.6923 54C46.9547 54 55.3845 45.969 55.3845 34.3641C55.3868 34.2015 55.3572 34.04 55.2976 33.8891C55.2381 33.7382 55.1496 33.6009 55.0374 33.4851C54.9252 33.3692 54.7915 33.2773 54.644 33.2145C54.4966 33.1517 54.3384 33.1194 54.1786 33.1194C54.0187 33.1194 53.8605 33.1517 53.7131 33.2145C53.5656 33.2773 53.4319 33.3692 53.3197 33.4851C53.2075 33.6009 53.119 33.7382 53.0595 33.8891C52.9999 34.04 52.9703 34.2015 52.9726 34.3641C52.9726 44.7852 45.7447 51.5455 36.6923 51.5455C27.6398 51.5455 20.4119 44.7852 20.4119 34.3641C20.4119 29.7127 22.5791 23.648 25.8387 17.7772C28.8705 12.3165 32.8264 7.06529 36.6734 3.05028C43.3929 10.0564 50.3967 20.9874 52.3885 29.7236C52.4243 29.881 52.4903 30.0297 52.5827 30.1611C52.675 30.2925 52.7919 30.4042 52.9266 30.4896C53.0613 30.5751 53.2113 30.6327 53.3679 30.6592C53.5245 30.6857 53.6847 30.6806 53.8394 30.6441C53.994 30.6075 54.1401 30.5404 54.2693 30.4464C54.3984 30.3525 54.5081 30.2335 54.5921 30.0964C54.6761 29.9593 54.7327 29.8067 54.7588 29.6473C54.7848 29.4879 54.7797 29.3249 54.7438 29.1675C52.4876 19.2713 44.8288 7.6118 37.5402 0.346511C37.4231 0.231062 37.2843 0.140955 37.1321 0.08163C36.9799 0.0223054 36.8174 -0.00500479 36.6546 0.00134889C36.6169 -0.000449632 36.5792 -0.000449632 36.5415 0.00134889ZM26.9881 28.8415C26.7943 28.8517 26.6057 28.9092 26.4384 29.0094C26.2711 29.1095 26.13 29.2493 26.0271 29.4168C24.8663 31.3156 24.0298 34.1463 24.0298 37.4322C24.0298 39.4776 24.5183 41.5293 25.556 43.1658C26.5937 44.8022 28.3138 46.0229 30.4364 46.0229C31.6943 46.0229 32.8247 45.6202 33.6397 44.834C34.4546 44.0479 34.8833 42.9207 34.8833 41.7276C34.8833 40.5522 34.3543 39.5678 33.7151 38.6595C33.0758 37.7511 32.2871 36.8868 31.5104 35.9749C29.9571 34.151 28.5089 32.2036 28.2506 29.9346C28.2173 29.6227 28.0679 29.3356 27.8331 29.1324C27.5983 28.9291 27.2959 28.825 26.9881 28.8415ZM26.9316 33.5971C27.7002 35.1229 28.7204 36.4365 29.6827 37.5665C30.4874 38.5115 31.2469 39.3559 31.7554 40.0785C32.2639 40.801 32.4714 41.3689 32.4714 41.7276C32.4714 42.3753 32.2797 42.7822 31.9815 43.0699C31.6833 43.3576 31.2192 43.5684 30.4364 43.5684C29.1729 43.5684 28.2855 42.9483 27.5722 41.8235C26.859 40.6986 26.4417 39.0686 26.4417 37.4322C26.4417 36.0346 26.6411 34.7302 26.9316 33.5971Z" fill="#167C80"/>
</svg>
