<svg width="74" height="52" viewBox="0 0 74 52" fill="none" xmlns="http://www.w3.org/2000/svg">
<path fill-rule="evenodd" clip-rule="evenodd" d="M15 45C15 44.4477 15.4477 44 16 44L23 44C23.5523 44 24 44.4477 24 45C24 45.5523 23.5523 46 23 46L16 46C15.4477 46 15 45.5523 15 45Z" fill="#167C80"/>
<path fill-rule="evenodd" clip-rule="evenodd" d="M40 40C40 39.4477 40.4477 39 41 39L45 39C45.5523 39 46 39.4477 46 40C46 40.5523 45.5523 41 45 41L41 41C40.4477 41 40 40.5523 40 40Z" fill="#167C80"/>
<path fill-rule="evenodd" clip-rule="evenodd" d="M5 40C5 39.4477 5.44772 39 6 39L35 39C35.5523 39 36 39.4477 36 40C36 40.5523 35.5523 41 35 41L6 41C5.44772 41 5 40.5523 5 40Z" fill="#167C80"/>
<path fill-rule="evenodd" clip-rule="evenodd" d="M26 45C26 44.4477 26.4477 44 27 44H55.4167C57.5308 44 59 45.9364 59 48C59 50.0636 57.5308 52 55.4167 52C54.8644 52 54.4167 51.5523 54.4167 51C54.4167 50.4477 54.8644 50 55.4167 50C56.156 50 57 49.2501 57 48C57 46.7499 56.156 46 55.4167 46H27C26.4477 46 26 45.5523 26 45Z" fill="#167C80"/>
<path fill-rule="evenodd" clip-rule="evenodd" d="M27.5 10.9995C24.6714 10.9995 22.2624 12.8068 21.3696 15.3328C21.1856 15.8535 20.6143 16.1264 20.0935 15.9424C19.5728 15.7583 19.2999 15.187 19.4839 14.6663C20.6503 11.3662 23.7975 8.99952 27.5 8.99952C30.6502 8.99952 33.3988 10.7137 34.8661 13.2554C35.1422 13.7337 34.9783 14.3453 34.5 14.6214C34.0217 14.8975 33.4101 14.7336 33.134 14.2553C32.0093 12.3071 29.9068 10.9995 27.5 10.9995Z" fill="#167C80"/>
<path fill-rule="evenodd" clip-rule="evenodd" d="M34 25.9995C34 25.4472 34.4477 24.9995 35 24.9995C38.0376 24.9995 40.5 27.462 40.5 30.4995C40.5 33.5371 38.0376 35.9995 35 35.9995H21C20.4477 35.9995 20 35.5518 20 34.9995C20 34.4472 20.4477 33.9995 21 33.9995H35C36.933 33.9995 38.5 32.4325 38.5 30.4995C38.5 28.5665 36.933 26.9995 35 26.9995C34.4477 26.9995 34 26.5518 34 25.9995Z" fill="#167C80"/>
<path fill-rule="evenodd" clip-rule="evenodd" d="M20 15.9995C15.1638 15.9995 12 19.8843 12 24.9995C12 29.9701 16.0294 33.9995 21 33.9995C21.5523 33.9995 22 34.4472 22 34.9995C22 35.5518 21.5523 35.9995 21 35.9995C14.9249 35.9995 10 31.0747 10 24.9995C10 19.0691 13.7905 13.9995 20 13.9995C20.5523 13.9995 21 14.4472 21 14.9995C21 15.5518 20.5523 15.9995 20 15.9995Z" fill="#167C80"/>
<path fill-rule="evenodd" clip-rule="evenodd" d="M54.7297 14.5565C55.9197 14.1365 57.1607 13.9995 58 13.9995C64.0751 13.9995 69 18.9244 69 24.9995C69 31.0747 64.0751 35.9995 58 35.9995H52.5C51.9477 35.9995 51.5 35.5518 51.5 34.9995C51.5 34.4472 51.9477 33.9995 52.5 33.9995H58C62.9705 33.9995 67 29.9701 67 24.9995C67 20.029 62.9705 15.9995 58 15.9995C57.3392 15.9995 56.3303 16.1125 55.3953 16.4425C54.4447 16.778 53.7281 17.2794 53.3944 17.9467C53.1474 18.4407 52.5467 18.6409 52.0528 18.394C51.5588 18.147 51.3586 17.5463 51.6055 17.0523C52.2719 15.7196 53.5553 14.971 54.7297 14.5565Z" fill="#167C80"/>
<path fill-rule="evenodd" clip-rule="evenodd" d="M42.8026 2.7665C36.2381 1.00755 30.1717 3.89253 28.466 10.2583C28.323 10.7918 27.7747 11.1084 27.2412 10.9654C26.7077 10.8225 26.3912 10.2742 26.5341 9.7407C28.5775 2.11473 35.8929 -1.1555 43.3202 0.834645C50.8496 2.85213 55.3178 10.5914 53.3004 18.1207L53.2802 18.196L53.2486 18.2672C52.9285 18.9893 52.3528 20.1576 51.6503 21.3542C50.9557 22.5374 50.0986 23.8152 49.2072 24.7066C48.8166 25.0972 48.1835 25.0972 47.7929 24.7066C47.4024 24.3161 47.4024 23.6829 47.7929 23.2924C48.5015 22.5839 49.2559 21.4824 49.9256 20.3417C50.564 19.2542 51.0904 18.1918 51.3884 17.5281C53.0704 11.0894 49.24 4.4914 42.8026 2.7665Z" fill="#167C80"/>
</svg>
